SplineFontDB: 3.0
FontName: Klaudia-BookOblique
FullName: Klaudia Book Oblique
FamilyName: Klaudia
Weight: Book
Copyright: Copyright (c) 2020-2024 by Wojciech Kalinowski "wmk69" with Reserved Font Name "Klaudia-BookOblique".\nThis Font Software is licensed under the SIL Open Font License, Version 1.1.
Version: 3.1.0; 2021-05-10
ItalicAngle: -12
UnderlinePosition: -80
UnderlineWidth: 200
Ascent: 1638
Descent: 410
InvalidEm: 0
LayerCount: 2
Layer: 0 1 "Warstwa t+AUIA-a" 1
Layer: 1 1 "Plan pierwszy" 0
XUID: [1021 783 23647091 10727182]
StyleMap: 0x0001
FSType: 0
OS2Version: 3
OS2_WeightWidthSlopeOnly: 0
OS2_UseTypoMetrics: 1
CreationTime: 1260698820
ModificationTime: 1620665375
PfmFamily: 33
TTFWeight: 400
TTFWidth: 5
LineGap: 300
VLineGap: 0
Panose: 2 13 5 2 5 5 3 13 2 4
OS2TypoAscent: 2000
OS2TypoAOffset: 0
OS2TypoDescent: -450
OS2TypoDOffset: 0
OS2TypoLinegap: 300
OS2WinAscent: 2000
OS2WinAOffset: 0
OS2WinDescent: 450
OS2WinDOffset: 0
HheadAscent: 2000
HheadAOffset: 0
HheadDescent: -450
HheadDOffset: 0
OS2SubXSize: 1434
OS2SubYSize: 1331
OS2SubXOff: 0
OS2SubYOff: 287
OS2SupXSize: 1434
OS2SupYSize: 1331
OS2SupXOff: 0
OS2SupYOff: 977
OS2StrikeYSize: 102
OS2StrikeYPos: 512
OS2CapHeight: 1510
OS2XHeight: 1100
OS2Vendor: '    '
OS2CodePages: 20000093.00000000
OS2UnicodeRanges: 8000002f.4000204b.00000000.00000000
Lookup: 258 0 0 "'kern' Horizontal Kerning lookup 0" { "'kern' Horizontal Kerning lookup 0-1 subtable" [307,0,4] } ['kern' ('DFLT' <'dflt' > 'grek' <'dflt' > 'latn' <'dflt' > ) ]
MarkAttachClasses: 1
DEI: 91125
KernClass2: 68 54 "'kern' Horizontal Kerning lookup 0-1 subtable"
 84 A Agrave Aacute Acircumflex Atilde Adieresis Aring Amacron Abreve Aogonek Aringacute
 17 B uni1E02 uni1E9E
 137 C E AE Ccedilla Egrave Eacute Ecircumflex Edieresis Cacute Ccircumflex Cdotaccent Ccaron Emacron Ebreve Edotaccent Eogonek Ecaron AEacute
 122 D O Q Eth Ograve Oacute Ocircumflex Otilde Odieresis Oslash Dcaron Dcroat Omacron Obreve Ohungarumlaut Oslashacute uni1E0A

StartChar: .notdef
Encoding: 65536 -1 0
Width: 994
Flags: W
HStem: 0 68<274 748> 1442 68<567 1041>
VStem: 150 694<0 694> 471 694<816 1510>
DStem2: 150 0 259.546 0 0.207912 0.978148<92.2951 1497.19> 733.546 0 844 0 0.207912 0.978148<69.5192 1474.41>
LayerCount: 2
Fore
SplineSet
150 0 m 1,0,-1
 471 1510 l 1,1,-1
 1165 1510 l 1,2,-1
 844 0 l 1,3,-1
 150 0 l 1,0,-1
274 68 m 1,4,-1
 748 68 l 1,5,-1
 1041 1442 l 1,6,-1
 567 1442 l 1,7,-1
 274 68 l 1,4,-1
EndSplineSet
Validated: 1
EndChar

StartChar: exclam
Encoding: 33 33 4
Width: 740
GlyphClass: 2
Flags: W
HStem: -20 255<316.032 471.139> 1490 20G<567.871 811>
VStem: 264 258<30.585 182.984>
LayerCount: 2
Fore
SplineSet
571 1510 m 1,0,-1
 811 1510 l 1,1,-1
 500 353 l 1,2,-1
 390 353 l 1,3,-1
 571 1510 l 1,0,-1
366 -20 m 0,4,5
 313 -20 313 -20 285 18 c 0,6,7
 264 46 264 46 264 81 c 0,8,9
 264 94 264 94 267 108 c 0,10,11
 277 157 277 157 323 197 c 24,12,13
 366 235 366 235 420 235 c 0,14,15
 472 235 472 235 501 198 c 0,16,17
 522 170 522 170 522 136 c 0,18,19
 522 123 522 123 519 108 c 0,20,21
 508 55 508 55 463 17 c 24,22,23
 417 -20 417 -20 366 -20 c 0,4,5
EndSplineSet
Validated: 1
EndChar

StartChar: quotedbl
Encoding: 34 34 5
Width: 506
GlyphClass: 2
Flags: W
HStem: 1120 430<379 438 635 694>
VStem: 288 150<1120 1270> 379 150<1400 1550> 544 150<1120 1270> 635 150<1400 1550>
DStem2: 288 1120 438 1120 0.207912 0.978148<31.1868 439.523> 544 1120 694 1120 0.207912 0.978148<31.1868 439.523>
LayerCount: 2
Fore
SplineSet
635 1550 m 1,0,-1
 785 1550 l 1,1,-1
 694 1120 l 1,2,-1
 544 1120 l 1,3,-1
 635 1550 l 1,0,-1
379 1550 m 1,4,-1
 529 1550 l 1,5,-1
 438 1120 l 1,6,-1
 288 1120 l 1,7,-1
 379 1550 l 1,4,-1
EndSplineSet
Validated: 1
EndChar

StartChar: numbersign
Encoding: 35 35 6
Width: 1289
GlyphClass: 2
Flags: W
HStem: 500 120<282 496 642 886 1032 1245> 890 120<365 579 725 969 1115 1328>
VStem: 445 120<260 380> 656 120<1130 1250> 835 120<260 380> 1046 120<1130 1250>
DStem2: 445 260 565 260 0.207912 0.978148<24.9494 245.359 393.092 644.093 791.826 1012.24> 835 260 955 260 0.207912 0.978148<24.9494 245.359 393.092 644.093 791.826 1012.24>
LayerCount: 2
Fore
SplineSet
656 1250 m 1,0,-1
 776 1250 l 1,1,-1
 725 1010 l 1,2,-1
 995 1010 l 1,3,-1
 1046 1250 l 1,4,-1
 1166 1250 l 1,5,-1
 1115 1010 l 1,6,-1
 1354 1010 l 1,7,-1
 1328 890 l 1,8,-1
 1089 890 l 1,9,-1
 1032 620 l 1,10,-1
 1271 620 l 1,11,-1
 1245 500 l 1,12,-1
 1006 500 l 1,13,-1
 955 260 l 1,14,-1
 835 260 l 1,15,-1
 886 500 l 1,16,-1
 616 500 l 1,17,-1
 565 260 l 1,18,-1
 445 260 l 1,19,-1
 496 500 l 1,20,-1
 256 500 l 1,21,-1
 282 620 l 1,22,-1
 522 620 l 1,23,-1
 579 890 l 1,24,-1
 339 890 l 1,25,-1
 365 1010 l 1,26,-1
 605 1010 l 1,27,-1
 656 1250 l 1,0,-1
969 890 m 1,28,-1
 699 890 l 1,29,-1
 642 620 l 1,30,-1
 912 620 l 1,31,-1
 969 890 l 1,28,-1
EndSplineSet
Validated: 1
EndChar

StartChar: dollar
Encoding: 36 36 7
Width: 1284
GlyphClass: 2
Flags: W
HStem: -20 120<463.998 648> 1408 121<1077 1151.48>
VStem: 522 197<1040.68 1270.89> 627 100<-120 -20> 999 100<1530 1630> 1083 211<367.472 632.099>
DStem2: 627 -120 727 -120 0.207912 0.978148<20.7912 103.159 264.194 881.608 1120.49 1558.06 1706.53 1789.1> 819 998 700 834 0.877658 -0.479288<-125.01 46.5283 208.64 422.403>
LayerCount: 2
Fore
SplineSet
613 -20 m 0,0,1
 305 -20 305 -20 144 206 c 1,2,-1
 319 293 l 1,3,4
 422 100 422 100 651 100 c 0,5,6
 663 100 663 100 674 101 c 1,7,-1
 816 770 l 1,8,-1
 700 834 l 2,9,10
 522 931 522 931 522 1102 c 0,11,12
 522 1125 522 1125 525 1149 c 0,13,14
 548 1314 548 1314 723 1433 c 0,15,16
 840 1513 840 1513 977 1527 c 1,17,-1
 999 1630 l 1,18,-1
 1099 1630 l 1,19,-1
 1077 1529 l 1,20,21
 1255 1516 1255 1516 1362 1386 c 1,22,-1
 1212 1290 l 1,23,24
 1155 1394 1155 1394 1052 1408 c 1,25,-1
 950 927 l 1,26,-1
 1082 856 l 2,27,28
 1294 742 1294 742 1294 553 c 0,29,30
 1294 525 1294 525 1289 495 c 0,31,32
 1261 312 1261 312 1095 160 c 0,33,34
 948 25 948 25 751 -9 c 1,35,-1
 727 -120 l 1,36,-1
 627 -120 l 1,37,-1
 648 -19 l 1,38,39
 630 -20 630 -20 613 -20 c 0,0,1
860 976 m 1,40,-1
 951 1404 l 1,41,42
 877 1390 877 1390 821 1346 c 0,43,44
 741 1282 741 1282 724 1198 c 0,45,46
 719 1174 719 1174 719 1153 c 0,47,48
 719 1052 719 1052 819 998 c 2,49,-1
 860 976 l 1,40,-1
906 722 m 1,50,-1
 778 118 l 1,51,52
 890 152 890 152 972 248 c 0,53,54
 1056 347 1056 347 1077 454 c 0,55,56
 1083 485 1083 485 1083 512 c 0,57,58
 1083 625 1083 625 982 680 c 2,59,-1
 906 722 l 1,50,-1
EndSplineSet
Validated: 1
EndChar

StartChar: percent
Encoding: 37 37 8
Width: 1519
GlyphClass: 2
Flags: W
HStem: -20 93<956.226 1171.43> 0 21G<250 441.417> 513 93<1061.57 1276.6> 904 93<563.396 778.426> 1437 93<668.574 883.774> 1490 20G<1398.58 1590>
VStem: 250 176<0 176> 393 143<1020.55 1280.09> 786 143<96.5496 356.09> 911 143<1153.91 1413.45> 1304 143<229.91 489.45> 1414 176<1334 1510>
DStem2: 250 0 426 0 0.610522 0.792<107.452 1906.57>
LayerCount: 2
Fore
SplineSet
1008 -20 m 0,0,1
 885 -20 885 -20 824 64 c 0,2,3
 786 116 786 116 786 187 c 0,4,5
 786 218 786 218 793 253 c 0,6,7
 824 399 824 399 957 506 c 0,8,9
 1081 606 1081 606 1225 606 c 0,10,11
 1347 606 1347 606 1409 522 c 0,12,13
 1447 470 1447 470 1447 399 c 0,14,15
 1447 368 1447 368 1440 333 c 0,16,17
 1409 187 1409 187 1276 80 c 0,18,19
 1152 -20 1152 -20 1008 -20 c 0,0,1
1044 73 m 0,20,21
 1129 73 1129 73 1197 140 c 0,22,23
 1274 214 1274 214 1296 318 c 0,24,25
 1304 353 1304 353 1304 382 c 0,26,27
 1304 426 1304 426 1286 456 c 0,28,29
 1255 513 1255 513 1189 513 c 0,30,31
 1104 513 1104 513 1036 446 c 0,32,33
 959 372 959 372 937 268 c 0,34,35
 929 233 929 233 929 204 c 0,36,37
 929 160 929 160 947 130 c 0,38,39
 978 73 978 73 1044 73 c 0,20,21
832 1530 m 0,40,41
 955 1530 955 1530 1016 1446 c 0,42,43
 1054 1394 1054 1394 1054 1323 c 0,44,45
 1054 1292 1054 1292 1047 1257 c 0,46,47
 1016 1111 1016 1111 883 1004 c 0,48,49
 759 904 759 904 615 904 c 0,50,51
 493 904 493 904 431 988 c 0,52,53
 393 1040 393 1040 393 1111 c 0,54,55
 393 1142 393 1142 400 1177 c 0,56,57
 431 1323 431 1323 564 1430 c 0,58,59
 688 1530 688 1530 832 1530 c 0,40,41
796 1437 m 0,60,61
 711 1437 711 1437 643 1370 c 0,62,63
 566 1296 566 1296 544 1192 c 0,64,65
 536 1157 536 1157 536 1128 c 0,66,67
 536 1084 536 1084 554 1054 c 0,68,69
 585 997 585 997 651 997 c 0,70,71
 736 997 736 997 804 1064 c 0,72,73
 881 1138 881 1138 903 1242 c 0,74,75
 911 1277 911 1277 911 1306 c 0,76,77
 911 1350 911 1350 893 1380 c 0,78,79
 862 1437 862 1437 796 1437 c 0,60,61
250 0 m 1,80,-1
 1414 1510 l 1,81,-1
 1590 1510 l 1,82,-1
 426 0 l 1,83,-1
 250 0 l 1,80,-1
EndSplineSet
Validated: 1
EndChar

StartChar: ampersand
Encoding: 38 38 9
Width: 1695
GlyphClass: 2
Flags: W
HStem: -20 120<535.546 924.933> 0 21G<1229.71 1458> 1415 115<903.097 1157.22>
VStem: 232 217<189.734 551.392> 598 184<1073.94 1290.25> 1535 180<868.458 1034>
DStem2: 924 1034 790 873 0.458862 -0.888508<81.5623 745.552 906.288 1063.72>
LayerCount: 2
Fore
SplineSet
1458 0 m 1,0,-1
 1240 0 l 1,1,-1
 1168 140 l 1,2,3
 928 -20 928 -20 633 -20 c 0,4,5
 414 -20 414 -20 302 119 c 0,6,7
 232 206 232 206 232 332 c 0,8,9
 232 386 232 386 245 447 c 0,10,11
 288 654 288 654 445 801 c 0,12,13
 568 916 568 916 729 978 c 1,14,15
 598 1028 598 1028 598 1144 c 0,16,17
 598 1162 598 1162 601 1181 c 0,18,19
 622 1317 622 1317 760 1423 c 0,20,21
 899 1530 899 1530 1095 1530 c 0,22,23
 1241 1530 1241 1530 1316 1452 c 0,24,25
 1349 1417 1349 1417 1361 1374 c 1,26,-1
 1184 1292 l 1,27,28
 1184 1346 1184 1346 1156 1376 c 0,29,30
 1121 1415 1121 1415 1043 1415 c 0,31,32
 943 1415 943 1415 866 1339 c 0,33,34
 806 1280 806 1280 787 1189 c 0,35,36
 782 1168 782 1168 782 1149 c 0,37,38
 782 1103 782 1103 810 1073 c 0,39,40
 845 1034 845 1034 924 1034 c 1,41,-1
 1265 371 l 1,42,43
 1438 588 1438 588 1535 1034 c 1,44,-1
 1715 1034 l 1,45,46
 1607 533 1607 533 1324 258 c 1,47,-1
 1458 0 l 1,0,-1
790 873 m 1,48,49
 706 836 706 836 632 762 c 0,50,51
 498 627 498 627 461 450 c 0,52,53
 449 395 449 395 449 347 c 0,54,55
 449 261 449 261 487 198 c 0,56,57
 546 100 546 100 690 100 c 0,58,59
 925 100 925 100 1116 240 c 1,60,-1
 790 873 l 1,48,49
EndSplineSet
Validated: 1
EndChar

StartChar: quotesingle
Encoding: 39 39 10
Width: 250
GlyphClass: 2
Flags: W
HStem: 1120 430<379 438>
VStem: 288 150<1120 1270> 379 150<1400 1550>
DStem2: 288 1120 438 1120 0.207912 0.978148<31.1868 439.523>
LayerCount: 2
Fore
SplineSet
379 1550 m 1,0,-1
 529 1550 l 1,1,-1
 438 1120 l 1,2,-1
 288 1120 l 1,3,-1
 379 1550 l 1,0,-1
EndSplineSet
Validated: 1
EndChar

StartChar: parenleft
Encoding: 40 40 11
Width: 739
GlyphClass: 2
Flags: W
VStem: 321 200<58.8179 739.127>
LayerCount: 2
Fore
SplineSet
636 -250 m 1,0,1
 480 -250 l 1,2,3
 386 -62 386 -62 343 159 c 0,4,5
 321 272 321 272 321 397 c 0,6,7
 321 565 321 565 361 755 c 0,8,9
 431 1085 431 1085 596 1351 c 0,10,11
 731 1568 731 1568 907 1760 c 1,12,-1
 1063 1760 l 1,13,14
 869 1535 869 1535 756 1297 c 0,15,16
 628 1031 628 1031 569 755 c 0,17,18
 521 531 521 531 521 326 c 0,19,20
 521 269 521 269 525 213 c 0,21,22
 541 -20 541 -20 636 -250 c 1,0,1
EndSplineSet
Validated: 1
EndChar

StartChar: parenright
Encoding: 41 41 12
Width: 739
GlyphClass: 2
Flags: W
VStem: 539 200<770.873 1451.18>
LayerCount: 2
Fore
SplineSet
153 -250 m 1,0,-1
 -3 -250 l 1,1,2
 191 -25 191 -25 304 213 c 0,3,4
 432 479 432 479 491 755 c 0,5,6
 539 979 539 979 539 1184 c 0,7,8
 539 1241 539 1241 535 1297 c 0,9,10
 519 1530 519 1530 424 1760 c 1,11,-1
 580 1760 l 1,12,13
 674 1572 674 1572 717 1351 c 0,14,15
 739 1238 739 1238 739 1113 c 0,16,17
 739 945 739 945 699 755 c 0,18,19
 629 425 629 425 464 159 c 0,20,21
 329 -58 329 -58 153 -250 c 1,0,-1
EndSplineSet
Validated: 1
EndChar

StartChar: asterisk
Encoding: 42 42 13
Width: 738
GlyphClass: 2
Flags: W
HStem: 883 667
VStem: 497 120<883 1003> 638 120<1430 1550>
DStem2: 284 1102 322 998 0.889718 0.456511<0 238.128 478.539 715.777> 415 1435 333 1331 0.835835 -0.54898<0 197.124 397.724 595.134> 497 883 617 883 0.207912 0.978148<24.9494 235.162 471.736 681.74>
LayerCount: 2
Fore
SplineSet
638 1550 m 1,0,-1
 758 1550 l 1,1,-1
 710 1320 l 1,2,-1
 933 1435 l 1,3,-1
 971 1331 l 1,4,-1
 747 1216 l 1,5,-1
 922 1102 l 1,6,-1
 840 998 l 1,7,-1
 666 1113 l 1,8,-1
 617 883 l 1,9,-1
 497 883 l 1,10,-1
 546 1113 l 1,11,-1
 322 998 l 1,12,-1
 284 1102 l 1,13,-1
 507 1216 l 1,14,-1
 333 1331 l 1,15,-1
 415 1435 l 1,16,-1
 590 1320 l 1,17,-1
 638 1550 l 1,0,-1
EndSplineSet
Validated: 1
EndChar

StartChar: plus
Encoding: 43 43 14
Width: 1180
GlyphClass: 2
Flags: W
HStem: 680 150<326 660 841 1175>
VStem: 582 150<315 465> 769 150<1045 1195>
DStem2: 582 315 732 315 0.207912 0.978148<31.1868 373.241 557.595 899.649>
LayerCount: 2
Fore
SplineSet
769 1195 m 1,0,-1
 919 1195 l 1,1,-1
 841 830 l 1,2,-1
 1206 830 l 1,3,-1
 1175 680 l 1,4,-1
 810 680 l 1,5,-1
 732 315 l 1,6,-1
 582 315 l 1,7,-1
 660 680 l 1,8,-1
 295 680 l 1,9,-1
 326 830 l 1,10,-1
 691 830 l 1,11,-1
 769 1195 l 1,0,-1
EndSplineSet
Validated: 1
EndChar

StartChar: comma
Encoding: 44 44 15
Width: 352
GlyphClass: 2
Flags: W
HStem: -270 485
VStem: 158 145<-112.359 79.7949>
LayerCount: 2
Fore
SplineSet
176 215 m 1,0,1
 303 148 303 148 303 31 c 0,2,3
 303 5 303 5 297 -22 c 0,4,5
 262 -188 262 -188 72 -270 c 1,6,-1
 8 -182 l 1,7,8
 133 -132 133 -132 155 -32 c 0,9,10
 158 -16 158 -16 158 -2 c 0,11,12
 158 73 158 73 65 108 c 1,13,-1
 176 215 l 1,0,1
EndSplineSet
Validated: 1
EndChar

StartChar: hyphen
Encoding: 45 45 16
Width: 1180
GlyphClass: 2
Flags: W
HStem: 680 150<326 1175>
LayerCount: 2
Fore
SplineSet
326 830 m 1,0,-1
 1206 830 l 1,1,-1
 1175 680 l 1,2,-1
 295 680 l 1,3,-1
 326 830 l 1,0,-1
EndSplineSet
Validated: 1
EndChar

StartChar: period
Encoding: 46 46 17
Width: 352
GlyphClass: 2
Flags: W
HStem: -20 255<122.032 277.139>
VStem: 70 258<30.585 182.984>
LayerCount: 2
Fore
SplineSet
172 -20 m 0,0,1
 119 -20 119 -20 91 18 c 0,2,3
 70 46 70 46 70 81 c 0,4,5
 70 94 70 94 73 108 c 0,6,7
 83 157 83 157 129 197 c 24,8,9
 172 235 172 235 226 235 c 0,10,11
 278 235 278 235 307 198 c 0,12,13
 328 170 328 170 328 136 c 0,14,15
 328 123 328 123 325 108 c 0,16,17
 314 55 314 55 269 17 c 24,18,19
 223 -20 223 -20 172 -20 c 0,0,1
EndSplineSet
Validated: 1
EndChar

StartChar: slash
Encoding: 47 47 18
Width: 1153
GlyphClass: 2
Flags: W
VStem: -18 204<-130 74> 1288 204<1436 1640>
DStem2: -18 -130 186 -130 0.593726 0.804667<121.12 2199.67>
LayerCount: 2
Fore
SplineSet
186 -130 m 1,0,-1
 -18 -130 l 1,1,-1
 1288 1640 l 1,2,-1
 1492 1640 l 1,3,-1
 186 -130 l 1,0,-1
EndSplineSet
Validated: 1
EndChar

StartChar: zero
Encoding: 48 48 19
Width: 1759
GlyphClass: 2
Flags: W
HStem: -20 120<629.414 1080.38> 1410 120<999.615 1450.59>
VStem: 224 219<285.747 760.891> 1637 218<749.109 1224.19>
LayerCount: 2
Fore
SplineSet
784 -20 m 0,0,1
 471 -20 471 -20 319 190 c 0,2,3
 224 321 224 321 224 502 c 0,4,5
 224 571 224 571 238 648 c 0,6,7
 310 1057 310 1057 657 1311 c 0,8,9
 956 1530 956 1530 1296 1530 c 0,10,11
 1609 1530 1609 1530 1761 1320 c 0,12,13
 1855 1189 1855 1189 1855 1007 c 0,14,15
 1855 938 1855 938 1842 862 c 0,16,17
 1770 453 1770 453 1423 199 c 0,18,19
 1124 -20 1124 -20 784 -20 c 0,0,1
839 100 m 0,20,21
 1100 100 1100 100 1298 280 c 0,22,23
 1549 509 1549 509 1617 839 c 0,24,25
 1637 935 1637 935 1637 1016 c 0,26,27
 1637 1145 1637 1145 1586 1236 c 0,28,29
 1487 1410 1487 1410 1241 1410 c 0,30,31
 980 1410 980 1410 782 1230 c 0,32,33
 531 1001 531 1001 463 671 c 0,34,35
 443 575 443 575 443 494 c 0,36,37
 443 365 443 365 494 274 c 0,38,39
 593 100 593 100 839 100 c 0,20,21
EndSplineSet
Validated: 1
EndChar

StartChar: one
Encoding: 49 49 20
Width: 700
GlyphClass: 2
Flags: W
HStem: 0 21G<250 454.252> 1390 120<361 545>
VStem: 250 200<0 200>
DStem2: 250 0 450 0 0.207912 0.978148<41.5823 1420.96>
LayerCount: 2
Fore
SplineSet
250 0 m 1,0,-1
 545 1390 l 1,1,-1
 335 1390 l 1,2,-1
 361 1510 l 1,3,-1
 771 1510 l 1,4,-1
 450 0 l 1,5,-1
 250 0 l 1,0,-1
EndSplineSet
Validated: 1
EndChar

StartChar: two
Encoding: 50 50 21
Width: 1343
GlyphClass: 2
Flags: W
HStem: 0 120<348 1193> 1105 21G<459.5 521> 1410 120<783.514 1106.55>
VStem: 1196 226<962.293 1318.37>
LayerCount: 2
Fore
SplineSet
120 0 m 1,0,-1
 146 120 l 1,1,2
 692 406 692 406 983 713 c 0,3,4
 1147 886 1147 886 1184 1060 c 0,5,6
 1196 1114 1196 1114 1196 1161 c 0,7,8
 1196 1248 1196 1248 1156 1312 c 0,9,10
 1095 1410 1095 1410 951 1410 c 0,11,12
 786 1410 786 1410 642 1294 c 0,13,14
 550 1220 550 1220 492 1105 c 1,15,-1
 388 1169 l 1,16,17
 448 1244 448 1244 493 1289 c 24,18,19
 730 1530 730 1530 1022 1530 c 0,20,21
 1240 1530 1240 1530 1349 1387 c 0,22,23
 1422 1293 1422 1293 1422 1168 c 0,24,25
 1422 1118 1422 1118 1410 1063 c 0,26,27
 1360 827 1360 827 1160 646 c 0,28,29
 813 329 813 329 348 120 c 1,30,-1
 1219 120 l 1,31,-1
 1193 0 l 1,32,-1
 120 0 l 1,0,-1
EndSplineSet
Validated: 1
EndChar

StartChar: three
Encoding: 51 51 22
Width: 1320
GlyphClass: 2
Flags: W
HStem: -20 120<379.897 744.712> 910 124<784 966.117> 1410 120<809.975 1062.89>
VStem: 1075 228<461.283 828.527> 1090 191<1157.92 1377.14>
LayerCount: 2
Fore
SplineSet
533 -20 m 0,0,1
 225 -20 225 -20 64 206 c 1,2,-1
 239 293 l 1,3,4
 342 100 342 100 557 100 c 0,5,6
 734 100 734 100 885 242 c 0,7,8
 1024 372 1024 372 1063 555 c 0,9,10
 1075 613 1075 613 1075 663 c 0,11,12
 1075 742 1075 742 1045 804 c 0,13,14
 993 910 993 910 846 910 c 0,15,16
 786 910 786 910 757 906 c 1,17,-1
 784 1034 l 1,18,19
 930 1034 930 1034 1007 1110 c 0,20,21
 1067 1169 1067 1169 1085 1255 c 0,22,23
 1090 1276 1090 1276 1090 1294 c 0,24,25
 1090 1340 1090 1340 1061 1371 c 0,26,27
 1026 1410 1026 1410 958 1410 c 0,28,29
 813 1410 813 1410 690 1263 c 1,30,-1
 594 1330 l 1,31,32
 791 1530 791 1530 1011 1530 c 0,33,34
 1153 1530 1153 1530 1227 1448 c 0,35,36
 1281 1388 1281 1388 1281 1304 c 0,37,38
 1281 1284 1281 1284 1278 1263 c 0,39,40
 1251 1077 1251 1077 1027 1004 c 1,41,42
 1184 966 1184 966 1254 858 c 0,43,44
 1303 781 1303 781 1303 678 c 0,45,46
 1303 626 1303 626 1291 568 c 0,47,48
 1238 315 1238 315 1003 140 c 0,49,50
 789 -20 789 -20 533 -20 c 0,0,1
EndSplineSet
Validated: 1
EndChar

StartChar: four
Encoding: 52 52 23
Width: 1279
GlyphClass: 2
Flags: W
HStem: 0 21G<829 1033.25> 293 120<303 891> 1490 20G<844.5 1350>
VStem: 829 200<0 200>
DStem2: 829 0 1029 0 0.207912 0.978148<41.5823 299.488 422.271 1355.65>
LayerCount: 2
Fore
SplineSet
829 0 m 1,0,-1
 891 293 l 1,1,-1
 72 293 l 1,2,3
 539 988 539 988 1150 1510 c 1,4,-1
 1350 1510 l 1,5,-1
 1029 0 l 1,6,-1
 829 0 l 1,0,-1
1111 1326 m 1,7,8
 607 863 607 863 303 413 c 1,9,10
 917 413 l 1,11,-1
 1111 1326 l 1,7,8
EndSplineSet
Validated: 19457
EndChar

StartChar: five
Encoding: 53 53 24
Width: 1380
GlyphClass: 2
Flags: W
HStem: -20 120<439.897 804.278> 910 120<713.714 1055.23> 1390 120<817 1388>
VStem: 1135 228<461.015 828.662>
DStem2: 402 787 669 970 0.349845 0.936808<264.844 710.081>
LayerCount: 2
Fore
SplineSet
593 -20 m 0,0,1
 285 -20 285 -20 124 206 c 1,2,-1
 299 293 l 1,3,4
 402 100 402 100 617 100 c 0,5,6
 794 100 794 100 945 242 c 0,7,8
 1084 372 1084 372 1123 555 c 0,9,10
 1135 613 1135 613 1135 663 c 0,11,12
 1135 742 1135 742 1105 804 c 0,13,14
 1053 910 1053 910 906 910 c 0,15,16
 740 910 740 910 591 787 c 1,17,-1
 402 787 l 1,18,-1
 672 1510 l 1,19,-1
 1414 1510 l 1,20,-1
 1388 1390 l 1,21,-1
 817 1390 l 1,22,-1
 669 970 l 1,23,24
 808 1030 808 1030 952 1030 c 0,25,26
 1203 1030 1203 1030 1314 858 c 0,27,28
 1363 782 1363 782 1363 677 c 0,29,30
 1363 626 1363 626 1351 568 c 0,31,32
 1304 334 1304 334 1062 140 c 0,33,34
 863 -20 863 -20 593 -20 c 0,0,1
EndSplineSet
Validated: 1
EndChar

StartChar: six
Encoding: 54 54 25
Width: 1490
GlyphClass: 2
Flags: W
HStem: -20 120<574.257 927.394> 910 120<835.001 1164.56> 1410 120<1046.76 1502.49>
VStem: 255 214<205.241 571.253> 1256 217<464.001 818.029>
LayerCount: 2
Fore
SplineSet
678 -20 m 0,0,1
 454 -20 454 -20 340 130 c 0,2,3
 255 242 255 242 255 410 c 0,4,5
 255 492 255 492 275 586 c 0,6,7
 351 943 351 943 573 1180 c 0,8,9
 751 1369 751 1369 973 1465 c 0,10,11
 1125 1530 1125 1530 1318 1530 c 0,12,13
 1461 1530 1461 1530 1577 1475 c 1,14,-1
 1465 1358 l 1,15,16
 1394 1410 1394 1410 1284 1410 c 0,17,18
 1157 1410 1157 1410 1047 1366 c 0,19,20
 859 1291 859 1291 712 1102 c 0,21,22
 606 966 606 966 543 789 c 1,23,24
 780 1030 780 1030 1072 1030 c 0,25,26
 1291 1030 1291 1030 1402 891 c 0,27,28
 1473 802 1473 802 1473 676 c 0,29,30
 1473 623 1473 623 1460 563 c 0,31,32
 1419 372 1419 372 1257 216 c 0,33,34
 1012 -20 1012 -20 678 -20 c 0,0,1
731 100 m 0,35,36
 925 100 925 100 1073 248 c 0,37,38
 1207 383 1207 383 1244 560 c 0,39,40
 1256 614 1256 614 1256 661 c 0,41,42
 1256 748 1256 748 1216 812 c 0,43,44
 1154 910 1154 910 1010 910 c 0,45,46
 838 910 838 910 692 794 c 0,47,48
 521 658 521 658 481 469 c 0,49,50
 469 411 469 411 469 362 c 0,51,52
 469 268 469 268 514 205 c 256,53,54
 587 100 587 100 731 100 c 0,35,36
EndSplineSet
Validated: 1
EndChar

StartChar: seven
Encoding: 55 55 26
Width: 1042
GlyphClass: 2
Flags: W
HStem: 0 21G<100 755> 1390 120<371 1088>
VStem: 100 258<0 258>
LayerCount: 2
Fore
SplineSet
100 0 m 1,0,1
 956 764 956 764 1088 1390 c 1,2,-1
 345 1390 l 1,3,-1
 371 1510 l 1,4,-1
 1313 1510 l 1,5,6
 1152 742 1152 742 358 0 c 1,7,-1
 100 0 l 1,0,1
EndSplineSet
Validated: 19457
EndChar

StartChar: eight
Encoding: 56 56 27
Width: 1445
GlyphClass: 2
Flags: W
HStem: -20 120<535.546 882.454> 910 124<811.104 1061.06> 1415 115<904.766 1156.21>
VStem: 232 217<189.875 550.502> 599 183<1066.82 1290.44> 1184 182<1159.28 1382.41> 1211 217<461.378 819.047>
LayerCount: 2
Fore
SplineSet
924 1034 m 0,0,1
 1024 1034 1024 1034 1101 1110 c 0,2,3
 1161 1169 1161 1169 1179 1255 c 0,4,5
 1184 1278 1184 1278 1184 1298 c 0,6,7
 1184 1345 1184 1345 1156 1376 c 0,8,9
 1121 1415 1121 1415 1043 1415 c 0,10,11
 943 1415 943 1415 866 1339 c 0,12,13
 806 1280 806 1280 787 1189 c 0,14,15
 782 1168 782 1168 782 1149 c 0,16,17
 782 1103 782 1103 810 1073 c 0,18,19
 845 1034 845 1034 924 1034 c 0,0,1
633 -20 m 0,20,21
 414 -20 414 -20 302 119 c 0,22,23
 232 206 232 206 232 333 c 0,24,25
 232 387 232 387 245 447 c 0,26,27
 287 649 287 649 444 797 c 0,28,29
 568 913 568 913 729 978 c 1,30,31
 599 1029 599 1029 599 1148 c 0,32,33
 599 1164 599 1164 601 1181 c 0,34,35
 618 1310 618 1310 763 1422 c 0,36,37
 904 1530 904 1530 1095 1530 c 0,38,39
 1236 1530 1236 1530 1312 1449 c 0,40,41
 1366 1391 1366 1391 1366 1311 c 0,42,43
 1366 1288 1366 1288 1362 1263 c 0,44,45
 1333 1100 1333 1100 1142 1018 c 1,46,47
 1282 984 1282 984 1357 891 c 0,48,49
 1428 802 1428 802 1428 676 c 0,50,51
 1428 623 1428 623 1415 563 c 0,52,53
 1374 366 1374 366 1217 212 c 0,54,55
 984 -20 984 -20 633 -20 c 0,20,21
690 100 m 0,56,57
 880 100 880 100 1028 248 c 0,58,59
 1162 383 1162 383 1199 560 c 0,60,61
 1211 615 1211 615 1211 663 c 0,62,63
 1210 749 1210 749 1172 812 c 0,64,65
 1112 910 1112 910 969 910 c 0,66,67
 779 910 779 910 632 762 c 0,68,69
 498 627 498 627 461 450 c 0,70,71
 449 395 449 395 449 347 c 0,72,73
 449 261 449 261 487 198 c 0,74,75
 546 100 546 100 690 100 c 0,56,57
EndSplineSet
Validated: 1
EndChar

StartChar: nine
Encoding: 57 57 28
Width: 1490
GlyphClass: 2
Flags: W
HStem: -20 120<308.515 764.238> 480 120<646.436 975.999> 1410 120<883.606 1236.74>
VStem: 338 217<691.971 1046> 1342 214<938.747 1304.76>
LayerCount: 2
Fore
SplineSet
493 -20 m 0,0,1
 350 -20 350 -20 234 35 c 1,2,-1
 346 152 l 1,3,4
 417 100 417 100 527 100 c 0,5,6
 654 100 654 100 764 144 c 0,7,8
 952 219 952 219 1099 408 c 0,9,10
 1205 544 1205 544 1268 721 c 1,11,12
 1031 480 1031 480 739 480 c 0,13,14
 520 480 520 480 409 619 c 0,15,16
 338 708 338 708 338 834 c 0,17,18
 338 887 338 887 351 947 c 0,19,20
 392 1138 392 1138 554 1294 c 0,21,22
 799 1530 799 1530 1133 1530 c 0,23,24
 1357 1530 1357 1530 1471 1380 c 0,25,26
 1556 1268 1556 1268 1556 1100 c 0,27,28
 1556 1018 1556 1018 1536 924 c 0,29,30
 1460 567 1460 567 1238 330 c 0,31,32
 1060 141 1060 141 838 45 c 0,33,34
 686 -20 686 -20 493 -20 c 0,0,1
1080 1410 m 0,35,36
 886 1410 886 1410 738 1262 c 0,37,38
 604 1127 604 1127 567 950 c 0,39,40
 555 896 555 896 555 849 c 0,41,42
 555 762 555 762 595 698 c 0,43,44
 657 600 657 600 801 600 c 0,45,46
 973 600 973 600 1119 716 c 0,47,48
 1290 852 1290 852 1330 1041 c 0,49,50
 1342 1099 1342 1099 1342 1148 c 0,51,52
 1342 1242 1342 1242 1297 1305 c 256,53,54
 1224 1410 1224 1410 1080 1410 c 0,35,36
EndSplineSet
Validated: 1
EndChar

StartChar: colon
Encoding: 58 58 29
Width: 352
GlyphClass: 2
Flags: W
HStem: -20 255<122.032 277.139> 627 255<259.032 414.317>
VStem: 70 258<30.585 182.984> 207 259<678.438 829.984>
LayerCount: 2
Fore
SplineSet
172 -20 m 0,0,1
 119 -20 119 -20 91 18 c 0,2,3
 70 46 70 46 70 81 c 0,4,5
 70 94 70 94 73 108 c 0,6,7
 83 157 83 157 129 197 c 24,8,9
 172 235 172 235 226 235 c 0,10,11
 278 235 278 235 307 198 c 0,12,13
 328 170 328 170 328 136 c 0,14,15
 328 123 328 123 325 108 c 0,16,17
 314 55 314 55 269 17 c 24,18,19
 223 -20 223 -20 172 -20 c 0,0,1
363 882 m 0,20,21
 415 882 415 882 445 845 c 0,22,23
 466 818 466 818 466 784 c 0,24,25
 466 766 466 766 463 754 c 0,26,27
 452 701 452 701 406 664 c 128,-1,28
 360 627 360 627 309 627 c 0,29,30
 256 627 256 627 228 665 c 0,31,32
 207 693 207 693 207 728 c 0,33,34
 207 741 207 741 210 755 c 0,35,36
 220 804 220 804 266 844 c 24,37,38
 309 882 309 882 363 882 c 0,20,21
EndSplineSet
Validated: 1
EndChar

StartChar: semicolon
Encoding: 59 59 30
Width: 352
GlyphClass: 2
Flags: W
HStem: 627 255<259.032 414.147>
VStem: 158 145<-112.359 79.7949> 207 259<678.51 829.984>
LayerCount: 2
Fore
SplineSet
176 215 m 1,0,1
 303 148 303 148 303 31 c 0,2,3
 303 5 303 5 297 -22 c 0,4,5
 262 -188 262 -188 72 -270 c 1,6,-1
 8 -182 l 1,7,8
 133 -132 133 -132 155 -32 c 0,9,10
 158 -16 158 -16 158 -2 c 0,11,12
 158 73 158 73 65 108 c 1,13,-1
 176 215 l 1,0,1
363 882 m 0,14,15
 415 882 415 882 445 845 c 0,16,17
 466 818 466 818 466 784 c 0,18,19
 466 770 466 770 463 755 c 0,20,21
 451 701 451 701 406 664 c 0,22,23
 360 627 360 627 309 627 c 0,24,25
 256 627 256 627 228 665 c 0,26,27
 207 693 207 693 207 728 c 0,28,29
 207 741 207 741 210 755 c 0,30,31
 220 804 220 804 266 844 c 24,32,33
 309 882 309 882 363 882 c 0,14,15
EndSplineSet
Validated: 1
EndChar

StartChar: less
Encoding: 60 60 31
Width: 1206
GlyphClass: 2
Flags: W
DStem2: 442 782 295 680 0.870478 -0.492207<0 747.7> 326 830 442 782 0.910695 0.413079<85.8128 972.841>
LayerCount: 2
Fore
SplineSet
326 830 m 1,0,-1
 1274 1260 l 1,1,-1
 1250 1148 l 1,2,-1
 442 782 l 1,3,-1
 1094 416 l 1,4,-1
 1059 248 l 1,5,-1
 295 680 l 1,6,-1
 326 830 l 1,0,-1
EndSplineSet
Validated: 1
EndChar

StartChar: equal
Encoding: 61 61 32
Width: 1180
GlyphClass: 2
Flags: W
HStem: 505 150<289 1137> 855 150<364 1212>
LayerCount: 2
Fore
SplineSet
364 1005 m 1,0,-1
 1244 1005 l 1,1,-1
 1212 855 l 1,2,-1
 332 855 l 1,3,-1
 364 1005 l 1,0,-1
289 655 m 1,4,-1
 1169 655 l 1,5,-1
 1137 505 l 1,6,-1
 257 505 l 1,7,-1
 289 655 l 1,4,-1
EndSplineSet
Validated: 1
EndChar

StartChar: greater
Encoding: 62 62 33
Width: 1206
GlyphClass: 2
Flags: W
DStem2: 277 360 253 248 0.910531 0.413441<0 886.118> 468 1260 432 1092 0.870478 -0.492207<51.3536 799.053>
LayerCount: 2
Fore
SplineSet
1200 678 m 1,0,-1
 253 248 l 1,1,-1
 277 360 l 1,2,-1
 1084 726 l 1,3,-1
 432 1092 l 1,4,-1
 468 1260 l 1,5,-1
 1232 828 l 1,6,-1
 1200 678 l 1,0,-1
EndSplineSet
Validated: 1
EndChar

StartChar: question
Encoding: 63 63 34
Width: 1344
GlyphClass: 2
Flags: W
HStem: -20 255<573.032 728.139> 1105 21G<469.5 531> 1410 120<793.514 1116.71>
VStem: 521 258<30.585 182.984> 1206 226<967.084 1318.03>
LayerCount: 2
Fore
SplineSet
623 -20 m 0,0,1
 570 -20 570 -20 542 18 c 0,2,3
 521 46 521 46 521 81 c 0,4,5
 521 94 521 94 524 108 c 0,6,7
 534 157 534 157 580 197 c 24,8,9
 623 235 623 235 677 235 c 0,10,11
 729 235 729 235 758 198 c 0,12,13
 779 170 779 170 779 136 c 0,14,15
 779 123 779 123 776 108 c 0,16,17
 765 55 765 55 720 17 c 24,18,19
 674 -20 674 -20 623 -20 c 0,0,1
1032 1530 m 0,20,21
 1251 1530 1251 1530 1359 1387 c 0,22,23
 1432 1293 1432 1293 1432 1168 c 0,24,25
 1432 1118 1432 1118 1420 1063 c 0,26,27
 1381 879 1381 879 1200 721 c 2,28,-1
 778 353 l 1,29,-1
 639 353 l 1,30,-1
 993 713 l 2,31,32
 1156 879 1156 879 1194 1060 c 0,33,34
 1206 1114 1206 1114 1206 1161 c 0,35,36
 1206 1248 1206 1248 1166 1312 c 0,37,38
 1105 1410 1105 1410 961 1410 c 0,39,40
 796 1410 796 1410 652 1294 c 0,41,42
 560 1220 560 1220 502 1105 c 1,43,-1
 398 1169 l 1,44,45
 458 1244 458 1244 503 1289 c 24,46,47
 740 1530 740 1530 1032 1530 c 0,20,21
EndSplineSet
Validated: 1
EndChar

StartChar: at
Encoding: 64 64 35
Width: 1696
GlyphClass: 2
Flags: W
HStem: -430 100<579.126 1014.99> -20 100<863.839 1150.54> 0 21G<1316 1500.23> 686 49<1129.37 1348.69> 1006 114<966.651 1367.36>
VStem: 184 192<-118.958 346.219> 616 180<150.824 447.667> 1461 176<481.621 913.779>
DStem2: 1224.6 -430 1404.6 -430 0.207912 0.978148<477.031 614.355 740.269 1203.81>
LayerCount: 2
Fore
SplineSet
1496 0 m 1,0,-1
 1316 0 l 1,1,-1
 1352 171 l 1,2,3
 1270 86 1270 86 1179 34 c 0,4,5
 1087 -20 1087 -20 956 -20 c 0,6,7
 780 -20 780 -20 690 75 c 0,8,9
 616 154 616 154 616 268 c 0,10,11
 616 309 616 309 625 353 c 0,12,13
 663 531 663 531 838 640 c 0,14,15
 990 735 990 735 1168 735 c 0,16,17
 1302 735 1302 735 1389 696 c 1,18,-1
 1387 686 l 1,19,20
 1270 686 1270 686 1175 671 c 0,21,22
 1032 649 1032 649 933 564 c 0,23,24
 830 476 830 476 803 346 c 0,25,26
 796 313 796 313 796 283 c 0,27,28
 796 214 796 214 833 159 c 0,29,30
 887 80 887 80 1003 80 c 0,31,32
 1133 80 1133 80 1271 222 c 0,33,34
 1391 346 1391 346 1436 556 c 0,35,36
 1461 672 1461 672 1461 753 c 0,37,38
 1461 803 1461 803 1451 840 c 256,39,40
 1406 1006 1406 1006 1201 1006 c 0,41,42
 935 1006 935 1006 707 810 c 0,43,44
 464 601 464 601 398 294 c 0,45,46
 376 188 376 188 376 98 c 0,47,48
 376 -59 376 -59 445 -164 c 0,49,50
 556 -330 556 -330 773 -330 c 0,51,52
 1006 -330 1006 -330 1206 -181 c 1,53,-1
 1274 -253 l 1,54,55
 1030 -430 1030 -430 747 -430 c 0,56,57
 428 -430 428 -430 277 -233 c 0,58,59
 184 -110 184 -110 184 72 c 0,60,61
 184 159 184 159 205 260 c 0,62,63
 286 640 286 640 641 904 c 0,64,65
 932 1120 932 1120 1244 1120 c 0,66,67
 1491 1120 1491 1120 1591 946 c 0,68,69
 1637 867 1637 867 1637 747 c 0,70,71
 1637 664 1637 664 1615 562 c 2,72,-1
 1496 0 l 1,0,-1
EndSplineSet
Validated: 1
EndChar

StartChar: A
Encoding: 65 65 36
Width: 1537
GlyphClass: 2
Flags: W
HStem: 0 21G<5 163.902 1323.63 1532> 696 120<677 1149> 1490 20G<967.086 1203.41>
VStem: 5 146<0 146> 1328 204<0 204>
DStem2: 5 0 151 0 0.542444 0.840092<79.1968 907.458 1050.04 1699.67> 1199 1510 1029 1362 0.215355 -0.976536<107.917 666.948 789.947 1502.35>
LayerCount: 2
Fore
SplineSet
5 0 m 1,0,-1
 980 1510 l 1,1,-1
 1199 1510 l 1,2,-1
 1532 0 l 1,3,-1
 1328 0 l 1,4,-1
 1176 696 l 1,5,-1
 600 696 l 1,6,-1
 151 0 l 1,7,-1
 5 0 l 1,0,-1
1149 816 m 1,8,-1
 1029 1362 l 1,9,-1
 677 816 l 1,10,-1
 1149 816 l 1,8,-1
EndSplineSet
Validated: 1
EndChar

StartChar: B
Encoding: 66 66 37
Width: 1499
GlyphClass: 2
Flags: W
HStem: -20 87<576.635 974.232> 0 21G<200 404.261> 1396 134<998.408 1280.73> 1490 20G<516.748 721>
VStem: 200 200<0 200> 521 200<1310 1510> 1298 215<387.636 690.312> 1331 190<1082.63 1347.14>
DStem2: 195.749 -20 395.749 -20 0.207912 0.978148<62.0292 1193.17 1305.1 1564.19>
LayerCount: 2
Fore
SplineSet
200 0 m 1,0,-1
 521 1510 l 1,1,-1
 721 1510 l 1,2,-1
 658 1216 l 1,3,4
 760 1353 760 1353 908 1441.5 c 128,-1,5
 1056 1530 1056 1530 1223 1530 c 0,6,7
 1295 1530 1295 1530 1350 1506 c 0,8,9
 1428 1473 1428 1473 1472 1409 c 0,10,11
 1521 1338 1521 1338 1521 1256 c 0,12,13
 1521 1230 1521 1230 1517 1202 c 0,14,15
 1488 976 1488 976 1184 848 c 1,16,17
 1350 848 1350 848 1438 760 c 0,18,19
 1513 685 1513 685 1513 574 c 0,20,21
 1513 536 1513 536 1504 494 c 0,22,23
 1470 327 1470 327 1327 190 c 0,24,25
 1109 -20 1109 -20 761 -20 c 0,26,27
 554 -20 554 -20 491 119 c 1,28,-1
 501 127 l 1,29,30
 596 67 596 67 740 67 c 0,31,32
 968 67 968 67 1122 200 c 0,33,34
 1253 314 1253 314 1288 473 c 0,35,36
 1298 518 1298 518 1298 557 c 0,37,38
 1298 643 1298 643 1250 695 c 0,39,40
 1184 768 1184 768 1027 768 c 0,41,42
 911 768 911 768 800 755 c 1,43,-1
 803 765 l 1,44,45
 952 808 952 808 1077 880 c 0,46,47
 1288 1001 1288 1001 1325 1178 c 0,48,49
 1331 1206 1331 1206 1331 1231 c 0,50,51
 1331 1288 1331 1288 1301 1330 c 0,52,53
 1254 1396 1254 1396 1132 1396 c 0,54,55
 958 1396 958 1396 805 1251 c 0,56,57
 631 1086 631 1086 586 873 c 2,58,-1
 400 0 l 1,59,-1
 200 0 l 1,0,-1
EndSplineSet
Validated: 1
EndChar

StartChar: C
Encoding: 67 67 38
Width: 1569
GlyphClass: 2
Flags: W
HStem: -20 120<629.414 1081.38> 1410 120<999.615 1450.59>
VStem: 224 219<285.747 761.132>
LayerCount: 2
Fore
SplineSet
784 -20 m 0,0,1
 471 -20 471 -20 319 190 c 0,2,3
 224 321 224 321 224 502 c 0,4,5
 224 571 224 571 238 648 c 0,6,7
 313 1059 313 1059 657 1311 c 0,8,9
 956 1530 956 1530 1296 1530 c 0,10,11
 1609 1530 1609 1530 1761 1320 c 1,12,-1
 1586 1236 l 1,13,14
 1487 1410 1487 1410 1241 1410 c 0,15,16
 980 1410 980 1410 782 1230 c 0,17,18
 531 1001 531 1001 463 671 c 0,19,20
 443 575 443 575 443 494 c 0,21,22
 443 365 443 365 494 274 c 0,23,24
 593 100 593 100 839 100 c 0,25,26
 1103 100 1103 100 1298 280 c 0,27,28
 1375 351 1375 351 1436 431 c 1,29,-1
 1566 322 l 1,30,31
 1502 257 1502 257 1423 199 c 0,32,33
 1125 -20 1125 -20 784 -20 c 0,0,1
EndSplineSet
Validated: 1
EndChar

StartChar: D
Encoding: 68 68 39
Width: 1736
GlyphClass: 2
Flags: W
HStem: -20 87<576.635 987.453> 0 21G<200 404.261> 1410 120<1024.76 1426.96> 1490 20G<516.748 721>
VStem: 200 200<0 200> 521 200<1310 1510> 1615 217<750.318 1220.48>
DStem2: 195.749 -20 395.749 -20 0.207912 0.978148<62.0292 1190.94 1305.1 1564.19>
LayerCount: 2
Fore
SplineSet
200 0 m 1,0,-1
 521 1510 l 1,1,-1
 721 1510 l 1,2,-1
 658 1216 l 1,3,4
 774 1359 774 1359 927 1442 c 0,5,6
 1087 1530 1087 1530 1273 1530 c 0,7,8
 1586 1530 1586 1530 1738 1320 c 0,9,10
 1832 1189 1832 1189 1832 1007 c 0,11,12
 1832 938 1832 938 1819 862 c 0,13,14
 1750 469 1750 469 1400 199 c 0,15,16
 1116 -20 1116 -20 761 -20 c 0,17,18
 554 -20 554 -20 491 119 c 1,19,-1
 501 127 l 1,20,21
 596 67 596 67 740 67 c 0,22,23
 1037 67 1037 67 1275 280 c 0,24,25
 1523 503 1523 503 1594 839 c 0,26,27
 1615 936 1615 936 1615 1017 c 0,28,29
 1615 1146 1615 1146 1563 1236 c 0,30,31
 1464 1410 1464 1410 1213 1410 c 0,32,33
 999 1410 999 1410 815 1251 c 0,34,35
 633 1093 633 1093 586 873 c 2,36,-1
 400 0 l 1,37,-1
 200 0 l 1,0,-1
EndSplineSet
Validated: 1
EndChar

StartChar: E
Encoding: 69 69 40
Width: 1569
GlyphClass: 2
Flags: W
HStem: -20 120<629.164 1081.13> 696 120<503 1263> 1410 120<999.615 1450.59>
VStem: 224 219<285.747 689.205>
LayerCount: 2
Fore
SplineSet
784 -20 m 0,0,1
 471 -20 471 -20 319 190 c 0,2,3
 224 321 224 321 224 502 c 0,4,5
 224 571 224 571 238 648 c 0,6,7
 313 1059 313 1059 657 1311 c 0,8,9
 956 1530 956 1530 1296 1530 c 0,10,11
 1609 1530 1609 1530 1761 1320 c 1,12,-1
 1586 1236 l 1,13,14
 1487 1410 1487 1410 1241 1410 c 0,15,16
 980 1410 980 1410 782 1230 c 0,17,18
 588 1053 588 1053 503 816 c 1,19,-1
 1288 816 l 1,20,-1
 1263 696 l 1,21,-1
 468 696 l 1,22,23
 443 575 443 575 443 494 c 0,24,25
 443 365 443 365 494 274 c 0,26,27
 592 100 592 100 839 100 c 0,28,29
 1103 100 1103 100 1298 280 c 0,30,31
 1375 351 1375 351 1436 431 c 1,32,-1
 1566 322 l 1,33,34
 1502 257 1502 257 1423 199 c 0,35,36
 1124 -20 1124 -20 784 -20 c 0,0,1
EndSplineSet
Validated: 1
EndChar

StartChar: F
Encoding: 70 70 41
Width: 1338
GlyphClass: 2
Flags: W
HStem: 0 21G<200 404.253> 696 120<573 1118> 1396 134<1021.83 1343.64> 1490 20G<516.748 721>
VStem: 200 200<0 200> 521 200<1310 1510>
DStem2: 200 0 400 0 0.207912 0.978148<41.5823 753.144 875.72 1165.88 1284.65 1543.74>
LayerCount: 2
Fore
SplineSet
200 0 m 1,0,-1
 521 1510 l 1,1,-1
 721 1510 l 1,2,-1
 658 1216 l 1,3,4
 772 1357 772 1357 927 1442 c 0,5,6
 1087 1530 1087 1530 1253 1530 c 0,7,8
 1458 1530 1458 1530 1557 1401 c 0,9,10
 1587 1362 1587 1362 1602 1315 c 1,11,-1
 1414 1217 l 1,12,13
 1408 1271 1408 1271 1382 1310 c 0,14,15
 1326 1396 1326 1396 1188 1396 c 0,16,17
 982 1396 982 1396 815 1251 c 0,18,19
 637 1096 637 1096 586 873 c 2,20,-1
 573 816 l 1,21,-1
 1143 816 l 1,22,-1
 1118 696 l 1,23,-1
 548 696 l 1,24,-1
 400 0 l 1,25,-1
 200 0 l 1,0,-1
EndSplineSet
Validated: 1
EndChar

StartChar: G
Encoding: 71 71 42
Width: 1759
GlyphClass: 2
Flags: W
HStem: -20 120<629.414 1080.38> 696 120<1188 1577> 1410 120<999.615 1450.59>
VStem: 224 219<285.747 760.891>
LayerCount: 2
Fore
SplineSet
784 -20 m 0,0,1
 471 -20 471 -20 319 190 c 0,2,3
 224 321 224 321 224 502 c 0,4,5
 224 571 224 571 238 648 c 0,6,7
 310 1057 310 1057 657 1311 c 0,8,9
 956 1530 956 1530 1296 1530 c 0,10,11
 1609 1530 1609 1530 1761 1320 c 1,12,-1
 1586 1236 l 1,13,14
 1487 1410 1487 1410 1241 1410 c 0,15,16
 980 1410 980 1410 782 1230 c 0,17,18
 531 1001 531 1001 463 671 c 0,19,20
 443 575 443 575 443 494 c 0,21,22
 443 365 443 365 494 274 c 0,23,24
 593 100 593 100 839 100 c 0,25,26
 1100 100 1100 100 1298 280 c 0,27,28
 1491 456 1491 456 1577 696 c 1,29,-1
 1163 696 l 1,30,-1
 1188 816 l 1,31,-1
 1832 816 l 1,32,33
 1754 441 1754 441 1423 199 c 24,34,35
 1124 -20 1124 -20 784 -20 c 0,0,1
EndSplineSet
Validated: 1
EndChar

StartChar: H
Encoding: 72 72 43
Width: 1572
GlyphClass: 2
Flags: W
HStem: 0 21G<200 404.253 1172 1376.25> 696 120<573 1320> 1490 20G<516.748 721 1488.73 1693>
VStem: 200 200<0 200> 521 200<1310 1510> 1172 200<0 200> 1493 200<1310 1510>
DStem2: 200 0 400 0 0.207912 0.978148<41.5823 753.144 875.72 1543.74> 1172 0 1372 0 0.207912 0.978148<41.5823 711.562 834.137 1543.74>
LayerCount: 2
Fore
SplineSet
200 0 m 1,0,-1
 521 1510 l 1,1,-1
 721 1510 l 1,2,-1
 573 816 l 1,3,-1
 1345 816 l 1,4,-1
 1493 1510 l 1,5,-1
 1693 1510 l 1,6,-1
 1372 0 l 1,7,-1
 1172 0 l 1,8,-1
 1320 696 l 1,9,-1
 548 696 l 1,10,-1
 400 0 l 1,11,-1
 200 0 l 1,0,-1
EndSplineSet
Validated: 1
EndChar

StartChar: I
Encoding: 73 73 44
Width: 600
GlyphClass: 2
Flags: W
HStem: 0 21G<200 404.252> 1490 20G<516.748 721>
VStem: 200 200<0 200> 521 200<1310 1510>
DStem2: 200 0 400 0 0.207912 0.978148<41.5823 1543.74>
LayerCount: 2
Fore
SplineSet
200 0 m 1,0,-1
 521 1510 l 1,1,-1
 721 1510 l 1,2,-1
 400 0 l 1,3,-1
 200 0 l 1,0,-1
EndSplineSet
Validated: 1
EndChar

StartChar: J
Encoding: 74 74 45
Width: 1220
GlyphClass: 2
Flags: W
HStem: -20 105<272.528 647.833> 1390 120<572 1115>
DStem2: 815.582 -20 1016.12 -20 0.207912 0.978148<355.205 1441.44>
LayerCount: 2
Fore
SplineSet
430 -20 m 0,0,1
 183 -20 183 -20 45 119 c 1,2,-1
 178 235 l 1,3,4
 262 85 262 85 433 85 c 0,5,6
 623 85 623 85 755 200 c 128,-1,7
 887 315 887 315 931 523 c 2,8,-1
 1115 1390 l 1,9,-1
 546 1390 l 1,10,-1
 572 1510 l 1,11,-1
 1341 1510 l 1,12,-1
 1136 544 l 2,13,14
 1087 313 1087 313 934 172 c 0,15,16
 726 -20 726 -20 430 -20 c 0,0,1
EndSplineSet
Validated: 1
EndChar

StartChar: K
Encoding: 75 75 46
Width: 1496
GlyphClass: 2
Flags: W
HStem: 0 21G<200 404.261 1106.73 1396> 352 120<500 751.44> 1490 20G<516.748 721 1395.5 1617>
VStem: 200 200<0 200> 521 200<1310 1510> 1126 270<0 270> 1417 200<1310 1510>
DStem2: 200 0 400 0 0.207912 0.978148<41.5823 411.075 524.059 1543.74> 941 463 756 384 0.700918 -0.713242<0 459.901>
LayerCount: 2
Fore
SplineSet
200 0 m 1,0,-1
 521 1510 l 1,1,-1
 721 1510 l 1,2,-1
 500 472 l 1,3,4
 639 472 639 472 783 522 c 0,5,6
 1015 603 1015 603 1167 805 c 0,7,8
 1263 933 1263 933 1317 1114 c 0,9,10
 1374 1307 1374 1307 1417 1510 c 1,11,-1
 1617 1510 l 1,12,13
 1566 1271 1566 1271 1526 1152 c 0,14,15
 1445 916 1445 916 1360 804 c 0,16,17
 1201 594 1201 594 941 463 c 1,18,-1
 1396 0 l 1,19,-1
 1126 0 l 1,20,-1
 756 384 l 1,21,22
 610 352 610 352 475 352 c 1,23,-1
 400 0 l 1,24,-1
 200 0 l 1,0,-1
EndSplineSet
Validated: 1
EndChar

StartChar: L
Encoding: 76 76 47
Width: 1048
GlyphClass: 2
Flags: W
HStem: 0 120<426 1028> 1490 20G<516.748 721>
VStem: 521 200<1310 1510>
DStem2: 200 0 400.493 0 0.207912 0.978148<164.366 1543.74>
LayerCount: 2
Fore
SplineSet
200 0 m 1,0,-1
 521 1510 l 1,1,-1
 721 1510 l 1,2,-1
 426 120 l 1,3,-1
 1054 120 l 1,4,-1
 1028 0 l 1,5,-1
 200 0 l 1,0,-1
EndSplineSet
Validated: 1
EndChar

StartChar: M
Encoding: 77 77 48
Width: 2472
GlyphClass: 2
Flags: W
HStem: 0 21G<200 404.261 1141 1345.26 2082 2286.25> 1396 134<1008.46 1314.28 1949.46 2255.57> 1490 20G<516.748 721>
VStem: 200 200<0 200> 521 200<1310 1510> 1141 200<0 200> 1384 191<1221 1327.78> 2082 200<0 200> 2326 202<1035.9 1325.37>
DStem2: 200 0 400 0 0.207912 0.978148<41.5823 1181.32 1284.65 1543.74> 1141 0 1341 0 0.207912 0.978148<41.5823 1181.32> 2082 0 2282 0 0.207912 0.978148<41.5823 1211.51>
LayerCount: 2
Fore
SplineSet
200 0 m 1,0,-1
 521 1510 l 1,1,-1
 721 1510 l 1,2,-1
 658 1216 l 1,3,4
 776 1361 776 1361 917 1442 c 0,5,6
 1071 1530 1071 1530 1233 1530 c 0,7,8
 1440 1530 1440 1530 1527 1398 c 0,9,10
 1575 1326 1575 1326 1575 1221 c 1,11,12
 1682 1342 1682 1342 1858 1442 c 0,13,14
 2012 1530 2012 1530 2174 1530 c 0,15,16
 2372 1530 2372 1530 2468 1398 c 0,17,18
 2528 1315 2528 1315 2528 1204 c 0,19,20
 2528 1155 2528 1155 2516 1100 c 2,21,-1
 2282 0 l 1,22,-1
 2082 0 l 1,23,-1
 2315 1098 l 2,24,25
 2326 1147 2326 1147 2326 1188 c 0,26,27
 2326 1261 2326 1261 2293 1310 c 0,28,29
 2236 1396 2236 1396 2109 1396 c 0,30,31
 1913 1396 1913 1396 1746 1251 c 0,32,33
 1576 1103 1576 1103 1527 873 c 2,34,-1
 1341 0 l 1,35,-1
 1141 0 l 1,36,-1
 1374 1098 l 2,37,38
 1384 1145 1384 1145 1384 1186 c 0,39,40
 1384 1258 1384 1258 1352 1310 c 0,41,42
 1300 1396 1300 1396 1168 1396 c 0,43,44
 972 1396 972 1396 805 1251 c 0,45,46
 635 1103 635 1103 586 873 c 2,47,-1
 400 0 l 1,48,-1
 200 0 l 1,0,-1
EndSplineSet
Validated: 1
EndChar

StartChar: N
Encoding: 78 78 49
Width: 1571
GlyphClass: 2
Flags: W
HStem: 0 21G<200 404.261 1171 1375.25> 1396 134<1021.62 1340.15> 1490 20G<516.748 721>
VStem: 200 200<0 200> 521 200<1310 1510> 1171 200<0 200> 1415 202<1035.9 1322.91>
DStem2: 200 0 400 0 0.207912 0.978148<41.5823 1169.9 1284.65 1543.74> 1171 0 1371 0 0.207912 0.978148<41.5823 1214.42>
LayerCount: 2
Fore
SplineSet
200 0 m 1,0,-1
 521 1510 l 1,1,-1
 721 1510 l 1,2,-1
 658 1216 l 1,3,4
 775 1359 775 1359 927 1442 c 0,5,6
 1086 1530 1086 1530 1253 1530 c 0,7,8
 1460 1530 1460 1530 1557 1401 c 0,9,10
 1617 1323 1617 1323 1617 1209 c 0,11,12
 1617 1158 1617 1158 1605 1100 c 2,13,-1
 1371 0 l 1,14,-1
 1171 0 l 1,15,-1
 1404 1098 l 2,16,17
 1415 1149 1415 1149 1415 1191 c 0,18,19
 1415 1264 1415 1264 1382 1310 c 0,20,21
 1321 1396 1321 1396 1188 1396 c 0,22,23
 982 1396 982 1396 815 1251 c 0,24,25
 632 1092 632 1092 586 873 c 2,26,-1
 400 0 l 1,27,-1
 200 0 l 1,0,-1
EndSplineSet
Validated: 1
EndChar

StartChar: O
Encoding: 79 79 50
Width: 1759
GlyphClass: 2
Flags: W
HStem: -20 120<629.414 1080.38> 1410 120<999.615 1450.59>
VStem: 224 219<285.747 760.891> 1637 218<749.109 1224.19>
LayerCount: 2
Fore
SplineSet
784 -20 m 0,0,1
 471 -20 471 -20 319 190 c 0,2,3
 224 321 224 321 224 502 c 0,4,5
 224 571 224 571 238 648 c 0,6,7
 310 1057 310 1057 657 1311 c 0,8,9
 956 1530 956 1530 1296 1530 c 0,10,11
 1609 1530 1609 1530 1761 1320 c 0,12,13
 1855 1189 1855 1189 1855 1007 c 0,14,15
 1855 938 1855 938 1842 862 c 0,16,17
 1770 453 1770 453 1423 199 c 0,18,19
 1124 -20 1124 -20 784 -20 c 0,0,1
839 100 m 0,20,21
 1100 100 1100 100 1298 280 c 0,22,23
 1549 509 1549 509 1617 839 c 0,24,25
 1637 935 1637 935 1637 1016 c 0,26,27
 1637 1145 1637 1145 1586 1236 c 0,28,29
 1487 1410 1487 1410 1241 1410 c 0,30,31
 980 1410 980 1410 782 1230 c 0,32,33
 531 1001 531 1001 463 671 c 0,34,35
 443 575 443 575 443 494 c 0,36,37
 443 365 443 365 494 274 c 0,38,39
 593 100 593 100 839 100 c 0,20,21
EndSplineSet
Validated: 1
EndChar

StartChar: P
Encoding: 80 80 51
Width: 1535
GlyphClass: 2
Flags: W
HStem: 0 21G<200 404.261> 360 87<662.86 1044.29> 1396 134<1009.84 1342.98> 1490 20G<516.748 721>
VStem: 200 200<0 200> 521 200<1310 1510> 1442 221<904.797 1294.02>
DStem2: 200 0 400 0 0.207912 0.978148<41.5823 1181.32 1284.65 1543.74>
LayerCount: 2
Fore
SplineSet
200 0 m 1,0,-1
 521 1510 l 1,1,-1
 721 1510 l 1,2,-1
 658 1216 l 1,3,4
 776 1361 776 1361 917 1442 c 0,5,6
 1071 1530 1071 1530 1249 1530 c 0,7,8
 1463 1530 1463 1530 1574 1394 c 0,9,10
 1663 1285 1663 1285 1663 1131 c 0,11,12
 1663 1083 1663 1083 1654 1032 c 0,13,14
 1594 700 1594 700 1297 499 c 0,15,16
 1091 360 1091 360 862 360 c 0,17,18
 635 360 635 360 572 499 c 1,19,-1
 582 507 l 1,20,21
 677 447 677 447 841 447 c 0,22,23
 1037 447 1037 447 1196 588 c 0,24,25
 1374 747 1374 747 1430 1018 c 0,26,27
 1442 1076 1442 1076 1442 1127 c 0,28,29
 1442 1217 1442 1217 1404 1285 c 256,30,31
 1342 1396 1342 1396 1172 1396 c 0,32,33
 972 1396 972 1396 805 1251 c 0,34,35
 635 1103 635 1103 586 873 c 2,36,-1
 400 0 l 1,37,-1
 200 0 l 1,0,-1
EndSplineSet
Validated: 1
EndChar

StartChar: Q
Encoding: 81 81 52
Width: 1759
GlyphClass: 2
Flags: W
HStem: -20 120<629.414 1079.73> 0 21G<1327.83 1611> 1410 120<999.615 1450.59>
VStem: 224 219<285.747 760.891> 1637 218<749.203 1224.19>
LayerCount: 2
Fore
SplineSet
920 387 m 1,0,-1
 1176 387 l 1,1,-1
 1297 279 l 1,2,3
 1549 509 1549 509 1617 839 c 0,4,5
 1637 935 1637 935 1637 1016 c 0,6,7
 1637 1145 1637 1145 1586 1236 c 0,8,9
 1487 1410 1487 1410 1241 1410 c 0,10,11
 980 1410 980 1410 782 1230 c 0,12,13
 531 1001 531 1001 463 671 c 0,14,15
 443 575 443 575 443 494 c 0,16,17
 443 365 443 365 494 274 c 0,18,19
 593 100 593 100 839 100 c 0,20,21
 1010 100 1010 100 1154 177 c 1,22,-1
 920 387 l 1,0,-1
1611 0 m 1,23,-1
 1350 0 l 1,24,-1
 1248 92 l 1,25,26
 1027 -20 1027 -20 784 -20 c 0,27,28
 471 -20 471 -20 319 190 c 0,29,30
 224 321 224 321 224 502 c 0,31,32
 224 571 224 571 238 648 c 0,33,34
 310 1057 310 1057 657 1311 c 0,35,36
 956 1530 956 1530 1296 1530 c 0,37,38
 1609 1530 1609 1530 1761 1320 c 0,39,40
 1855 1189 1855 1189 1855 1007 c 0,41,42
 1855 938 1855 938 1842 862 c 0,43,44
 1770 455 1770 455 1403 185 c 1,45,-1
 1611 0 l 1,23,-1
EndSplineSet
Validated: 1
EndChar

StartChar: R
Encoding: 82 82 53
Width: 1580
GlyphClass: 2
Flags: W
HStem: 0 21G<200 404.261 1158.57 1480> 1396 134<1009.84 1342.98> 1490 20G<516.748 721>
VStem: 200 200<0 200> 521 200<1310 1510> 1183 297<0 297> 1442 221<906.704 1294.02>
DStem2: 200 0 400 0 0.207912 0.978148<41.5823 1181.32 1284.65 1543.74> 1014 375 1183 0 0.773785 -0.633448<0 368.313>
LayerCount: 2
Fore
SplineSet
200 0 m 1,0,-1
 521 1510 l 1,1,-1
 721 1510 l 1,2,-1
 658 1216 l 1,3,4
 776 1361 776 1361 917 1442 c 0,5,6
 1071 1530 1071 1530 1249 1530 c 0,7,8
 1463 1530 1463 1530 1574 1394 c 0,9,10
 1663 1285 1663 1285 1663 1131 c 0,11,12
 1663 1083 1663 1083 1654 1032 c 0,13,14
 1597 712 1597 712 1297 506 c 0,15,16
 1171 419 1171 419 1014 375 c 1,17,-1
 1480 0 l 1,18,-1
 1183 0 l 1,19,-1
 582 492 l 1,20,-1
 592 500 l 1,21,22
 701 447 701 447 841 447 c 0,23,24
 1037 447 1037 447 1196 588 c 0,25,26
 1374 747 1374 747 1430 1018 c 0,27,28
 1442 1076 1442 1076 1442 1127 c 0,29,30
 1442 1217 1442 1217 1404 1285 c 256,31,32
 1342 1396 1342 1396 1172 1396 c 0,33,34
 972 1396 972 1396 805 1251 c 0,35,36
 635 1103 635 1103 586 873 c 2,37,-1
 400 0 l 1,38,-1
 200 0 l 1,0,-1
EndSplineSet
Validated: 1
EndChar

StartChar: S
Encoding: 83 83 54
Width: 1284
GlyphClass: 2
Flags: W
HStem: -20 120<461.872 840.478> 1410 120<849.03 1148.76>
VStem: 522 197<1048.62 1270.89> 1083 211<366.307 625.395>
DStem2: 824 1003 695 829 0.877658 -0.479288<-131.783 420.084>
LayerCount: 2
Fore
SplineSet
613 -20 m 0,0,1
 305 -20 305 -20 144 206 c 1,2,-1
 319 293 l 1,3,4
 422 100 422 100 651 100 c 0,5,6
 845 100 845 100 972 248 c 0,7,8
 1056 347 1056 347 1077 454 c 0,9,10
 1083 485 1083 485 1083 512 c 0,11,12
 1083 617 1083 617 977 675 c 2,13,-1
 695 829 l 2,14,15
 522 923 522 923 522 1102 c 0,16,17
 522 1125 522 1125 525 1149 c 0,18,19
 548 1314 548 1314 723 1433 c 0,20,21
 865 1530 865 1530 1037 1530 c 0,22,23
 1244 1530 1244 1530 1362 1386 c 1,24,-1
 1212 1290 l 1,25,26
 1146 1410 1146 1410 1019 1410 c 0,27,28
 902 1410 902 1410 821 1346 c 0,29,30
 742 1282 742 1282 724 1198 c 0,31,32
 719 1174 719 1174 719 1153 c 0,33,34
 719 1060 719 1060 824 1003 c 2,35,-1
 1087 861 l 2,36,37
 1294 749 1294 749 1294 553 c 0,38,39
 1294 525 1294 525 1289 495 c 0,40,41
 1261 312 1261 312 1095 160 c 0,42,43
 898 -20 898 -20 613 -20 c 0,0,1
EndSplineSet
Validated: 1
EndChar

StartChar: T
Encoding: 84 84 55
Width: 1160
GlyphClass: 2
Flags: W
HStem: 0 21G<480 684.245> 1390 120<341 775 975 1435>
VStem: 480 200<0 200>
DStem2: 480 0 680 0 0.207912 0.978148<41.5823 1420.96>
LayerCount: 2
Fore
SplineSet
480 0 m 1,0,-1
 775 1390 l 1,1,-1
 315 1390 l 1,2,-1
 341 1510 l 1,3,-1
 1461 1510 l 1,4,-1
 1435 1390 l 1,5,-1
 975 1390 l 1,6,-1
 680 0 l 1,7,-1
 480 0 l 1,0,-1
EndSplineSet
Validated: 1
EndChar

StartChar: U
Encoding: 85 85 56
Width: 1571
GlyphClass: 2
Flags: W
HStem: -20 134<551.854 870.38> 0 21G<1171 1375.25> 1490 20G<516.745 721 1487.74 1692>
VStem: 275 202<187.087 474.104> 521 200<1310 1510> 1171 200<0 200> 1492 200<1310 1510>
DStem2: 195.601 -20 396.176 -20 0.207912 0.978148<391.385 1564.22> 1166.75 -20 1366.75 -20 0.207912 0.978148<62.0292 321.121 435.871 1564.19>
LayerCount: 2
Fore
SplineSet
1371 0 m 1,0,-1
 1171 0 l 1,1,-1
 1234 294 l 1,2,3
 1117 151 1117 151 965 68 c 0,4,5
 806 -20 806 -20 639 -20 c 0,6,7
 432 -20 432 -20 335 109 c 0,8,9
 275 187 275 187 275 301 c 0,10,11
 275 352 275 352 287 410 c 2,12,-1
 521 1510 l 1,13,-1
 721 1510 l 1,14,-1
 488 412 l 2,15,16
 477 361 477 361 477 319 c 0,17,18
 477 246 477 246 510 200 c 0,19,20
 571 114 571 114 704 114 c 0,21,22
 910 114 910 114 1077 259 c 0,23,24
 1260 418 1260 418 1306 637 c 2,25,-1
 1492 1510 l 1,26,-1
 1692 1510 l 1,27,-1
 1371 0 l 1,0,-1
EndSplineSet
Validated: 1
EndChar

StartChar: V
Encoding: 86 86 57
Width: 1537
GlyphClass: 2
Flags: W
HStem: 0 21G<654.589 890.914> 1490 20G<326 540.402 1695.09 1853>
VStem: 326 210<1300 1510> 1708 145<1365 1510>
DStem2: 536 1510 326 1510 0.215355 -0.976536<0 1386.41> 834 156 878 0 0.542444 0.840092<0 1611.58>
LayerCount: 2
Fore
SplineSet
659 0 m 1,0,-1
 326 1510 l 1,1,-1
 536 1510 l 1,2,-1
 834 156 l 1,3,-1
 1708 1510 l 1,4,-1
 1853 1510 l 1,5,-1
 878 0 l 1,6,-1
 659 0 l 1,0,-1
EndSplineSet
Validated: 1
EndChar

StartChar: W
Encoding: 87 87 58
Width: 2415
GlyphClass: 2
Flags: W
HStem: -20 134<547.428 854.162 1452.72 1769.09> 1490 20G<516.745 721 1457.74 1662 2092 2389>
VStem: 275 202<184.631 474.104> 521 200<1310 1510> 1221 193<151.928 425.297> 1462 200<1310 1510> 2328 189<764.438 1229.48>
DStem2: 195.601 -20 396.176 -20 0.207912 0.978148<394.288 1564.22> 1136.35 -20 1337.18 -20 0.207912 0.978148<424.539 1564.27>
LayerCount: 2
Fore
SplineSet
629 -20 m 0,0,1
 431 -20 431 -20 335 112 c 0,2,3
 275 195 275 195 275 306 c 0,4,5
 275 355 275 355 287 410 c 2,6,-1
 521 1510 l 1,7,-1
 721 1510 l 1,8,-1
 488 412 l 2,9,10
 477 363 477 363 477 322 c 0,11,12
 477 249 477 249 510 200 c 0,13,14
 567 114 567 114 694 114 c 0,15,16
 890 114 890 114 1057 259 c 0,17,18
 1227 407 1227 407 1276 637 c 2,19,-1
 1462 1510 l 1,20,-1
 1662 1510 l 1,21,-1
 1429 412 l 2,22,23
 1414 339 1414 339 1414 285 c 0,24,25
 1414 236 1414 236 1426 202 c 0,26,27
 1458 114 1458 114 1580 114 c 0,28,29
 1820 114 1820 114 2014 295 c 0,30,31
 2243 509 2243 509 2313 838 c 0,32,33
 2328 910 2328 910 2328 983 c 0,34,35
 2328 1109 2328 1109 2282 1234 c 0,36,37
 2227 1383 2227 1383 2092 1510 c 1,38,-1
 2349 1510 l 1,39,40
 2429 1424 2429 1424 2478 1280 c 0,41,42
 2517 1164 2517 1164 2517 1040 c 0,43,44
 2517 953 2517 953 2498 862 c 0,45,46
 2413 450 2413 450 2080 196 c 0,47,48
 1797 -20 1797 -20 1515 -20 c 0,49,50
 1303 -20 1303 -20 1245 129 c 0,51,52
 1221 189 1221 189 1221 262 c 0,53,54
 1221 281 1221 281 1223 302 c 1,55,56
 1095 155 1095 155 945 68 c 0,57,58
 794 -20 794 -20 629 -20 c 0,0,1
EndSplineSet
Validated: 1
EndChar

StartChar: X
Encoding: 88 88 59
Width: 1361
GlyphClass: 2
Flags: W
HStem: 0 21G<5 198.84 1121.34 1356> 1490 20G<326 560.656 1483.16 1677>
VStem: 5 174<0 174> 1503 174<1336 1510>
DStem2: 5 0 179 0 0.70428 0.709922<122.545 1002.9 1246.64 2126.99> 550 1510 326 1510 0.470891 -0.882191<0 708.176 897.991 1606.17>
LayerCount: 2
Fore
SplineSet
5 0 m 1,0,-1
 738 739 l 1,1,-1
 326 1510 l 1,2,-1
 550 1510 l 1,3,-1
 883 885 l 1,4,-1
 1503 1510 l 1,5,-1
 1677 1510 l 1,6,-1
 944 771 l 1,7,-1
 1356 0 l 1,8,-1
 1132 0 l 1,9,-1
 799 625 l 1,10,-1
 179 0 l 1,11,-1
 5 0 l 1,0,-1
EndSplineSet
Validated: 1
EndChar

StartChar: Y
Encoding: 89 89 60
Width: 1372
GlyphClass: 2
Flags: W
HStem: 0 21G<573 777.231> 1490 20G<326 537.027 1518.89 1688>
VStem: 326 205<1305 1510> 573 200<0 200> 1534 154<1356 1510>
DStem2: 531 1510 326 1510 0.292796 -0.956175<0 991.15> 573 0 773 0 0.207912 0.978148<41.5823 425.206> 817 561 861 416 0.603029 0.797719<0 1189.41>
LayerCount: 2
Fore
SplineSet
573 0 m 1,0,-1
 661 416 l 1,1,-1
 326 1510 l 1,2,-1
 531 1510 l 1,3,-1
 817 561 l 1,4,-1
 1534 1510 l 1,5,-1
 1688 1510 l 1,6,-1
 861 416 l 1,7,-1
 773 0 l 1,8,-1
 573 0 l 1,0,-1
EndSplineSet
Validated: 1
EndChar

StartChar: Z
Encoding: 90 90 61
Width: 1390
GlyphClass: 2
Flags: W
HStem: 0 120<436 1230> 1390 120<471 1306>
LayerCount: 2
Fore
SplineSet
70 0 m 1,0,-1
 96 120 l 1,1,2
 1164 709 1164 709 1306 1390 c 1,3,-1
 445 1390 l 1,4,-1
 471 1510 l 1,5,-1
 1551 1510 l 1,6,7
 1376 675 1376 675 436 120 c 1,8,-1
 1256 120 l 1,9,-1
 1230 0 l 1,10,-1
 70 0 l 1,0,-1
EndSplineSet
Validated: 1
EndChar

StartChar: bracketleft
Encoding: 91 91 62
Width: 853
GlyphClass: 2
Flags: W
HStem: -250 120<372 750> 1640 120<749 1152>
DStem2: 147 -250 346.493 -250 0.207912 0.978148<164.158 1973.86>
LayerCount: 2
Fore
SplineSet
147 -250 m 5,0,-1
 574 1760 l 1,1,-1
 1177 1760 l 1,2,-1
 1152 1640 l 1,3,-1
 749 1640 l 1,4,-1
 372 -130 l 1,5,-1
 775 -130 l 1,6,-1
 750 -250 l 1,7,-1
 147 -250 l 5,0,-1
EndSplineSet
Validated: 1
EndChar

StartChar: backslash
Encoding: 92 92 63
Width: 1153
GlyphClass: 2
Flags: W
DStem2: 533 1640 359 1640 0.312361 -0.949964<0 1808.88>
LayerCount: 2
Fore
SplineSet
941 -130 m 1,0,-1
 359 1640 l 1,1,-1
 533 1640 l 1,2,-1
 1115 -130 l 1,3,-1
 941 -130 l 1,0,-1
EndSplineSet
Validated: 1
EndChar

StartChar: bracketright
Encoding: 93 93 64
Width: 853
GlyphClass: 2
Flags: W
HStem: -250 120<22 425> 1640 120<424 802>
DStem2: 399.493 -250 600 -250 0.207912 0.978148<122.681 1932.38>
LayerCount: 2
Fore
SplineSet
600 -250 m 1,0,-1
 -3 -250 l 1,1,-1
 22 -130 l 1,2,-1
 425 -130 l 1,3,-1
 802 1640 l 1,4,-1
 399 1640 l 1,5,-1
 424 1760 l 1,6,-1
 1027 1760 l 1,7,-1
 600 -250 l 1,0,-1
EndSplineSet
Validated: 1
EndChar

StartChar: asciicircum
Encoding: 94 94 65
Width: 976
GlyphClass: 2
Flags: W
HStem: 1120 390
VStem: 288 133<1120 1253> 963 201<1120 1321>
DStem2: 288 1120 421 1120 0.740719 0.671815<98.5156 552.232> 900 1510 756 1426 0.560566 -0.828109<0 358.278>
LayerCount: 2
Fore
SplineSet
718 1510 m 1,0,-1
 900 1510 l 1,1,-1
 1164 1120 l 1,2,-1
 963 1120 l 1,3,-1
 756 1426 l 1,4,-1
 421 1120 l 1,5,-1
 288 1120 l 1,6,-1
 718 1510 l 1,0,-1
EndSplineSet
Validated: 1
EndChar

StartChar: underscore
Encoding: 95 95 66
Width: 1183
GlyphClass: 2
Flags: W
HStem: -410 100<84 946>
LayerCount: 2
Fore
SplineSet
946 -410 m 1,0,-1
 63 -410 l 1,1,-1
 84 -310 l 1,2,-1
 967 -310 l 1,3,-1
 946 -410 l 1,0,-1
EndSplineSet
Validated: 1
EndChar

StartChar: grave
Encoding: 96 96 67
Width: 418
GlyphClass: 2
Flags: W
HStem: 1160 370
VStem: 354 275
LayerCount: 2
Fore
SplineSet
519 1530 m 1,0,-1
 629 1227 l 1,1,-1
 520 1160 l 1,2,-1
 354 1428 l 1,3,-1
 519 1530 l 1,0,-1
EndSplineSet
Validated: 1
EndChar

StartChar: a
Encoding: 97 97 68
Width: 1325
GlyphClass: 2
Flags: W
HStem: -20 87<506.814 760.058> 0 21G<945 1129.25> 1020 100<749.26 1058.59>
VStem: 187 203<186.186 579.943> 945 180<0 180> 1110 180<566.578 969.315>
DStem2: 940.749 -20 1120.75 -20 0.207912 0.978148<57.8709 865.021>
LayerCount: 2
Fore
SplineSet
1125 0 m 1,0,-1
 945 0 l 1,1,-1
 1096 711 l 2,2,3
 1110 778 1110 778 1110 830 c 0,4,5
 1110 889 1110 889 1092 929 c 0,6,7
 1049 1020 1049 1020 936 1020 c 0,8,9
 759 1020 759 1020 616 878 c 0,10,11
 454 719 454 719 407 497 c 0,12,13
 390 418 390 418 390 354 c 0,14,15
 390 262 390 262 425 201 c 0,16,17
 503 67 503 67 655 67 c 0,18,19
 743 67 743 67 832 91 c 1,20,-1
 839 83 l 1,21,22
 737 -20 737 -20 593 -20 c 0,23,24
 368 -20 368 -20 255 133 c 0,25,26
 187 225 187 225 187 353 c 0,27,28
 187 411 187 411 201 477 c 0,29,30
 257 742 257 742 499 939 c 0,31,32
 720 1120 720 1120 975 1120 c 0,33,34
 1151 1120 1151 1120 1229 1024 c 0,35,36
 1290 948 1290 948 1290 832 c 0,37,38
 1290 776 1290 776 1276 711 c 2,39,-1
 1125 0 l 1,0,-1
EndSplineSet
Validated: 1
EndChar

StartChar: b
Encoding: 98 98 69
Width: 1325
GlyphClass: 2
Flags: W
HStem: -20 100<500.413 809.74> 1033 87<798.942 1052.19> 1490 20G<516.754 701>
VStem: 269 180<131.188 452.772> 521 180<1330 1510> 1169 203<520.057 913.814>
DStem2: 196.064 -20 376.064 -20 0.207912 0.978148<337.845 1564.12>
LayerCount: 2
Fore
SplineSet
966 1120 m 0,0,1
 1191 1120 1191 1120 1304 967 c 0,2,3
 1372 875 1372 875 1372 747 c 0,4,5
 1372 689 1372 689 1358 623 c 0,6,7
 1302 358 1302 358 1060 161 c 0,8,9
 839 -20 839 -20 584 -20 c 0,10,11
 408 -20 408 -20 330 76 c 0,12,13
 269 152 269 152 269 268 c 0,14,15
 269 324 269 324 283 389 c 2,16,-1
 521 1510 l 1,17,-1
 701 1510 l 1,18,-1
 463 389 l 2,19,20
 449 322 449 322 449 270 c 0,21,22
 449 211 449 211 467 171 c 0,23,24
 510 80 510 80 623 80 c 0,25,26
 800 80 800 80 943 222 c 0,27,28
 1105 381 1105 381 1152 603 c 0,29,30
 1169 682 1169 682 1169 746 c 0,31,32
 1169 838 1169 838 1134 899 c 0,33,34
 1056 1033 1056 1033 904 1033 c 0,35,36
 816 1033 816 1033 727 1009 c 1,37,-1
 720 1017 l 1,38,39
 822 1120 822 1120 966 1120 c 0,0,1
EndSplineSet
Validated: 1
EndChar

StartChar: c
Encoding: 99 99 70
Width: 1201
GlyphClass: 2
Flags: W
HStem: -20 100<487.277 826.537> 1020 100<751.712 1086.2>
VStem: 187 204<183.624 579.943>
LayerCount: 2
Fore
SplineSet
593 -20 m 0,0,1
 368 -20 368 -20 255 133 c 0,2,3
 187 225 187 225 187 353 c 0,4,5
 187 411 187 411 201 477 c 0,6,7
 257 742 257 742 499 939 c 0,8,9
 720 1120 720 1120 985 1120 c 0,10,11
 1210 1120 1210 1120 1323 967 c 1,12,-1
 1158 890 l 1,13,14
 1092 1020 1092 1020 946 1020 c 0,15,16
 759 1020 759 1020 616 878 c 0,17,18
 454 719 454 719 407 497 c 0,19,20
 391 420 391 420 391 356 c 0,21,22
 391 264 391 264 425 201 c 0,23,24
 489 80 489 80 632 80 c 0,25,26
 818 80 818 80 962 222 c 0,27,28
 1019 278 1019 278 1061 341 c 1,29,-1
 1174 248 l 1,30,31
 1130 203 1130 203 1079 161 c 0,32,33
 860 -20 860 -20 593 -20 c 0,0,1
EndSplineSet
Validated: 1
EndChar

StartChar: d
Encoding: 100 100 71
Width: 1391
GlyphClass: 2
Flags: W
HStem: -20 108<485.242 801.94> 0 21G<1011 1195.25> 1033 87<780.639 1104.34> 1490 20G<1327.75 1512>
VStem: 187 204<184.224 579.943> 1011 180<0 180> 1332 180<1330 1510>
DStem2: 1006.75 -20 1186.75 -20 0.207912 0.978148<57.8709 259.729 364.327 1564.19>
LayerCount: 2
Fore
SplineSet
1191 0 m 1,0,-1
 1011 0 l 1,1,-1
 1061 234 l 1,2,3
 964 115 964 115 850 49 c 0,4,5
 733 -20 733 -20 593 -20 c 0,6,7
 368 -20 368 -20 255 133 c 0,8,9
 187 225 187 225 187 353 c 0,10,11
 187 411 187 411 201 477 c 0,12,13
 257 742 257 742 499 939 c 0,14,15
 720 1120 720 1120 955 1120 c 0,16,17
 1099 1120 1099 1120 1157 1017 c 1,18,-1
 1147 1009 l 1,19,20
 1068 1033 1068 1033 981 1033 c 0,21,22
 774 1033 774 1033 616 878 c 0,23,24
 454 719 454 719 407 497 c 0,25,26
 391 420 391 420 391 356 c 0,27,28
 391 264 391 264 425 201 c 0,29,30
 486 88 486 88 634 88 c 0,31,32
 774 88 774 88 897 188 c 0,33,34
 1083 340 1083 340 1130 559 c 2,35,-1
 1332 1510 l 1,36,-1
 1512 1510 l 1,37,-1
 1191 0 l 1,0,-1
EndSplineSet
Validated: 1
EndChar

StartChar: e
Encoding: 101 101 72
Width: 1184
GlyphClass: 2
Flags: W
HStem: -20 100<487.277 826.783> 500 100<436 938> 1020 100<751.712 1089.77>
VStem: 187 203<185.381 495.516>
CounterMasks: 1 e0
LayerCount: 2
Fore
SplineSet
593 -20 m 0,0,1
 368 -20 368 -20 255 133 c 0,2,3
 187 225 187 225 187 353 c 0,4,5
 187 411 187 411 201 477 c 0,6,7
 257 742 257 742 499 939 c 0,8,9
 720 1120 720 1120 985 1120 c 0,10,11
 1210 1120 1210 1120 1323 967 c 1,12,-1
 1158 890 l 1,13,14
 1094 1020 1094 1020 946 1020 c 0,15,16
 759 1020 759 1020 616 878 c 0,17,18
 492 756 492 756 436 600 c 1,19,-1
 960 600 l 1,20,-1
 938 500 l 1,21,-1
 407 500 l 1,22,23
 390 421 390 421 390 357 c 0,24,25
 390 267 390 267 425 201 c 0,26,27
 489 80 489 80 632 80 c 0,28,29
 819 80 819 80 962 222 c 0,30,31
 1019 278 1019 278 1061 341 c 1,32,-1
 1174 248 l 1,33,34
 1130 203 1130 203 1079 161 c 0,35,36
 860 -20 860 -20 593 -20 c 0,0,1
EndSplineSet
Validated: 1
EndChar

StartChar: f
Encoding: 102 102 73
Width: 1099
GlyphClass: 2
Flags: W
HStem: 0 21G<200 384.249> 706 100<271 350 551 1002> 1430 100<933.904 1275>
VStem: 200 180<0 180>
DStem2: 200 0 380 0 0.207912 0.978148<37.4241 721.759 861.364 1160.53>
LayerCount: 2
Fore
SplineSet
200 0 m 1,0,-1
 350 706 l 1,1,-1
 250 706 l 1,2,-1
 271 806 l 1,3,-1
 371 806 l 1,4,-1
 389 887 l 2,5,6
 450 1162 450 1162 680 1358 c 0,7,8
 882 1530 882 1530 1172 1530 c 0,9,10
 1293 1530 1293 1530 1398 1470 c 1,11,-1
 1298 1366 l 1,12,13
 1235 1430 1235 1430 1133 1430 c 0,14,15
 944 1430 944 1430 794 1292 c 0,16,17
 621 1134 621 1134 551 806 c 1,18,-1
 1023 806 l 1,19,-1
 1002 706 l 1,20,-1
 530 706 l 1,21,-1
 380 0 l 1,22,-1
 200 0 l 1,0,-1
EndSplineSet
Validated: 1
EndChar

StartChar: g
Encoding: 103 103 74
Width: 1325
GlyphClass: 2
Flags: W
HStem: -430 100<283.052 624.016> -20 87<506.814 760.058> 1020 100<749.26 1058.59>
VStem: 187 203<186.186 579.943> 1110 180<651.506 968.812>
DStem2: 853.326 -430 1033.33 -430 0.207912 0.978148<433.737 1284.24>
LayerCount: 2
Fore
SplineSet
593 -20 m 0,0,1
 368 -20 368 -20 255 133 c 0,2,3
 187 225 187 225 187 353 c 0,4,5
 187 411 187 411 201 477 c 0,6,7
 257 742 257 742 499 939 c 0,8,9
 720 1120 720 1120 975 1120 c 0,10,11
 1151 1120 1151 1120 1229 1024 c 0,12,13
 1290 948 1290 948 1290 832 c 0,14,15
 1290 776 1290 776 1276 711 c 2,16,-1
 1170 213 l 2,17,18
 1112 -62 1112 -62 878 -258 c 0,19,20
 673 -430 673 -430 387 -430 c 0,21,22
 251 -430 251 -430 156 -375 c 1,23,-1
 260 -266 l 1,24,25
 323 -330 323 -330 426 -330 c 0,26,27
 615 -330 615 -330 765 -192 c 0,28,29
 937 -35 937 -35 990 213 c 2,30,-1
 1096 711 l 2,31,32
 1110 778 1110 778 1110 830 c 0,33,34
 1110 889 1110 889 1092 929 c 0,35,36
 1049 1020 1049 1020 936 1020 c 0,37,38
 759 1020 759 1020 616 878 c 0,39,40
 454 719 454 719 407 497 c 0,41,42
 390 418 390 418 390 354 c 0,43,44
 390 262 390 262 425 201 c 0,45,46
 503 67 503 67 655 67 c 0,47,48
 743 67 743 67 832 91 c 1,49,-1
 839 83 l 1,50,51
 737 -20 737 -20 593 -20 c 0,0,1
EndSplineSet
Validated: 1
EndChar

StartChar: h
Encoding: 104 104 75
Width: 1362
GlyphClass: 2
Flags: W
HStem: 0 21G<200 384.251 982 1166.26> 1000 120<847.797 1116.32> 1490 20G<516.748 701>
VStem: 200 180<0 180> 521 180<1330 1510> 982 180<0 180> 1154 181<697.938 961.318>
DStem2: 200 0 380 0 0.207912 0.978148<37.4241 820.373 922.756 1543.74> 982 0 1162 0 0.207912 0.978148<37.4241 859.206>
LayerCount: 2
Fore
SplineSet
200 0 m 1,0,-1
 521 1510 l 1,1,-1
 701 1510 l 1,2,-1
 564 866 l 1,3,4
 670 984 670 984 794 1051 c 0,5,6
 923 1120 923 1120 1072 1120 c 0,7,8
 1218 1120 1218 1120 1286 1027 c 0,9,10
 1335 962 1335 962 1335 864 c 0,11,12
 1335 817 1335 817 1324 761 c 2,13,-1
 1162 0 l 1,14,-1
 982 0 l 1,15,-1
 1144 761 l 2,16,17
 1154 806 1154 806 1154 843 c 0,18,19
 1154 894 1154 894 1135 930 c 0,20,21
 1097 1000 1097 1000 995 1000 c 0,22,23
 840 1000 840 1000 700 883 c 0,24,25
 540 749 540 749 495 541 c 2,26,-1
 380 0 l 1,27,-1
 200 0 l 1,0,-1
EndSplineSet
Validated: 1
EndChar

StartChar: i
Encoding: 105 105 76
Width: 580
GlyphClass: 2
Flags: W
HStem: -20 100<434.727 536> 1080 20G<429.735 614> 1212 255<498.032 651.996>
VStem: 238 182<100.699 274.17> 434 180<920 1100> 446 258<1263.78 1414.98>
DStem2: 195.325 -20 375.325 -20 0.207912 0.978148<236.963 1145.15>
LayerCount: 2
Fore
SplineSet
536 -20 m 17,0,1
 238 -20 238 -20 238 156 c 0,2,3
 238 181 238 181 244 209 c 2,4,-1
 434 1100 l 1,5,-1
 614 1100 l 1,6,-1
 424 209 l 2,7,8
 420 190 420 190 420 174 c 0,9,10
 420 80 420 80 557 80 c 1,11,-1
 536 -20 l 17,0,1
602 1467 m 0,12,13
 654 1467 654 1467 683 1430 c 0,14,15
 704 1402 704 1402 704 1368 c 0,16,17
 704 1355 704 1355 701 1340 c 0,18,19
 690 1287 690 1287 644 1249 c 24,20,21
 598 1212 598 1212 548 1212 c 0,22,23
 495 1212 495 1212 467 1250 c 0,24,25
 446 1278 446 1278 446 1313 c 0,26,27
 446 1326 446 1326 449 1340 c 0,28,29
 459 1389 459 1389 505 1429 c 24,30,31
 548 1467 548 1467 602 1467 c 0,12,13
EndSplineSet
Validated: 1
EndChar

StartChar: j
Encoding: 106 106 77
Width: 580
GlyphClass: 2
Flags: W
HStem: -430 100<-30 92.9392> 1080 20G<429.747 614> 1212 255<498.032 651.996>
VStem: 434 180<920 1100> 446 258<1263.78 1414.98>
DStem2: 108.697 -430 288.697 -430 0.207912 0.978148<145.391 1564.2>
LayerCount: 2
Fore
SplineSet
602 1467 m 0,0,1
 654 1467 654 1467 683 1430 c 0,2,3
 704 1402 704 1402 704 1368 c 0,4,5
 704 1355 704 1355 701 1340 c 0,6,7
 690 1287 690 1287 644 1249 c 24,8,9
 598 1212 598 1212 548 1212 c 0,10,11
 495 1212 495 1212 467 1250 c 0,12,13
 446 1278 446 1278 446 1313 c 0,14,15
 446 1326 446 1326 449 1340 c 0,16,17
 459 1389 459 1389 505 1429 c 24,18,19
 548 1467 548 1467 602 1467 c 0,0,1
-51 -430 m 9,20,-1
 -30 -330 l 1,21,22
 130 -330 130 -330 168 -151 c 2,23,-1
 434 1100 l 1,24,-1
 614 1100 l 1,25,-1
 348 -151 l 2,26,27
 289 -430 289 -430 -51 -430 c 9,20,-1
EndSplineSet
Validated: 1
EndChar

StartChar: k
Encoding: 107 107 78
Width: 1306
GlyphClass: 2
Flags: W
HStem: 0 21G<200 384.292 982.073 1246> 219 100<448 697.209> 1080 20G<1142 1340> 1490 20G<516.748 701>
VStem: 200 180<0 180> 521 180<1330 1510> 1003 243<0 243> 1160 180<920 1100>
DStem2: 200 0 380 0 0.207912 0.978148<37.4241 271.643 363.591 1543.74> 896 340 732 259 0.717279 -0.696786<0 313.656>
LayerCount: 2
Fore
SplineSet
200 0 m 1,0,-1
 521 1510 l 1,1,-1
 701 1510 l 1,2,-1
 448 319 l 1,3,4
 786 319 786 319 970 575 c 0,5,6
 1048 684 1048 684 1094 832 c 0,7,8
 1124 929 1124 929 1160 1100 c 1,9,-1
 1340 1100 l 1,10,11
 1300 920 1300 920 1272 831 c 0,12,13
 1227 684 1227 684 1134 554.5 c 128,-1,14
 1041 425 1041 425 896 340 c 1,15,-1
 1246 0 l 1,16,-1
 1003 0 l 1,17,-1
 732 259 l 1,18,19
 568 219 568 219 427 219 c 1,20,-1
 380 0 l 1,21,-1
 200 0 l 1,0,-1
EndSplineSet
Validated: 1
EndChar

StartChar: l
Encoding: 108 108 79
Width: 580
GlyphClass: 2
Flags: W
HStem: -20 100<434.727 536> 1490 20G<516.742 701>
VStem: 238 182<100.699 274.905> 521 180<1330 1510>
DStem2: 195.325 -20 375.325 -20 0.207912 0.978148<236.963 1564.28>
LayerCount: 2
Fore
SplineSet
536 -20 m 17,0,1
 238 -20 238 -20 238 156 c 0,2,3
 238 181 238 181 244 209 c 2,4,-1
 521 1510 l 1,5,-1
 701 1510 l 1,6,-1
 424 209 l 2,7,8
 420 190 420 190 420 174 c 0,9,10
 420 80 420 80 557 80 c 1,11,-1
 536 -20 l 17,0,1
EndSplineSet
Validated: 1
EndChar

StartChar: m
Encoding: 109 109 80
Width: 2084
GlyphClass: 2
Flags: W
HStem: 0 21G<200 384.251 952 1136.25 1704 1888.26> 1000 120<833.871 1089.06 1585.87 1842.95> 1080 20G<429.745 614>
VStem: 200 180<0 180> 434 180<920 1100> 952 180<0 180> 1124 177<870 965.327> 1704 180<0 180> 1876 182<698.301 965.887>
DStem2: 200 0 380 0 0.207912 0.978148<37.4241 831.004 922.756 1124.61> 952 0 1132 0 0.207912 0.978148<37.4241 831.004> 1704 0 1884 0 0.207912 0.978148<37.4241 862.109>
LayerCount: 2
Fore
SplineSet
200 0 m 1,0,-1
 434 1100 l 1,1,-1
 614 1100 l 1,2,-1
 564 866 l 1,3,4
 674 988 674 988 784 1051 c 0,5,6
 907 1120 907 1120 1047 1120 c 0,7,8
 1198 1120 1198 1120 1260 1028 c 0,9,10
 1301 967 1301 967 1301 870 c 1,11,12
 1386 968 1386 968 1536 1051 c 0,13,14
 1659 1120 1659 1120 1799 1120 c 0,15,16
 1948 1120 1948 1120 2012 1028 c 0,17,18
 2058 961 2058 961 2058 865 c 0,19,20
 2058 816 2058 816 2046 761 c 2,21,-1
 1884 0 l 1,22,-1
 1704 0 l 1,23,-1
 1866 761 l 2,24,25
 1876 808 1876 808 1876 846 c 0,26,27
 1876 896 1876 896 1859 931 c 0,28,29
 1826 1000 1826 1000 1716 1000 c 0,30,31
 1574 1000 1574 1000 1442 883 c 0,32,33
 1291 749 1291 749 1247 541 c 2,34,-1
 1132 0 l 1,35,-1
 952 0 l 1,36,-1
 1114 761 l 2,37,38
 1124 808 1124 808 1124 846 c 0,39,40
 1124 896 1124 896 1107 931 c 0,41,42
 1074 1000 1074 1000 964 1000 c 0,43,44
 822 1000 822 1000 690 883 c 0,45,46
 539 749 539 749 495 541 c 2,47,-1
 380 0 l 1,48,-1
 200 0 l 1,0,-1
EndSplineSet
Validated: 1
EndChar

StartChar: n
Encoding: 110 110 81
Width: 1362
GlyphClass: 2
Flags: W
HStem: 0 21G<200 384.251 982 1166.26> 1000 120<847.797 1116.06> 1080 20G<429.745 614>
VStem: 200 180<0 180> 434 180<920 1100> 982 180<0 180> 1154 182<698.301 962.249>
DStem2: 200 0 380 0 0.207912 0.978148<37.4241 820.373 922.756 1124.61> 982 0 1162 0 0.207912 0.978148<37.4241 859.206>
LayerCount: 2
Fore
SplineSet
200 0 m 1,0,-1
 434 1100 l 1,1,-1
 614 1100 l 1,2,-1
 564 866 l 1,3,4
 670 984 670 984 794 1051 c 0,5,6
 923 1120 923 1120 1072 1120 c 0,7,8
 1216 1120 1216 1120 1286 1027 c 0,9,10
 1336 964 1336 964 1336 865 c 0,11,12
 1336 817 1336 817 1324 761 c 2,13,-1
 1162 0 l 1,14,-1
 982 0 l 1,15,-1
 1144 761 l 2,16,17
 1154 806 1154 806 1154 843 c 0,18,19
 1154 894 1154 894 1135 930 c 0,20,21
 1097 1000 1097 1000 995 1000 c 0,22,23
 840 1000 840 1000 700 883 c 0,24,25
 540 749 540 749 495 541 c 2,26,-1
 380 0 l 1,27,-1
 200 0 l 1,0,-1
EndSplineSet
Validated: 1
EndChar

StartChar: o
Encoding: 111 111 82
Width: 1344
GlyphClass: 2
Flags: W
HStem: -20 100<487.743 826.04> 1020 100<751.712 1091.95>
VStem: 188 203<182.15 583.057> 1187 203<520.209 917.084>
LayerCount: 2
Fore
SplineSet
593 -20 m 0,0,1
 360 -20 360 -20 255 133 c 0,2,3
 188 233 188 233 188 362 c 0,4,5
 188 417 188 417 201 477 c 0,6,7
 257 742 257 742 499 939 c 0,8,9
 720 1120 720 1120 985 1120 c 0,10,11
 1214 1120 1214 1120 1323 967 c 0,12,13
 1390 871 1390 871 1390 743 c 0,14,15
 1390 686 1390 686 1376 623 c 0,16,17
 1320 358 1320 358 1079 161 c 0,18,19
 857 -20 857 -20 593 -20 c 0,0,1
632 80 m 0,20,21
 819 80 819 80 962 222 c 0,22,23
 1125 382 1125 382 1171 603 c 0,24,25
 1187 680 1187 680 1187 744 c 0,26,27
 1187 833 1187 833 1153 899 c 0,28,29
 1091 1020 1091 1020 946 1020 c 0,30,31
 759 1020 759 1020 616 878 c 0,32,33
 453 718 453 718 407 497 c 0,34,35
 391 420 391 420 391 356 c 0,36,37
 391 271 391 271 425 201 c 0,38,39
 484 80 484 80 632 80 c 0,20,21
EndSplineSet
Validated: 1
EndChar

StartChar: p
Encoding: 112 112 83
Width: 1391
GlyphClass: 2
Flags: W
HStem: -410 21G<113 297.248> -20 87<520.199 844.361> 1012 108<822.581 1139.76> 1080 20G<429.748 614>
VStem: 113 180<-410 -230> 434 180<920 1100> 1234 204<523.99 916.041>
DStem2: 113 -410 293 -410 0.207912 0.978148<37.4241 1237.29 1341.88 1543.74>
LayerCount: 2
Fore
SplineSet
434 1100 m 1,0,-1
 614 1100 l 1,1,-1
 564 866 l 1,2,3
 661 985 661 985 774 1051 c 0,4,5
 891 1120 891 1120 1032 1120 c 0,6,7
 1257 1120 1257 1120 1370 967 c 0,8,9
 1438 876 1438 876 1438 749 c 0,10,11
 1438 690 1438 690 1423 623 c 0,12,13
 1367 358 1367 358 1126 161 c 0,14,15
 905 -20 905 -20 670 -20 c 0,16,17
 526 -20 526 -20 468 83 c 1,18,-1
 477 91 l 1,19,20
 556 67 556 67 644 67 c 0,21,22
 851 67 851 67 1009 222 c 0,23,24
 1171 381 1171 381 1218 603 c 0,25,26
 1234 680 1234 680 1234 744 c 0,27,28
 1234 836 1234 836 1200 899 c 0,29,30
 1139 1012 1139 1012 991 1012 c 0,31,32
 851 1012 851 1012 728 912 c 0,33,34
 542 760 542 760 495 541 c 2,35,-1
 293 -410 l 1,36,-1
 113 -410 l 1,37,-1
 434 1100 l 1,0,-1
EndSplineSet
Validated: 1
EndChar

StartChar: q
Encoding: 113 113 84
Width: 1325
GlyphClass: 2
Flags: W
HStem: -410 21G<858 1042.25> -20 87<506.814 760.058> 1020 100<749.26 1058.59>
VStem: 187 203<186.186 579.943> 858 180<-410 -230> 1110 180<647.228 968.812>
DStem2: 858 -410 1038 -410 0.207912 0.978148<37.4241 1263.7>
LayerCount: 2
Fore
SplineSet
593 -20 m 0,0,1
 368 -20 368 -20 255 133 c 0,2,3
 187 225 187 225 187 353 c 0,4,5
 187 411 187 411 201 477 c 0,6,7
 257 742 257 742 499 939 c 0,8,9
 720 1120 720 1120 975 1120 c 0,10,11
 1151 1120 1151 1120 1229 1024 c 0,12,13
 1290 948 1290 948 1290 832 c 0,14,15
 1290 776 1290 776 1276 711 c 2,16,-1
 1038 -410 l 1,17,-1
 858 -410 l 1,18,-1
 1096 711 l 2,19,20
 1110 778 1110 778 1110 830 c 0,21,22
 1110 889 1110 889 1092 929 c 0,23,24
 1049 1020 1049 1020 936 1020 c 0,25,26
 759 1020 759 1020 616 878 c 0,27,28
 454 719 454 719 407 497 c 0,29,30
 390 418 390 418 390 354 c 0,31,32
 390 262 390 262 425 201 c 0,33,34
 503 67 503 67 655 67 c 0,35,36
 743 67 743 67 832 91 c 1,37,-1
 839 83 l 1,38,39
 737 -20 737 -20 593 -20 c 0,0,1
EndSplineSet
Validated: 1
EndChar

StartChar: r
Encoding: 114 114 85
Width: 1149
GlyphClass: 2
Flags: W
HStem: 0 21G<200 384.251> 1000 120<847.797 1116.19> 1080 20G<429.745 614>
VStem: 200 180<0 180> 434 180<920 1100>
DStem2: 200 0 380 0 0.207912 0.978148<37.4241 820.373 922.756 1124.61>
LayerCount: 2
Fore
SplineSet
200 0 m 1,0,-1
 434 1100 l 1,1,-1
 614 1100 l 1,2,-1
 564 866 l 1,3,4
 670 984 670 984 794 1051 c 0,5,6
 923 1120 923 1120 1072 1120 c 0,7,8
 1217 1120 1217 1120 1286 1027 c 0,9,10
 1323 978 1323 978 1333 913 c 1,11,12
 1153 817 l 1,13,14
 1154 831 1154 831 1154 844 c 0,15,16
 1154 895 1154 895 1135 930 c 0,17,18
 1097 1000 1097 1000 995 1000 c 0,19,20
 840 1000 840 1000 700 883 c 0,21,22
 540 749 540 749 495 541 c 2,23,-1
 380 0 l 1,24,-1
 200 0 l 1,0,-1
EndSplineSet
Validated: 1
EndChar

StartChar: s
Encoding: 115 115 86
Width: 1020
GlyphClass: 2
Flags: W
HStem: -20 100<347.806 682.075> 1020 100<647.853 899.606>
VStem: 400 171<757.594 935.487> 825 173<236.308 453.167>
DStem2: 848 631 540 585 0.882692 -0.469952<-335.898 92.2917>
LayerCount: 2
Fore
SplineSet
486 -20 m 0,0,1
 261 -20 261 -20 133 154 c 1,2,-1
 271 222 l 1,3,4
 336 80 336 80 500 80 c 0,5,6
 640 80 640 80 725 156 c 0,7,8
 802 225 802 225 820 316 c 0,9,10
 825 340 825 340 825 361 c 0,11,12
 825 433 825 433 756 470 c 2,13,-1
 540 585 l 2,14,15
 400 660 400 660 400 789 c 0,16,17
 400 802 400 802 402 816 c 0,18,19
 418 954 418 954 557 1047 c 0,20,21
 667 1120 667 1120 810 1120 c 0,22,23
 963 1120 963 1120 1045 1009 c 1,24,-1
 926 933 l 1,25,26
 889 1020 889 1020 793 1020 c 0,27,28
 699 1020 699 1020 638 968 c 0,29,30
 584 922 584 922 574 870 c 0,31,32
 571 855 571 855 571 841 c 0,33,34
 571 779 571 779 638 743 c 2,35,-1
 848 631 l 2,36,37
 998 551 998 551 998 398 c 0,38,39
 998 377 998 377 995 354 c 0,40,41
 972 191 972 191 785 66 c 0,42,43
 655 -20 655 -20 486 -20 c 0,0,1
EndSplineSet
Validated: 1
EndChar

StartChar: t
Encoding: 116 116 87
Width: 700
GlyphClass: 2
Flags: W
HStem: -20 100<434.727 536> 1000 100<294 413 614 893> 1490 20G<516.756 701>
VStem: 238 182<100.699 273.799> 521 180<1330 1510>
DStem2: 195.325 -20 375.325 -20 0.207912 0.978148<236.963 1042.97 1182.57 1564.28>
LayerCount: 2
Fore
SplineSet
536 -20 m 1,0,1
 238 -20 238 -20 238 156 c 0,2,3
 238 181 238 181 244 209 c 2,4,-1
 413 1000 l 1,5,-1
 273 1000 l 1,6,-1
 294 1100 l 1,7,-1
 434 1100 l 1,8,-1
 521 1510 l 1,9,-1
 701 1510 l 1,10,-1
 614 1100 l 1,11,-1
 914 1100 l 1,12,-1
 893 1000 l 1,13,-1
 593 1000 l 1,14,-1
 424 209 l 2,15,16
 420 190 420 190 420 174 c 0,17,18
 420 80 420 80 557 80 c 1,19,-1
 536 -20 l 1,0,1
EndSplineSet
Validated: 1
EndChar

StartChar: u
Encoding: 117 117 88
Width: 1362
GlyphClass: 2
Flags: W
HStem: -20 120<479.415 747.723> 0 21G<982 1166.25> 1080 20G<429.742 614 1211.75 1396>
VStem: 261 181<138.242 402.062> 434 180<920 1100> 982 180<0 180> 1216 180<920 1100>
DStem2: 195.692 -20 375.692 -20 0.207912 0.978148<323.291 1145.07> 977.749 -20 1157.75 -20 0.207912 0.978148<57.8709 259.729 362.111 1145.06>
LayerCount: 2
Fore
SplineSet
1162 0 m 1,0,-1
 982 0 l 1,1,-1
 1032 234 l 1,2,3
 926 116 926 116 801 49 c 0,4,5
 672 -20 672 -20 524 -20 c 128,-1,6
 376 -20 376 -20 310 73 c 0,7,8
 261 141 261 141 261 239 c 0,9,10
 261 286 261 286 272 339 c 2,11,-1
 434 1100 l 1,12,-1
 614 1100 l 1,13,-1
 452 339 l 2,14,15
 442 294 442 294 442 257 c 0,16,17
 442 206 442 206 461 170 c 0,18,19
 499 100 499 100 601 100 c 0,20,21
 756 100 756 100 896 217 c 0,22,23
 1056 351 1056 351 1101 559 c 2,24,-1
 1216 1100 l 1,25,-1
 1396 1100 l 1,26,-1
 1162 0 l 1,0,-1
EndSplineSet
Validated: 1
EndChar

StartChar: v
Encoding: 118 118 89
Width: 1200
GlyphClass: 2
Flags: W
HStem: 0 21G<495.255 713.255> 1080 20G<239 431.754 1290.78 1429>
VStem: 239 188<912 1100> 1304 125<975 1100>
DStem2: 427 1100 239 1100 0.230863 -0.972986<0 1003.19> 659 124 700 0 0.552425 0.833563<0 1169.87>
LayerCount: 2
Fore
SplineSet
500 0 m 1,0,-1
 239 1100 l 1,1,-1
 427 1100 l 1,2,-1
 659 124 l 1,3,-1
 1304 1100 l 1,4,-1
 1429 1100 l 1,5,-1
 700 0 l 1,6,-1
 500 0 l 1,0,-1
EndSplineSet
Validated: 1
EndChar

StartChar: w
Encoding: 119 119 90
Width: 1992
GlyphClass: 2
Flags: W
HStem: -20 120<475.443 731.811 1227.91 1519.75> 1080 20G<429.742 614 1181.75 1366 1696 1953.5>
VStem: 260 182<134.125 401.699> 434 180<920 1100> 1011 183<134.735 230> 1186 180<920 1100> 1876 162<516.814 923.808>
DStem2: 195.692 -20 375.692 -20 0.207912 0.978148<320.387 1145.07> 947.93 -20 1127.69 -20 0.207912 0.978148<351.443 1145.02>
LayerCount: 2
Fore
SplineSet
519 -20 m 0,0,1
 373 -20 373 -20 306 72 c 0,2,3
 260 136 260 136 260 232 c 0,4,5
 260 281 260 281 272 339 c 2,6,-1
 434 1100 l 1,7,-1
 614 1100 l 1,8,-1
 452 339 l 2,9,10
 442 292 442 292 442 254 c 0,11,12
 442 204 442 204 459 169 c 0,13,14
 492 100 492 100 602 100 c 0,15,16
 744 100 744 100 876 217 c 0,17,18
 1027 351 1027 351 1071 559 c 2,19,-1
 1186 1100 l 1,20,-1
 1366 1100 l 1,21,-1
 1204 339 l 2,22,23
 1194 292 1194 292 1194 254 c 0,24,25
 1194 204 1194 204 1211 169 c 0,26,27
 1244 100 1244 100 1359 100 c 0,28,29
 1533 100 1533 100 1679 254 c 0,30,31
 1821 404 1821 404 1863 601 c 0,32,33
 1876 660 1876 660 1876 718 c 0,34,35
 1876 806 1876 806 1846 889 c 0,36,37
 1804 1007 1804 1007 1696 1100 c 1,38,-1
 1921 1100 l 1,39,40
 1986 1029 1986 1029 2019 903 c 0,41,42
 2038 832 2038 832 2038 756 c 0,43,44
 2038 691 2038 691 2024 623 c 0,45,46
 1969 354 1969 354 1737 154 c 0,47,48
 1534 -20 1534 -20 1269 -20 c 0,49,50
 1117 -20 1117 -20 1055 71 c 0,51,52
 1011 135 1011 135 1011 216 c 0,53,54
 1011 223 1011 223 1011 230 c 1,55,56
 923 129 923 129 781 49 c 0,57,58
 659 -20 659 -20 519 -20 c 0,0,1
EndSplineSet
Validated: 1
EndChar

StartChar: x
Encoding: 120 120 91
Width: 1036
GlyphClass: 2
Flags: W
HStem: 0 21G<5 170.273 823.182 1031> 1080 20G<239 446.818 1099.73 1265>
VStem: 5 145<0 145> 1120 145<955 1100>
DStem2: 5 0 150 0 0.711879 0.702302<103.222 729.733 939.766 1566.28> 436 1100 239 1100 0.475768 -0.879571<0 500.244 656.64 1156.88>
LayerCount: 2
Fore
SplineSet
5 0 m 1,0,-1
 546 533 l 1,1,-1
 239 1100 l 1,2,-1
 436 1100 l 1,3,-1
 674 660 l 1,4,-1
 1120 1100 l 1,5,-1
 1265 1100 l 1,6,-1
 724 567 l 1,7,-1
 1031 0 l 1,8,-1
 834 0 l 1,9,-1
 596 440 l 1,10,-1
 150 0 l 1,11,-1
 5 0 l 1,0,-1
EndSplineSet
Validated: 1
EndChar

StartChar: y
Encoding: 121 121 92
Width: 1362
GlyphClass: 2
Flags: W
HStem: -430 100<320.052 661.262> -20 120<479.547 747.885> 1080 20G<429.742 614 1211.75 1396>
VStem: 261 181<138.242 402.062> 434 180<920 1100> 1216 180<920 1100>
DStem2: 108.544 -430 288.544 -430 0.207912 0.978148<742.39 1564.23> 890.862 -430 1070.33 -430 0.207912 0.978148<432.291 678.834 781.795 1564.17>
LayerCount: 2
Fore
SplineSet
524 -20 m 0,0,1
 377 -20 377 -20 310 73 c 0,2,3
 261 141 261 141 261 239 c 0,4,5
 261 287 261 287 272 339 c 2,6,-1
 434 1100 l 1,7,-1
 614 1100 l 1,8,-1
 452 339 l 2,9,10
 442 292 442 292 442 257 c 0,11,12
 442 206 442 206 461 170 c 0,13,14
 499 100 499 100 601 100 c 0,15,16
 756 100 756 100 896 217 c 0,17,18
 1057 352 1057 352 1101 559 c 2,19,-1
 1216 1100 l 1,20,-1
 1396 1100 l 1,21,-1
 1207 213 l 2,22,23
 1148 -62 1148 -62 915 -258 c 0,24,25
 711 -430 711 -430 424 -430 c 0,26,27
 288 -430 288 -430 193 -375 c 1,28,-1
 297 -266 l 1,29,30
 360 -330 360 -330 463 -330 c 0,31,32
 652 -330 652 -330 802 -192 c 0,33,34
 973 -35 973 -35 1032 234 c 1,35,36
 926 116 926 116 801 49 c 0,37,38
 673 -20 673 -20 524 -20 c 0,0,1
EndSplineSet
Validated: 1
EndChar

StartChar: z
Encoding: 122 122 93
Width: 1170
GlyphClass: 2
Flags: W
HStem: 0 100<393 1010> 1000 100<412 1028>
LayerCount: 2
Fore
SplineSet
70 0 m 1,0,-1
 90 95 l 1,1,2
 933 545 933 545 1028 1000 c 1,3,-1
 391 1000 l 1,4,-1
 412 1100 l 1,5,-1
 1244 1100 l 1,6,7
 1118 495 1118 495 393 100 c 1,8,-1
 1031 100 l 1,9,-1
 1010 0 l 1,10,-1
 70 0 l 1,0,-1
EndSplineSet
Validated: 1
EndChar

StartChar: braceleft
Encoding: 123 123 94
Width: 838
GlyphClass: 2
Flags: W
HStem: -250 120<590.566 735> 695 120<223 434> 1640 120<949.264 1137>
VStem: 310 197<-54.417 239.541>
DStem2: 232.601 -250 427.601 -250 0.207912 0.978148<381.218 966.223 1088.8 1843.95>
CounterMasks: 1 e0
LayerCount: 2
Fore
SplineSet
735 -250 m 1,0,1
 310 -250 310 -250 310 58 c 0,2,3
 310 114 310 114 324 180 c 2,4,-1
 434 695 l 1,5,-1
 198 695 l 1,6,-1
 223 815 l 1,7,-1
 459 815 l 1,8,-1
 569 1330 l 2,9,10
 660 1760 660 1760 1162 1760 c 1,11,-1
 1137 1640 l 1,12,13
 830 1640 830 1640 764 1330 c 2,14,-1
 519 180 l 2,15,16
 507 125 507 125 507 80 c 0,17,18
 507 -130 507 -130 760 -130 c 1,19,-1
 735 -250 l 1,0,1
EndSplineSet
Validated: 1
EndChar

StartChar: bar
Encoding: 124 124 95
Width: 680
GlyphClass: 2
Flags: W
VStem: 222 180<-130 50> 599 180<1460 1640>
DStem2: 222 -130 402 -130 0.207912 0.978148<37.4241 1809.7>
LayerCount: 2
Fore
SplineSet
222 -130 m 1,0,-1
 599 1640 l 1,1,-1
 779 1640 l 1,2,-1
 402 -130 l 1,3,-1
 222 -130 l 1,0,-1
EndSplineSet
Validated: 1
EndChar

StartChar: braceright
Encoding: 125 125 96
Width: 838
GlyphClass: 2
Flags: W
HStem: -250 120<22 209.736> 695 120<725 936> 1640 120<424 568.434>
VStem: 652 197<1185.7 1567.11>
DStem2: 303.601 -250 498.601 -250 0.207912 0.978148<248.721 1006.77 1129.34 1714.35>
CounterMasks: 1 e0
LayerCount: 2
Fore
SplineSet
-3 -250 m 1,0,1
 22 -130 l 1,2,3
 329 -130 329 -130 395 180 c 2,4,-1
 640 1330 l 2,5,6
 652 1385 652 1385 652 1430 c 0,7,8
 652 1640 652 1640 399 1640 c 1,9,-1
 424 1760 l 1,10,11
 849 1760 849 1760 849 1452 c 0,12,13
 849 1396 849 1396 835 1330 c 2,14,-1
 725 815 l 1,15,-1
 961 815 l 1,16,-1
 936 695 l 1,17,-1
 700 695 l 1,18,-1
 590 180 l 2,19,20
 499 -250 499 -250 -3 -250 c 1,0,1
EndSplineSet
Validated: 1
EndChar

StartChar: asciitilde
Encoding: 126 126 97
Width: 1182
GlyphClass: 2
Flags: W
HStem: 571 155<844.006 1042.16> 762 155<454.852 653.076>
DStem2: 740 853 756 637 0.786085 -0.618118<-93.4723 247.7>
LayerCount: 2
Fore
SplineSet
1129 883 m 1,0,-1
 1212 847 l 1,1,2
 1080 571 1080 571 920 571 c 0,3,4
 840 571 840 571 756 637 c 2,5,-1
 639 729 l 2,6,7
 597 762 597 762 548 762 c 0,8,9
 444 762 444 762 370 605 c 1,10,-1
 286 641 l 1,11,12
 418 917 418 917 573 917 c 0,13,14
 659 917 659 917 740 853 c 2,15,-1
 849 767 l 2,16,17
 901 726 901 726 957 726 c 0,18,19
 1055 726 1055 726 1129 883 c 1,0,-1
EndSplineSet
Validated: 1
EndChar

StartChar: exclamdown
Encoding: 161 161 99
Width: 740
GlyphClass: 2
Flags: W
HStem: -410 21G<163 406.129> 865 255<502.861 657.968>
VStem: 452 258<917.016 1069.42>
LayerCount: 2
Fore
SplineSet
403 -410 m 1,0,-1
 163 -410 l 1,1,-1
 474 747 l 1,2,-1
 584 747 l 1,3,-1
 403 -410 l 1,0,-1
608 1120 m 0,4,5
 661 1120 661 1120 689 1082 c 0,6,7
 710 1054 710 1054 710 1019 c 0,8,9
 710 1006 710 1006 707 992 c 0,10,11
 697 943 697 943 651 903 c 24,12,13
 608 865 608 865 554 865 c 0,14,15
 502 865 502 865 473 902 c 0,16,17
 452 930 452 930 452 964 c 0,18,19
 452 977 452 977 455 992 c 0,20,21
 466 1045 466 1045 511 1083 c 24,22,23
 557 1120 557 1120 608 1120 c 0,4,5
EndSplineSet
Validated: 1
EndChar

StartChar: cent
Encoding: 162 162 100
Width: 1201
GlyphClass: 2
Flags: W
HStem: -20 100<493.684 617> 1020 100<960 1084.32>
VStem: 187 204<183.696 579.943> 596 100<-120 -20> 881 100<1120 1220>
DStem2: 596 -120 696 -120 0.207912 0.978148<20.7912 102.181 237.514 1153.25 1288.58 1369.97>
LayerCount: 2
Fore
SplineSet
593 -20 m 0,0,1
 368 -20 368 -20 255 133 c 0,2,3
 187 225 187 225 187 353 c 0,4,5
 187 411 187 411 201 477 c 0,6,7
 257 742 257 742 499 939 c 0,8,9
 666 1076 666 1076 857 1109 c 1,10,-1
 881 1220 l 1,11,-1
 981 1220 l 1,12,-1
 960 1120 l 1,13,14
 973 1120 973 1120 985 1120 c 0,15,16
 1210 1120 1210 1120 1323 967 c 1,17,-1
 1158 890 l 1,18,19
 1092 1020 1092 1020 938 1020 c 1,20,-1
 741 92 l 1,21,22
 860 121 860 121 962 222 c 0,23,24
 1019 278 1019 278 1061 341 c 1,25,-1
 1174 248 l 1,26,27
 1130 203 1130 203 1079 161 c 0,28,29
 913 24 913 24 720 -9 c 1,30,-1
 696 -120 l 1,31,-1
 596 -120 l 1,32,-1
 617 -20 l 1,33,34
 605 -20 605 -20 593 -20 c 0,0,1
639 80 m 1,35,-1
 836 1008 l 1,36,37
 717 979 717 979 616 878 c 0,38,39
 454 719 454 719 407 497 c 0,40,41
 391 420 391 420 391 356 c 0,42,43
 391 264 391 264 425 201 c 0,44,45
 489 81 489 81 639 80 c 1,35,-1
EndSplineSet
Validated: 1
EndChar

StartChar: sterling
Encoding: 163 163 101
Width: 1189
GlyphClass: 2
Flags: W
HStem: 0 120<126 226 426 1028> 767 100<284 363 584 1015> 1430 100<932.635 1275.46>
DStem2: 200.493 0 400.493 0 0.207912 0.978148<164.263 784.026 927.79 1164.26>
LayerCount: 2
Fore
SplineSet
100 0 m 1,0,-1
 126 120 l 1,1,-1
 226 120 l 1,2,-1
 363 767 l 1,3,-1
 263 767 l 1,4,-1
 284 867 l 1,5,-1
 384 867 l 1,6,-1
 389 887 l 2,7,8
 463 1182 463 1182 680 1357 c 0,9,10
 895 1530 895 1530 1172 1530 c 0,11,12
 1308 1530 1308 1530 1403 1475 c 1,13,-1
 1298 1366 l 1,14,15
 1235 1430 1235 1430 1133 1430 c 0,16,17
 942 1430 942 1430 793.5 1292 c 128,-1,18
 645 1154 645 1154 584 867 c 1,19,-1
 1036 867 l 1,20,-1
 1015 767 l 1,21,-1
 563 767 l 1,22,-1
 426 120 l 1,23,-1
 1054 120 l 1,24,-1
 1028 0 l 1,25,-1
 100 0 l 1,0,-1
EndSplineSet
Validated: 1
EndChar

StartChar: currency
Encoding: 164 164 102
Width: 1474
GlyphClass: 2
Flags: W
HStem: 180 100<592.39 933.731> 1220 100<857.243 1199.7>
VStem: 295 203<382.832 778.906> 1294 204<721.976 1120.08>
DStem2: 208 274 292 168 0.771483 0.63625<0 170.953 1495.34 1675.95> 541 1342 413 1236 0.618666 -0.785654<4.09011 204.938 1165.49 1359.38>
LayerCount: 2
Fore
SplineSet
740 280 m 0,0,1
 927 280 927 280 1070 422 c 0,2,3
 1232 581 1232 581 1279 803 c 0,4,5
 1294 876 1294 876 1294 939 c 0,6,7
 1294 1031 1294 1031 1261 1099 c 0,8,9
 1202 1220 1202 1220 1053 1220 c 0,10,11
 866 1220 866 1220 723 1078 c 0,12,13
 561 919 561 919 514 697 c 0,14,15
 498 623 498 623 498 561 c 0,16,17
 498 469 498 469 532 401 c 0,18,19
 592 280 592 280 740 280 c 0,0,1
413 1236 m 1,20,-1
 541 1342 l 1,21,-1
 666 1184 l 1,22,23
 863 1320 863 1320 1093 1320 c 0,24,25
 1264 1320 1264 1320 1370 1232 c 1,26,-1
 1503 1342 l 1,27,-1
 1587 1236 l 1,28,-1
 1455 1127 l 1,29,30
 1498 1048 1498 1048 1498 947 c 0,31,32
 1498 889 1498 889 1484 823 c 0,33,34
 1437 602 1437 602 1261 428 c 1,35,-1
 1382 274 l 1,36,-1
 1254 168 l 1,37,-1
 1133 321 l 1,38,39
 932 180 932 180 700 180 c 0,40,41
 525 180 525 180 418 272 c 1,42,-1
 292 168 l 1,43,-1
 208 274 l 1,44,-1
 334 378 l 1,45,46
 295 455 295 455 295 552 c 0,47,48
 295 611 295 611 309 677 c 0,49,50
 357 902 357 902 537 1078 c 1,51,-1
 413 1236 l 1,20,-1
EndSplineSet
Validated: 1
EndChar

StartChar: yen
Encoding: 165 165 103
Width: 1372
GlyphClass: 2
Flags: W
HStem: 0 21G<573 777.245> 278 100<331 632 853 1180> 488 100<376 609 991 1225> 1490 20G<326 536.03 1517.9 1688>
VStem: 326 204<1306 1510> 573 200<0 200> 1533 155<1355 1510>
DStem2: 530 1510 326 1510 0.292796 -0.956175<0 904.724> 837 588 991 588 0.603029 0.797719<92.8665 1155.21>
LayerCount: 2
Fore
SplineSet
573 0 m 1,0,-1
 632 278 l 1,1,-1
 310 278 l 1,2,-1
 331 378 l 1,3,-1
 653 378 l 1,4,-1
 661 416 l 1,5,-1
 640 488 l 1,6,-1
 355 488 l 1,7,-1
 376 588 l 1,8,-1
 609 588 l 1,9,-1
 326 1510 l 1,10,-1
 530 1510 l 1,11,-1
 808 588 l 1,12,-1
 837 588 l 1,13,-1
 1533 1510 l 1,14,-1
 1688 1510 l 1,15,-1
 991 588 l 1,16,-1
 1246 588 l 1,17,-1
 1225 488 l 1,18,-1
 916 488 l 1,19,-1
 861 416 l 1,20,-1
 853 378 l 1,21,-1
 1201 378 l 1,22,-1
 1180 278 l 1,23,-1
 832 278 l 1,24,-1
 773 0 l 1,25,-1
 573 0 l 1,0,-1
EndSplineSet
Validated: 19457
EndChar

StartChar: brokenbar
Encoding: 166 166 104
Width: 680
GlyphClass: 2
Flags: W
VStem: 222 180<-130 50> 382 180<442 622> 439 180<887 1067> 599 180<1460 1640>
DStem2: 222 -130 402 -130 0.207912 0.978148<37.4241 768.833 1077.32 1809.7>
LayerCount: 2
Fore
SplineSet
402 -130 m 1,0,-1
 222 -130 l 1,1,-1
 382 622 l 1,2,-1
 562 622 l 1,3,-1
 402 -130 l 1,0,-1
599 1640 m 1,4,-1
 779 1640 l 1,5,-1
 619 887 l 1,6,-1
 439 887 l 1,7,-1
 599 1640 l 1,4,-1
EndSplineSet
Validated: 1
EndChar

StartChar: section
Encoding: 167 167 105
Width: 1070
GlyphClass: 2
Flags: W
HStem: -20 100<404.394 656.147> 1430 100<734.853 986.606>
VStem: 306 173<640.504 863.889> 487 171<1163.96 1345.58> 733 171<164.423 346.037> 912 173<646.111 869.496>
DStem2: 545 625 456 474 0.882692 -0.469952<-95.1991 327.561> 935 1036 630 1000 0.882692 -0.469952<-335.157 87.6023>
LayerCount: 2
Fore
SplineSet
494 -20 m 0,0,1
 341 -20 341 -20 259 91 c 1,2,-1
 378 167 l 1,3,4
 415 80 415 80 511 80 c 0,5,6
 605 80 605 80 666 132 c 0,7,8
 720 178 720 178 730 230 c 0,9,10
 733 245 733 245 733 259 c 0,11,12
 733 326 733 326 666 362 c 2,13,-1
 456 474 l 2,14,15
 306 554 306 554 306 702 c 0,16,17
 306 723 306 723 309 746 c 0,18,19
 331 898 331 898 493 1016 c 1,20,-1
 579 944 l 1,21,22
 503 876 503 876 484 784 c 0,23,24
 479 760 479 760 479 739 c 0,25,26
 479 660 479 660 545 625 c 2,27,-1
 761 510 l 2,28,29
 904 434 904 434 904 311 c 0,30,31
 904 298 904 298 902 284 c 0,32,33
 886 146 886 146 747 53 c 0,34,35
 637 -20 637 -20 494 -20 c 0,0,1
897 1530 m 0,36,37
 1050 1530 1050 1530 1132 1419 c 1,38,-1
 1013 1343 l 1,39,40
 976 1430 976 1430 880 1430 c 0,41,42
 786 1430 786 1430 725 1378 c 0,43,44
 671 1332 671 1332 661 1280 c 0,45,46
 658 1265 658 1265 658 1251 c 0,47,48
 658 1184 658 1184 725 1148 c 2,49,-1
 935 1036 l 2,50,51
 1085 956 1085 956 1085 808 c 0,52,53
 1085 787 1085 787 1082 764 c 0,54,55
 1060 612 1060 612 898 494 c 1,56,-1
 812 566 l 1,57,58
 888 634 888 634 907 726 c 0,59,60
 912 750 912 750 912 771 c 0,61,62
 912 850 912 850 846 885 c 2,63,-1
 630 1000 l 2,64,65
 487 1076 487 1076 487 1199 c 0,66,67
 487 1212 487 1212 489 1226 c 0,68,69
 505 1364 505 1364 644 1457 c 0,70,71
 754 1530 754 1530 897 1530 c 0,36,37
EndSplineSet
Validated: 1
EndChar

StartChar: dieresis
Encoding: 168 168 106
Width: 576
GlyphClass: 2
Flags: W
HStem: 1233 217<368.77 514.596 630.922 776.926>
VStem: 333 218<1269.37 1413.95> 595 218<1268.94 1413.72>
LayerCount: 2
Fore
SplineSet
727 1450 m 0,0,1
 770 1450 770 1450 796 1418 c 0,2,3
 813 1395 813 1395 813 1366 c 0,4,5
 813 1355 813 1355 811 1343 c 0,6,7
 801 1296 801 1296 764 1265 c 0,8,9
 725 1233 725 1233 680.5 1233 c 128,-1,10
 636 1233 636 1233 612 1265 c 0,11,12
 595 1289 595 1289 595 1319 c 0,13,14
 595 1330 595 1330 597 1342 c 0,15,16
 606 1384 606 1384 644 1418 c 24,17,18
 681 1450 681 1450 727 1450 c 0,0,1
465 1450 m 0,19,20
 508 1450 508 1450 534 1418 c 0,21,22
 551 1395 551 1395 551 1366 c 0,23,24
 551 1355 551 1355 549 1343 c 8,25,26
 539 1297 539 1297 501.5 1265 c 128,-1,27
 464 1233 464 1233 419 1233 c 0,28,29
 373 1233 373 1233 350 1265 c 0,30,31
 333 1288 333 1288 333 1318 c 0,32,33
 333 1329 333 1329 335 1342 c 0,34,35
 344 1386 344 1386 382 1418 c 0,36,37
 419 1450 419 1450 465 1450 c 0,19,20
EndSplineSet
Validated: 1
EndChar

StartChar: copyright
Encoding: 169 169 107
Width: 1401
GlyphClass: 2
Flags: W
HStem: 386 55<638.94 958.125> 570 72<712.495 961.656> 1283 71<881.246 1124.72> 1475 55<850.625 1176.4>
VStem: 338 61<667.677 1011.09> 490 152<703.083 1017.66> 1407 62<894.009 1241.74>
LayerCount: 2
Fore
SplineSet
1044 1354 m 128,-1,1
 1224 1354 1224 1354 1305 1247 c 1,2,-1
 1178 1185 l 1,3,4
 1127 1283 1127 1283 1015 1283 c 0,5,6
 906 1283 906 1283 811 1198 c 24,7,8
 686 1086 686 1086 651 921 c 0,9,10
 642 880 642 880 642 844 c 0,11,12
 642 777 642 777 672 724 c 0,13,14
 718 642 718 642 825 642 c 0,15,16
 991 642 991 642 1113 823 c 1,17,-1
 1200 748 l 1,18,19
 1032 570 1032 570 791 570 c 0,20,21
 615 570 615 570 542 670 c 0,22,23
 490 739 490 739 490 831 c 0,24,25
 490 868 490 868 499 909 c 0,26,27
 543 1110 543 1110 712 1239 c 0,28,0
 864 1354 864 1354 1044 1354 c 128,-1,1
1026 1530 m 0,29,30
 1268 1530 1268 1530 1387 1357 c 0,31,32
 1469 1238 1469 1238 1469 1087 c 0,33,34
 1469 1023 1469 1023 1454 953 c 0,35,36
 1403 715 1403 715 1207 549 c 0,37,38
 1016 386 1016 386 781 386 c 0,39,40
 558 386 558 386 428 549 c 0,41,42
 338 662 338 662 338 818 c 0,43,44
 338 882 338 882 353 953 c 0,45,46
 405 1197 405 1197 598 1362 c 0,47,48
 794 1530 794 1530 1026 1530 c 0,29,30
1013 1475 m 0,49,50
 817 1475 817 1475 640 1330 c 0,51,52
 462 1184 462 1184 413 953 c 0,53,54
 399 885 399 885 399 825 c 0,55,56
 399 685 399 685 476 588 c 0,57,58
 592 441 592 441 795 441 c 0,59,60
 992 441 992 441 1173 591 c 0,61,62
 1347 736 1347 736 1393 953 c 0,63,64
 1407 1018 1407 1018 1407 1078 c 0,65,66
 1407 1218 1407 1218 1331 1327 c 0,67,68
 1229 1475 1229 1475 1013 1475 c 0,49,50
EndSplineSet
Validated: 1
EndChar

StartChar: ordfeminine
Encoding: 170 170 108
Width: 652
VWidth: 1299
GlyphClass: 2
Flags: W
HStem: 787 120<243 769> 969 55<492.119 628.984> 1489 61<602.268 752.998>
VStem: 305 141<1067.76 1330.52> 680 130<979 1109> 765 128<1278.28 1448.5>
DStem2: 639.189 787 769.189 787 0.207912 0.978148<223.318 630.742>
LayerCount: 2
Fore
SplineSet
243 907 m 1,0,-1
 795 907 l 1,1,-1
 769 787 l 1,2,-1
 217 787 l 1,3,-1
 243 907 l 1,0,-1
717 1550 m 0,4,5
 816 1550 816 1550 862 1493 c 0,6,7
 893 1455 893 1455 893 1397 c 0,8,9
 893 1371 893 1371 887 1340 c 2,10,-1
 810 979 l 1,11,-1
 680 979 l 1,12,-1
 757 1339 l 2,13,14
 765 1377 765 1377 765 1406 c 0,15,16
 765 1433 765 1433 758 1450 c 0,17,18
 743 1489 743 1489 695 1489 c 0,19,20
 624 1489 624 1489 556 1422 c 24,21,22
 476 1342 476 1342 454 1240 c 0,23,24
 446 1200 446 1200 446 1167 c 0,25,26
 446 1116 446 1116 466 1082 c 0,27,28
 500 1024 500 1024 571 1024 c 0,29,30
 609 1024 609 1024 657 1040 c 1,31,-1
 668 1025 l 1,32,33
 609 969 609 969 524 969 c 0,34,35
 397 969 397 969 342 1046 c 0,36,37
 305 1097 305 1097 305 1168 c 0,38,39
 305 1201 305 1201 313 1238 c 0,40,41
 338 1356 338 1356 458 1452 c 0,42,43
 579 1550 579 1550 717 1550 c 0,4,5
EndSplineSet
Validated: 1
EndChar

StartChar: guillemotleft
Encoding: 171 171 109
Width: 1140
GlyphClass: 2
Flags: W
DStem2: 386 777 291 663 0.673309 -0.739361<20.3228 383.626> 330 845 386 777 0.800207 0.599723<4.03042 476.431> 786 777 691 663 0.673309 -0.739361<20.3228 383.626> 730 845 786 777 0.800207 0.599723<4.03042 476.431>
LayerCount: 2
Fore
SplineSet
730 845 m 1,0,-1
 1193 1192 l 1,1,-1
 1165 1059 l 1,2,-1
 786 777 l 1,3,-1
 1045 494 l 1,4,-1
 1007 316 l 1,5,-1
 691 663 l 1,6,-1
 730 845 l 1,0,-1
330 845 m 1,7,-1
 793 1192 l 1,8,-1
 765 1059 l 1,9,-1
 386 777 l 1,10,-1
 645 494 l 1,11,-1
 607 316 l 1,12,-1
 291 663 l 1,13,-1
 330 845 l 1,7,-1
EndSplineSet
Validated: 1
EndChar

StartChar: logicalnot
Encoding: 172 172 110
Width: 1180
GlyphClass: 2
Flags: W
HStem: 680 150<326 1055>
VStem: 1000 120<423 543>
DStem2: 1000 423 1120 423 0.207912 0.978148<24.9494 262.819>
LayerCount: 2
Fore
SplineSet
326 830 m 1,0,-1
 1206 830 l 1,1,-1
 1120 423 l 1,2,-1
 1000 423 l 1,3,-1
 1055 680 l 1,4,-1
 295 680 l 1,5,-1
 326 830 l 1,0,-1
EndSplineSet
Validated: 1
EndChar

StartChar: uni00AD
Encoding: 173 173 111
Width: 1180
GlyphClass: 2
Flags: W
HStem: 680 150<326 1175>
LayerCount: 2
Fore
SplineSet
326 830 m 1,0,-1
 1206 830 l 1,1,-1
 1175 680 l 1,2,-1
 295 680 l 1,3,-1
 326 830 l 1,0,-1
EndSplineSet
Validated: 1
EndChar

StartChar: registered
Encoding: 174 174 112
Width: 1401
GlyphClass: 2
Flags: W
HStem: 386 55<638.94 957.692> 1275 71<897.887 1103.11> 1475 55<850.625 1176.4>
VStem: 338 61<667.677 1011.09> 512 140<579 719> 1135 150<983.123 1238.05> 1407 62<894.672 1241.74>
DStem2: 470.977 386 610.977 386 0.207912 0.978148<226.419 850.158 911.302 981.441>
LayerCount: 2
Fore
SplineSet
1013 1475 m 0,0,1
 817 1475 817 1475 640 1330 c 0,2,3
 462 1184 462 1184 413 953 c 0,4,5
 399 885 399 885 399 825 c 0,6,7
 399 685 399 685 476 588 c 0,8,9
 592 441 592 441 795 441 c 0,10,11
 984 441 984 441 1158 579 c 1,12,-1
 989 579 l 1,13,-1
 718 817 l 1,14,-1
 740 838 l 1,15,16
 784 814 784 814 861 814 c 128,-1,17
 938 814 938 814 1010 877 c 0,18,19
 1099 954 1099 954 1129 1094 c 0,20,21
 1135 1124 1135 1124 1135 1149 c 0,22,23
 1135 1196 1135 1196 1114 1227 c 0,24,25
 1081 1275 1081 1275 1006.5 1275 c 128,-1,26
 932 1275 932 1275 855 1209 c 0,27,28
 770 1135 770 1135 746 1021 c 2,29,-1
 652 579 l 1,30,-1
 512 579 l 1,31,-1
 675 1346 l 1,32,-1
 815 1346 l 1,33,-1
 794 1249 l 1,34,35
 907 1354 907 1354 1045 1354 c 0,36,37
 1175 1354 1175 1354 1239 1280 c 0,38,39
 1285 1227 1285 1227 1285 1149 c 0,40,41
 1285 1126 1285 1126 1281 1101 c 0,42,43
 1254 929 1254 929 1101 833 c 0,44,45
 1040 793 1040 793 977 774 c 1,46,-1
 1180 597 l 1,47,48
 1348 741 1348 741 1393 953 c 0,49,50
 1407 1018 1407 1018 1407 1078 c 0,51,52
 1407 1218 1407 1218 1331 1327 c 0,53,54
 1229 1475 1229 1475 1013 1475 c 0,0,1
1026 1530 m 0,55,56
 1268 1530 1268 1530 1387 1357 c 0,57,58
 1469 1238 1469 1238 1469 1087 c 0,59,60
 1469 1023 1469 1023 1454 953 c 0,61,62
 1403 715 1403 715 1207 549 c 0,63,64
 1016 386 1016 386 781 386 c 0,65,66
 558 386 558 386 428 549 c 0,67,68
 338 662 338 662 338 818 c 0,69,70
 338 882 338 882 353 953 c 0,71,72
 405 1197 405 1197 598 1362 c 0,73,74
 794 1530 794 1530 1026 1530 c 0,55,56
EndSplineSet
Validated: 1
EndChar

StartChar: macron
Encoding: 175 175 113
Width: 620
GlyphClass: 2
Flags: W
HStem: 1280 120<348 842>
VStem: 322 546
LayerCount: 2
Fore
SplineSet
348 1400 m 1,0,-1
 868 1400 l 1,1,-1
 842 1280 l 1,2,-1
 322 1280 l 1,3,-1
 348 1400 l 1,0,-1
EndSplineSet
Validated: 1
EndChar

StartChar: degree
Encoding: 176 176 114
Width: 730
GlyphClass: 2
Flags: W
HStem: 924 93<467.396 680.77> 1457 93<574.811 790.004>
VStem: 297 144<1074.94 1300.09> 815 144<1177.1 1399.06>
LayerCount: 2
Fore
SplineSet
736 1550 m 0,0,1
 859 1550 859 1550 921 1466 c 0,2,3
 959 1414 959 1414 959 1344 c 0,4,5
 959 1312 959 1312 951 1277 c 0,6,7
 920 1131 920 1131 788 1024 c 0,8,9
 664 924 664 924 519 924 c 0,10,11
 397 924 397 924 335 1008 c 0,12,13
 297 1060 297 1060 297 1131 c 0,14,15
 297 1162 297 1162 304 1197 c 0,16,17
 335 1343 335 1343 468 1450 c 0,18,19
 592 1550 592 1550 736 1550 c 0,0,1
701 1457 m 0,20,21
 616 1457 616 1457 547 1390 c 0,22,23
 470 1316 470 1316 449 1212 c 0,24,25
 441 1176 441 1176 441 1147 c 0,26,27
 441 1104 441 1104 458 1074 c 0,28,29
 489 1017 489 1017 555 1017 c 0,30,31
 640 1017 640 1017 708 1084 c 0,32,33
 785 1158 785 1158 807 1262 c 0,34,35
 815 1298 815 1298 815 1327 c 0,36,37
 815 1370 815 1370 798 1400 c 0,38,39
 767 1457 767 1457 701 1457 c 0,20,21
EndSplineSet
Validated: 1
EndChar

StartChar: plusminus
Encoding: 177 177 115
Width: 1181
GlyphClass: 2
Flags: W
HStem: 215 150<228 1076> 783 150<349 682 864 1197>
VStem: 605 150<418 568> 792 150<1148 1298>
DStem2: 561.851 215 711.851 215 0.207912 0.978148<238.722 580.568 765.13 1107.18>
LayerCount: 2
Fore
SplineSet
228 365 m 1,0,-1
 1108 365 l 1,1,-1
 1076 215 l 1,2,-1
 196 215 l 1,3,-1
 228 365 l 1,0,-1
792 1298 m 1,4,-1
 942 1298 l 1,5,-1
 864 933 l 1,6,-1
 1229 933 l 1,7,-1
 1197 783 l 1,8,-1
 832 783 l 1,9,-1
 755 418 l 1,10,-1
 605 418 l 1,11,-1
 682 783 l 1,12,-1
 317 783 l 1,13,-1
 349 933 l 1,14,-1
 714 933 l 1,15,-1
 792 1298 l 1,4,-1
EndSplineSet
Validated: 1
EndChar

StartChar: uni00B2
Encoding: 178 178 116
Width: 677
VWidth: 1406
GlyphClass: 2
Flags: W
HStem: 783 71<385 793> 1489 71<543.442 727.322>
VStem: 755 153<1225.97 1455.72>
LayerCount: 2
Fore
SplineSet
793 783 m 1,0,-1
 216 783 l 1,1,-1
 231 850 l 1,2,3
 509 995 509 995 650 1146 c 0,4,5
 730 1233 730 1233 748 1314 c 0,6,7
 755 1344 755 1344 755 1370 c 0,8,9
 755 1413 755 1413 737 1442 c 0,10,11
 707 1489 707 1489 647 1489 c 0,12,13
 580 1489 580 1489 521 1437 c 0,14,15
 473 1396 473 1396 434 1322 c 1,16,-1
 351 1372 l 1,17,18
 368 1397 368 1397 405 1434 c 0,19,20
 530 1560 530 1560 691 1560 c 0,21,22
 810 1560 810 1560 867 1487 c 0,23,24
 908 1435 908 1435 908 1367 c 0,25,26
 908 1342 908 1342 902 1315 c 0,27,28
 879 1206 879 1206 778 1112 c 0,29,30
 618 964 618 964 385 854 c 1,31,-1
 809 854 l 1,32,-1
 793 783 l 1,0,-1
EndSplineSet
Validated: 1
EndChar

StartChar: uni00B3
Encoding: 179 179 117
Width: 713
VWidth: 1401
GlyphClass: 2
Flags: W
HStem: 775 72<402.198 611.688> 1239 73<600 708.927> 1489 71<622.848 743.838>
VStem: 743 154<975.458 1207.29 1351.54 1473.59>
LayerCount: 2
Fore
SplineSet
733 1560 m 0,0,1
 815 1560 815 1560 857 1516 c 16,2,3
 886 1485 886 1485 886 1442 c 0,4,5
 886 1432 886 1432 885 1422 c 0,6,7
 872 1337 872 1337 765 1294 c 1,8,9
 897 1252 897 1252 897 1131 c 0,10,11
 897 1105 897 1105 891 1074 c 0,12,13
 866 952 866 952 748 861 c 0,14,15
 636 775 636 775 492 775 c 0,16,17
 323 775 323 775 240 892 c 1,18,-1
 358 953 l 1,19,20
 394 847 394 847 499 847 c 0,21,22
 577 847 577 847 647 910 c 0,23,24
 716 973 716 973 735 1060 c 0,25,26
 743 1096 743 1096 743 1124 c 0,27,28
 743 1164 743 1164 728 1191 c 0,29,30
 701 1239 701 1239 648 1239 c 0,31,32
 620 1239 620 1239 583 1233 c 1,33,-1
 600 1312 l 1,34,35
 676 1312 676 1312 710 1346 c 0,36,37
 738 1374 738 1374 747 1414 c 0,38,39
 750 1427 750 1427 750 1438 c 0,40,41
 750 1461 750 1461 740 1474 c 0,42,43
 729 1489 729 1489 703 1489 c 0,44,45
 640 1489 640 1489 576 1403 c 1,46,-1
 503 1455 l 1,47,48
 608 1560 608 1560 733 1560 c 0,0,1
EndSplineSet
Validated: 1
EndChar

StartChar: acute
Encoding: 180 180 118
Width: 427
GlyphClass: 2
Flags: W
HStem: 1160 370
VStem: 313 365
LayerCount: 2
Fore
SplineSet
538 1530 m 1,0,-1
 678 1414 l 1,1,-1
 409 1160 l 1,2,-1
 313 1239 l 1,3,-1
 538 1530 l 1,0,-1
EndSplineSet
Validated: 1
EndChar

StartChar: uni00B5
Encoding: 181 181 119
Width: 1362
GlyphClass: 2
Flags: W
HStem: -410 21G<113 297.265> -20 120<479.386 747.723> 0 21G<982 1166.25> 1080 20G<429.748 614 1211.75 1396>
VStem: 113 180<-410 -230> 434 180<920 1100> 982 180<0 180> 1216 180<920 1100>
DStem2: 113 -410 293 -410 0.207912 0.978148<37.4241 468.914 721.961 1543.74> 894.852 -410 1074.85 -410 0.207912 0.978148<456.584 658.442 760.824 1543.77>
LayerCount: 2
Fore
SplineSet
1162 0 m 1,0,-1
 982 0 l 1,1,-1
 1032 234 l 1,2,3
 926 116 926 116 801 49 c 0,4,5
 672 -20 672 -20 524 -20 c 0,6,7
 442 -20 442 -20 383 12 c 1,8,-1
 293 -410 l 1,9,-1
 113 -410 l 1,10,-1
 434 1100 l 1,11,-1
 614 1100 l 1,12,-1
 452 339 l 2,13,14
 442 294 442 294 442 257 c 0,15,16
 442 206 442 206 461 170 c 0,17,18
 499 100 499 100 601 100 c 0,19,20
 756 100 756 100 896 217 c 0,21,22
 1056 351 1056 351 1101 559 c 2,23,-1
 1216 1100 l 1,24,-1
 1396 1100 l 1,25,-1
 1162 0 l 1,0,-1
EndSplineSet
Validated: 1
EndChar

StartChar: paragraph
Encoding: 182 182 120
Width: 1115
GlyphClass: 2
Flags: W
HStem: 0 21G<715 784.25 850 919.252> 1454 56<1089 1159>
VStem: 715 65<0 65> 850 65<0 65>
DStem2: 715 0 780 0 0.207912 0.978148<13.5143 807.666> 850 0 915 0 0.207912 0.978148<13.5143 1486.47>
LayerCount: 2
Fore
SplineSet
915 0 m 1,0,-1
 850 0 l 1,1,-1
 1159 1454 l 1,2,-1
 1089 1454 l 1,3,-1
 780 0 l 1,4,-1
 715 0 l 1,5,-1
 883 790 l 1,6,7
 756 704 756 704 623 704 c 0,8,9
 466 704 466 704 398 815 c 0,10,11
 361 876 361 876 361 953 c 0,12,13
 361 992 361 992 370 1035 c 0,14,15
 414 1243 414 1243 588 1390 c 0,16,17
 731 1510 731 1510 904 1510 c 0,18,19
 976 1510 976 1510 1030 1481 c 1,20,-1
 1036 1510 l 1,21,-1
 1236 1510 l 1,22,-1
 915 0 l 1,0,-1
EndSplineSet
Validated: 1
EndChar

StartChar: periodcentered
Encoding: 183 183 121
Width: 352
GlyphClass: 2
Flags: W
HStem: 627 255<259.032 414.147>
VStem: 207 259<678.51 829.984>
LayerCount: 2
Fore
SplineSet
363 882 m 0,0,1
 415 882 415 882 445 845 c 0,2,3
 466 818 466 818 466 784 c 0,4,5
 466 770 466 770 463 755 c 0,6,7
 451 701 451 701 406 664 c 0,8,9
 360 627 360 627 309 627 c 0,10,11
 256 627 256 627 228 665 c 0,12,13
 207 693 207 693 207 728 c 0,14,15
 207 741 207 741 210 755 c 0,16,17
 220 804 220 804 266 844 c 24,18,19
 309 882 309 882 363 882 c 0,0,1
EndSplineSet
Validated: 1
EndChar

StartChar: cedilla
Encoding: 184 184 122
Width: 406
GlyphClass: 2
Flags: W
HStem: -430 131<-14 137.514> -68 68<102 142.694>
VStem: 88 102<-55.9358 0> 175 138<-260.814 -91.25>
LayerCount: 2
Fore
SplineSet
102 0 m 1,0,-1
 199 0 l 1,1,-1
 190 -40 l 1,2,3
 313 -71 313 -71 313 -183 c 0,4,5
 313 -202 313 -202 309 -224 c 0,6,7
 263 -430 263 -430 -41 -430 c 1,8,-1
 -14 -299 l 1,9,10
 148 -299 148 -299 172 -197 c 0,11,12
 175 -184 175 -184 175 -172 c 0,13,14
 175 -104 175 -104 88 -68 c 1,15,-1
 102 0 l 1,0,-1
EndSplineSet
Validated: 1
EndChar

StartChar: uni00B9
Encoding: 185 185 123
Width: 396
VWidth: 1401
GlyphClass: 2
Flags: W
HStem: 1479 71<379 470>
VStem: 323 140<785 925>
DStem2: 323 785 463 785 0.207912 0.978148<29.1076 709.397>
LayerCount: 2
Fore
SplineSet
379 1550 m 1,0,-1
 625 1550 l 1,1,-1
 463 785 l 1,2,-1
 323 785 l 1,3,-1
 470 1479 l 1,4,-1
 364 1479 l 1,5,-1
 379 1550 l 1,0,-1
EndSplineSet
Validated: 1
EndChar

StartChar: ordmasculine
Encoding: 186 186 124
Width: 710
VWidth: 1299
GlyphClass: 2
Flags: W
HStem: 787 120<243 827> 969 61<474.064 643.979> 1489 61<601.026 769.931>
VStem: 305 140<1085.03 1330.24> 800 140<1189.48 1453.17>
LayerCount: 2
Fore
SplineSet
243 907 m 1,0,-1
 853 907 l 1,1,-1
 827 787 l 1,2,-1
 217 787 l 1,3,-1
 243 907 l 1,0,-1
721 1550 m 24,4,5
 847 1550 847 1550 903 1474 c 0,6,7
 940 1424 940 1424 940 1353 c 0,8,9
 940 1320 940 1320 932 1282 c 0,10,11
 907 1164 907 1164 788 1067 c 0,12,13
 666 969 666 969 522 969 c 24,14,15
 397 969 397 969 341 1046 c 0,16,17
 305 1096 305 1096 305 1167 c 0,18,19
 305 1200 305 1200 313 1238 c 0,20,21
 338 1356 338 1356 458 1452 c 0,22,23
 579 1550 579 1550 721 1550 c 24,4,5
698 1489 m 0,24,25
 623 1489 623 1489 557 1424 c 24,26,27
 476 1346 476 1346 454 1242 c 0,28,29
 445 1199 445 1199 445 1163 c 0,30,31
 445 1117 445 1117 460 1084 c 0,32,33
 483 1030 483 1030 547 1030 c 0,34,35
 622 1030 622 1030 689 1095 c 24,36,37
 772 1175 772 1175 792 1278 c 0,38,39
 800 1319 800 1319 800 1353 c 0,40,41
 800 1400 800 1400 785 1435 c 0,42,43
 761 1489 761 1489 698 1489 c 0,24,25
EndSplineSet
Validated: 1
EndChar

StartChar: guillemotright
Encoding: 187 187 125
Width: 1140
GlyphClass: 2
Flags: W
DStem2: 295 449 267 316 0.800207 0.599723<0 472.401> 453 1192 415 1014 0.673309 -0.739361<106.021 469.324> 695 449 667 316 0.800207 0.599723<0 472.401> 853 1192 815 1014 0.673309 -0.739361<106.021 469.324>
LayerCount: 2
Fore
SplineSet
730 663 m 1,0,-1
 267 316 l 1,1,-1
 295 449 l 1,2,-1
 674 731 l 1,3,-1
 415 1014 l 1,4,-1
 453 1192 l 1,5,-1
 769 845 l 1,6,-1
 730 663 l 1,0,-1
1130 663 m 1,7,-1
 667 316 l 1,8,-1
 695 449 l 1,9,-1
 1074 731 l 1,10,-1
 815 1014 l 1,11,-1
 853 1192 l 1,12,-1
 1169 845 l 1,13,-1
 1130 663 l 1,7,-1
EndSplineSet
Validated: 1
EndChar

StartChar: onequarter
Encoding: 188 188 126
Width: 1426
VWidth: 1401
GlyphClass: 2
Flags: W
HStem: 0 21G<174 365.417 1086 1230.26> 146 71<867 1117> 1439 71<471 562>
VStem: 174 176<0 176> 414 140<745 885> 1086 140<0 140> 1338 176<1334 1510>
DStem2: 174 0 350 0 0.610522 0.792<107.452 1906.57> 255.645 0 395.645 0 0.207912 0.978148<790.751 1471.25> 1086 0 1226 0 0.207912 0.978148<29.1076 149.255 221.822 645.071>
LayerCount: 2
Fore
SplineSet
1086 0 m 1,0,-1
 1117 146 l 1,1,-1
 706 146 l 1,2,3
 947 503 947 503 1253 765 c 1,4,-1
 1389 765 l 1,5,-1
 1226 0 l 1,6,-1
 1086 0 l 1,0,-1
1220 631 m 1,7,8
 1015 436 1015 436 867 217 c 1,9,-1
 1132 217 l 1,10,-1
 1220 631 l 1,7,8
174 0 m 1,11,-1
 1338 1510 l 1,12,-1
 1514 1510 l 1,13,-1
 350 0 l 1,14,-1
 174 0 l 1,11,-1
471 1510 m 1,15,-1
 717 1510 l 1,16,-1
 554 745 l 1,17,-1
 414 745 l 1,18,-1
 562 1439 l 1,19,-1
 456 1439 l 1,20,-1
 471 1510 l 1,15,-1
EndSplineSet
Validated: 1
EndChar

StartChar: onehalf
Encoding: 189 189 127
Width: 1576
VWidth: 1401
GlyphClass: 2
Flags: W
HStem: 0 71<1018 1426> 706 71<1176.44 1360.32> 1439 71<471 562>
VStem: 174 176<0 176> 414 140<745 885> 1338 176<1334 1510> 1388 153<442.973 672.725>
DStem2: 174 0 350 0 0.610522 0.792<107.452 1906.57> 255.645 0 395.645 0 0.207912 0.978148<790.751 1471.25>
LayerCount: 2
Fore
SplineSet
1426 0 m 1,0,-1
 849 0 l 1,1,-1
 864 67 l 1,2,3
 1142 212 1142 212 1283 363 c 0,4,5
 1363 450 1363 450 1381 531 c 0,6,7
 1388 561 1388 561 1388 587 c 0,8,9
 1388 630 1388 630 1370 659 c 0,10,11
 1340 706 1340 706 1280 706 c 0,12,13
 1213 706 1213 706 1154 654 c 0,14,15
 1106 613 1106 613 1067 539 c 1,16,-1
 984 589 l 1,17,18
 1001 614 1001 614 1038 651 c 0,19,20
 1163 777 1163 777 1324 777 c 0,21,22
 1443 777 1443 777 1500 704 c 0,23,24
 1541 652 1541 652 1541 584 c 0,25,26
 1541 559 1541 559 1535 532 c 0,27,28
 1512 423 1512 423 1411 329 c 0,29,30
 1251 181 1251 181 1018 71 c 1,31,-1
 1442 71 l 1,32,-1
 1426 0 l 1,0,-1
174 0 m 1,33,-1
 1338 1510 l 1,34,-1
 1514 1510 l 1,35,-1
 350 0 l 1,36,-1
 174 0 l 1,33,-1
471 1510 m 1,37,-1
 717 1510 l 1,38,-1
 554 745 l 1,39,-1
 414 745 l 1,40,-1
 562 1439 l 1,41,-1
 456 1439 l 1,42,-1
 471 1510 l 1,37,-1
EndSplineSet
Validated: 1
EndChar

StartChar: threequarters
Encoding: 190 190 128
Width: 1648
VWidth: 1401
GlyphClass: 2
Flags: W
HStem: 0 21G<396 587.417 1308 1452.26> 146 71<1089 1339> 735 72<443.198 652.688> 1199 73<641 749.927> 1449 71<663.848 784.838>
VStem: 396 176<0 176> 784 154<935.458 1167.29 1311.54 1433.59> 1308 140<0 140> 1560 176<1334 1510>
DStem2: 396 0 572 0 0.610522 0.792<107.452 1906.57> 1308 0 1448 0 0.207912 0.978148<29.1076 149.255 221.822 645.071>
LayerCount: 2
Fore
SplineSet
774 1520 m 0,0,1
 856 1520 856 1520 898 1476 c 16,2,3
 927 1445 927 1445 927 1402 c 0,4,5
 927 1392 927 1392 926 1382 c 0,6,7
 913 1297 913 1297 806 1254 c 1,8,9
 938 1212 938 1212 938 1091 c 0,10,11
 938 1065 938 1065 932 1034 c 0,12,13
 907 912 907 912 789 821 c 0,14,15
 677 735 677 735 533 735 c 0,16,17
 364 735 364 735 281 852 c 1,18,-1
 399 913 l 1,19,20
 435 807 435 807 540 807 c 0,21,22
 618 807 618 807 688 870 c 0,23,24
 757 933 757 933 776 1020 c 0,25,26
 784 1056 784 1056 784 1084 c 0,27,28
 784 1124 784 1124 769 1151 c 0,29,30
 742 1199 742 1199 689 1199 c 0,31,32
 661 1199 661 1199 624 1193 c 1,33,-1
 641 1272 l 1,34,35
 717 1272 717 1272 751 1306 c 0,36,37
 779 1334 779 1334 788 1374 c 0,38,39
 791 1387 791 1387 791 1398 c 0,40,41
 791 1421 791 1421 781 1434 c 0,42,43
 770 1449 770 1449 744 1449 c 0,44,45
 681 1449 681 1449 617 1363 c 1,46,-1
 544 1415 l 1,47,48
 649 1520 649 1520 774 1520 c 0,0,1
1308 0 m 1,49,-1
 1339 146 l 1,50,-1
 928 146 l 1,51,52
 1169 503 1169 503 1475 765 c 1,53,-1
 1611 765 l 1,54,-1
 1448 0 l 1,55,-1
 1308 0 l 1,49,-1
1442 631 m 1,56,57
 1237 436 1237 436 1089 217 c 1,58,-1
 1354 217 l 1,59,-1
 1442 631 l 1,56,57
396 0 m 1,60,-1
 1560 1510 l 1,61,-1
 1736 1510 l 1,62,-1
 572 0 l 1,63,-1
 396 0 l 1,60,-1
EndSplineSet
Validated: 1
EndChar

StartChar: questiondown
Encoding: 191 191 129
Width: 1344
GlyphClass: 2
Flags: W
HStem: -430 120<461.289 784.486> -25 20G<1047 1108.5> 865 255<849.861 1004.97>
VStem: 146 226<-218.029 132.916> 799 258<917.016 1069.42>
LayerCount: 2
Fore
SplineSet
955 1120 m 0,0,1
 1008 1120 1008 1120 1036 1082 c 0,2,3
 1057 1054 1057 1054 1057 1019 c 0,4,5
 1057 1006 1057 1006 1054 992 c 0,6,7
 1044 943 1044 943 998 903 c 24,8,9
 955 865 955 865 901 865 c 0,10,11
 849 865 849 865 820 902 c 0,12,13
 799 930 799 930 799 964 c 0,14,15
 799 977 799 977 802 992 c 0,16,17
 813 1045 813 1045 858 1083 c 24,18,19
 904 1120 904 1120 955 1120 c 0,0,1
546 -430 m 0,20,21
 327 -430 327 -430 219 -287 c 0,22,23
 146 -193 146 -193 146 -68 c 0,24,25
 146 -18 146 -18 158 37 c 0,26,27
 197 221 197 221 378 379 c 2,28,-1
 800 747 l 1,29,-1
 939 747 l 1,30,-1
 585 387 l 2,31,32
 422 221 422 221 384 40 c 0,33,34
 372 -14 372 -14 372 -61 c 0,35,36
 372 -148 372 -148 412 -212 c 0,37,38
 473 -310 473 -310 617 -310 c 0,39,40
 782 -310 782 -310 926 -194 c 0,41,42
 1018 -120 1018 -120 1076 -5 c 1,43,-1
 1180 -69 l 1,44,45
 1120 -144 1120 -144 1075 -189 c 24,46,47
 838 -430 838 -430 546 -430 c 0,20,21
EndSplineSet
Validated: 1
EndChar

StartChar: AE
Encoding: 198 198 130
Width: 2284
GlyphClass: 2
Flags: W
HStem: -20 120<1509 1793.56> 0 21G<5 163.902> 696 120<677 1149 1379 1978> 1410 120<1714.62 2165.59> 1490 20G<967.086 1203.38>
VStem: 5 146<0 146>
DStem2: 5 0 151 0 0.542444 0.840092<79.1968 907.458 1050.04 1699.67> 1199 1510 1029 1362 0.214875 -0.976642<108.014 298.931 470.246 667.045 833.664 1453.18>
LayerCount: 2
Fore
SplineSet
1149 816 m 1,0,-1
 1029 1362 l 1,1,-1
 677 816 l 1,2,-1
 1149 816 l 1,0,-1
5 0 m 1,3,-1
 980 1510 l 1,4,-1
 1199 1510 l 1,5,-1
 1263 1218 l 1,6,7
 1321 1274 1321 1274 1372 1311 c 0,8,9
 1671 1530 1671 1530 2011 1530 c 0,10,11
 2324 1530 2324 1530 2476 1320 c 1,12,-1
 2301 1236 l 1,13,14
 2202 1410 2202 1410 1956 1410 c 0,15,16
 1695 1410 1695 1410 1497 1230 c 0,17,18
 1381 1124 1381 1124 1309 1011 c 1,19,-1
 1352 816 l 1,20,-1
 2003 816 l 1,21,-1
 1978 696 l 1,22,-1
 1379 696 l 1,23,-1
 1509 101 l 1,24,25
 1530 100 1530 100 1554 100 c 0,26,27
 1818 100 1818 100 2013 280 c 0,28,29
 2090 351 2090 351 2151 431 c 1,30,-1
 2281 322 l 1,31,32
 2217 257 2217 257 2138 199 c 0,33,34
 1839 -20 1839 -20 1499 -20 c 0,35,36
 1412 -20 1412 -20 1328 0 c 1,37,-1
 1176 696 l 1,38,-1
 600 696 l 1,39,-1
 151 0 l 1,40,-1
 5 0 l 1,3,-1
EndSplineSet
Validated: 19457
EndChar

StartChar: Eth
Encoding: 208 208 131
Width: 1736
GlyphClass: 2
Flags: W
HStem: -20 87<576.635 987.453> 0 21G<200 404.255> 705 100<271 350 572 920> 1410 120<1024.76 1426.96> 1490 20G<516.745 721>
VStem: 200 200<0 200> 521 200<1310 1510> 1615 217<750.318 1220.48>
DStem2: 195.749 -20 395.749 -20 0.207912 0.978148<62.0292 741.228 885.199 1190.94 1305.1 1564.19>
LayerCount: 2
Fore
SplineSet
200 0 m 5,0,-1
 350 705 l 1,1,-1
 250 705 l 1,2,-1
 271 805 l 1,3,-1
 371 805 l 1,4,-1
 521 1510 l 1,5,-1
 721 1510 l 1,6,-1
 658 1216 l 1,7,8
 774 1359 774 1359 927 1442 c 0,9,10
 1087 1530 1087 1530 1273 1530 c 0,11,12
 1586 1530 1586 1530 1738 1320 c 0,13,14
 1832 1189 1832 1189 1832 1007 c 0,15,16
 1832 938 1832 938 1819 862 c 0,17,18
 1750 469 1750 469 1400 199 c 0,19,20
 1116 -20 1116 -20 761 -20 c 0,21,22
 554 -20 554 -20 491 119 c 1,23,-1
 501 127 l 1,24,25
 596 67 596 67 740 67 c 0,26,27
 1037 67 1037 67 1275 280 c 0,28,29
 1523 503 1523 503 1594 839 c 0,30,31
 1615 936 1615 936 1615 1017 c 0,32,33
 1615 1146 1615 1146 1563 1236 c 0,34,35
 1464 1410 1464 1410 1213 1410 c 0,36,37
 999 1410 999 1410 815 1251 c 0,38,39
 633 1093 633 1093 586 873 c 2,40,-1
 572 805 l 1,41,-1
 941 805 l 1,42,-1
 920 705 l 1,43,-1
 550 705 l 1,44,-1
 400 0 l 1,45,-1
 200 0 l 5,0,-1
EndSplineSet
Validated: 1
EndChar

StartChar: multiply
Encoding: 215 215 132
Width: 1128
GlyphClass: 2
Flags: W
HStem: 1099 20G<519.66 559.736 1035.74 1075.66>
DStem2: 306 497 389 391 0.771398 0.636353<0 402.199 571.819 974.018> 544 1119 415 1013 0.618825 -0.785529<3.43764 328.288 466.973 791.823>
LayerCount: 2
Fore
SplineSet
1060 1119 m 1,0,-1
 1143 1013 l 1,1,-1
 830 755 l 1,2,-1
 1034 497 l 1,3,-1
 905 391 l 1,4,-1
 702 649 l 1,5,-1
 389 391 l 1,6,-1
 306 497 l 1,7,-1
 618 755 l 1,8,-1
 415 1013 l 1,9,-1
 544 1119 l 1,10,-1
 747 861 l 1,11,-1
 1060 1119 l 1,0,-1
EndSplineSet
Validated: 1
EndChar

StartChar: Oslash
Encoding: 216 216 133
Width: 1759
GlyphClass: 2
Flags: W
HStem: -20 120<627.759 1080.38> 1410 120<999.615 1451.34>
VStem: 224 219<285.747 760.891> 1637 218<749.109 1224.19>
DStem2: 403 22 479 -28 0.619695 0.784843<7.85464 62.6254 233.529 1705.92 1877.45 1931.6>
LayerCount: 2
Fore
SplineSet
784 -20 m 0,0,1
 635 -20 635 -20 523 27 c 1,2,-1
 479 -28 l 1,3,-1
 403 22 l 1,4,-1
 442 71 l 1,5,6
 371 118 371 118 319 190 c 0,7,8
 224 321 224 321 224 502 c 0,9,10
 224 571 224 571 238 648 c 0,11,12
 310 1057 310 1057 657 1311 c 0,13,14
 956 1530 956 1530 1296 1530 c 0,15,16
 1444 1530 1444 1530 1556 1483 c 1,17,-1
 1600 1538 l 1,18,-1
 1676 1488 l 1,19,-1
 1638 1439 l 1,20,21
 1709 1392 1709 1392 1761 1320 c 0,22,23
 1855 1189 1855 1189 1855 1007 c 0,24,25
 1855 938 1855 938 1842 862 c 0,26,27
 1770 453 1770 453 1423 199 c 0,28,29
 1124 -20 1124 -20 784 -20 c 0,0,1
839 100 m 0,30,31
 1100 100 1100 100 1298 280 c 0,32,33
 1549 509 1549 509 1617 839 c 0,34,35
 1637 935 1637 935 1637 1016 c 0,36,37
 1637 1145 1637 1145 1586 1236 c 0,38,39
 1563 1276 1563 1276 1533 1307 c 1,40,-1
 619 149 l 1,41,42
 708 100 708 100 839 100 c 0,30,31
547 204 m 1,43,-1
 1460 1361 l 1,44,45
 1371 1410 1371 1410 1241 1410 c 0,46,47
 980 1410 980 1410 782 1230 c 0,48,49
 531 1001 531 1001 463 671 c 0,50,51
 443 575 443 575 443 494 c 0,52,53
 443 365 443 365 494 274 c 0,54,55
 517 235 517 235 547 204 c 1,43,-1
EndSplineSet
Validated: 1
EndChar

StartChar: Thorn
Encoding: 222 222 134
Width: 1535
GlyphClass: 2
Flags: W
HStem: 0 21G<200 404.275> 170 87<622.86 1004.29> 1206 134<969.838 1302.98> 1490 20G<516.748 721>
VStem: 200 200<0 200> 521 200<1310 1510> 1402 221<714.797 1104.02>
DStem2: 200 0 400 0 0.207912 0.978148<41.5823 987.151 1090.49 1543.74>
LayerCount: 2
Fore
SplineSet
200 0 m 1,0,-1
 521 1510 l 1,1,-1
 721 1510 l 1,2,-1
 618 1026 l 1,3,4
 736 1171 736 1171 877 1252 c 0,5,6
 1031 1340 1031 1340 1209 1340 c 0,7,8
 1423 1340 1423 1340 1534 1204 c 0,9,10
 1623 1095 1623 1095 1623 941 c 0,11,12
 1623 893 1623 893 1614 842 c 0,13,14
 1554 510 1554 510 1257 309 c 0,15,16
 1051 170 1051 170 822 170 c 0,17,18
 595 170 595 170 532 309 c 1,19,-1
 542 317 l 1,20,21
 637 257 637 257 801 257 c 0,22,23
 997 257 997 257 1156 398 c 0,24,25
 1334 557 1334 557 1390 828 c 0,26,27
 1402 886 1402 886 1402 937 c 0,28,29
 1402 1027 1402 1027 1364 1095 c 256,30,31
 1302 1206 1302 1206 1132 1206 c 0,32,33
 932 1206 932 1206 765 1061 c 0,34,35
 595 913 595 913 546 683 c 2,36,-1
 400 0 l 1,37,-1
 200 0 l 1,0,-1
EndSplineSet
Validated: 1
EndChar

StartChar: germandbls
Encoding: 223 223 135
Width: 1395
GlyphClass: 2
Flags: W
HStem: -20 87<520.199 834.472> 0 21G<200 384.245> 1415 115<877.189 1157.35>
VStem: 200 180<0 180> 1184 181<1159.61 1375.03> 1210 218<464.001 822.253>
DStem2: 195.749 -20 375.749 -20 0.207912 0.978148<57.8709 1212.12>
LayerCount: 2
Fore
SplineSet
200 0 m 1,0,-1
 389 887 l 2,1,2
 457 1207 457 1207 694 1389 c 24,3,4
 878 1530 878 1530 1095 1530 c 0,5,6
 1232 1530 1232 1530 1310 1446 c 0,7,8
 1365 1385 1365 1385 1365 1302 c 0,9,10
 1365 1283 1365 1283 1362 1263 c 0,11,12
 1338 1098 1338 1098 1142 1018 c 1,13,14
 1282 984 1282 984 1357 891 c 0,15,16
 1428 802 1428 802 1428 676 c 0,17,18
 1428 623 1428 623 1415 563 c 0,19,20
 1374 372 1374 372 1212 216 c 0,21,22
 967 -20 967 -20 670 -20 c 0,23,24
 526 -20 526 -20 468 83 c 1,25,-1
 477 91 l 1,26,27
 556 67 556 67 644 67 c 0,28,29
 848 67 848 67 1028 248 c 0,30,31
 1162 383 1162 383 1199 560 c 0,32,33
 1210 613 1210 613 1210 660 c 0,34,35
 1210 745 1210 745 1174 810 c 0,36,37
 1093 957 1093 957 870 967 c 1,38,-1
 872 977 l 1,39,40
 1010 1020 1010 1020 1101 1110 c 0,41,42
 1161 1169 1161 1169 1179 1255 c 0,43,44
 1184 1278 1184 1278 1184 1298 c 0,45,46
 1184 1345 1184 1345 1156 1376 c 0,47,48
 1121 1415 1121 1415 1043 1415 c 0,49,50
 906 1415 906 1415 795 1311 c 24,51,52
 624 1150 624 1150 564 867 c 2,53,-1
 380 0 l 1,54,-1
 200 0 l 1,0,-1
EndSplineSet
Validated: 1
EndChar

StartChar: ae
Encoding: 230 230 136
Width: 1881
GlyphClass: 2
Flags: W
HStem: -20 87<506.814 760.058 1191.23 1473.35> 500 100<1253 1618> 1020 100<749.26 1058.96 1435.41 1765.95>
VStem: 187 203<186.186 579.943> 1110 180<606.375 890.686>
DStem2: 940.749 -20 1120.63 -20 0.207912 0.978148<177.993 568.983 671.372 865.021>
LayerCount: 2
Fore
SplineSet
945 0 m 1,0,-1
 1096 711 l 2,1,2
 1110 778 1110 778 1110 830 c 0,3,4
 1110 889 1110 889 1092 929 c 0,5,6
 1049 1020 1049 1020 936 1020 c 0,7,8
 759 1020 759 1020 616 878 c 0,9,10
 454 719 454 719 407 497 c 0,11,12
 390 418 390 418 390 354 c 0,13,14
 390 262 390 262 425 201 c 0,15,16
 503 67 503 67 655 67 c 0,17,18
 743 67 743 67 832 91 c 1,19,-1
 839 83 l 1,20,21
 737 -20 737 -20 593 -20 c 0,22,23
 368 -20 368 -20 255 133 c 0,24,25
 187 225 187 225 187 353 c 0,26,27
 187 411 187 411 201 477 c 0,28,29
 257 742 257 742 499 939 c 0,30,31
 720 1120 720 1120 975 1120 c 0,32,33
 1153 1120 1153 1120 1229 1024 c 0,34,35
 1241 1009 1241 1009 1251 992 c 1,36,37
 1443 1120 1443 1120 1665 1120 c 0,38,39
 1890 1120 1890 1120 2003 967 c 1,40,-1
 1838 890 l 1,41,42
 1771 1020 1771 1020 1626 1020 c 0,43,44
 1441 1020 1441 1020 1288 870 c 1,45,46
 1290 851 1290 851 1290 831 c 0,47,48
 1290 776 1290 776 1276 711 c 2,49,-1
 1253 600 l 1,50,-1
 1640 600 l 1,51,-1
 1618 500 l 1,52,-1
 1231 500 l 1,53,-1
 1154 137 l 1,54,55
 1216 80 1216 80 1312 80 c 0,56,57
 1499 80 1499 80 1642 222 c 0,58,59
 1699 278 1699 278 1741 341 c 1,60,-1
 1854 248 l 1,61,62
 1810 203 1810 203 1759 161 c 0,63,64
 1540 -20 1540 -20 1273 -20 c 0,65,66
 1192 -20 1192 -20 1125 0 c 1,67,-1
 945 0 l 1,0,-1
EndSplineSet
Validated: 1
EndChar

StartChar: eth
Encoding: 240 240 137
Width: 1424
GlyphClass: 2
Flags: W
HStem: -20 100<491.083 825.3> 1020 100<753.878 946> 1430 100<930.692 984.887>
VStem: 187 204<183.624 579.943> 1255 193<669.597 1148.73>
DStem2: 894 1287 949 1216 0.760322 0.649546<0 139.164 308.197 463.091>
LayerCount: 2
Fore
SplineSet
593 -20 m 0,0,1
 368 -20 368 -20 255 133 c 0,2,3
 187 225 187 225 187 353 c 0,4,5
 187 411 187 411 201 477 c 0,6,7
 257 742 257 742 499 939 c 0,8,9
 720 1120 720 1120 985 1120 c 1,10,-1
 946 1020 l 1,11,12
 759 1020 759 1020 616 878 c 0,13,14
 454 719 454 719 407 497 c 0,15,16
 391 420 391 420 391 356 c 0,17,18
 391 264 391 264 425 201 c 0,19,20
 492 80 492 80 632 80 c 0,21,22
 817 80 817 80 962 222 c 0,23,24
 1161 417 1161 417 1235 763 c 0,25,26
 1255 855 1255 855 1255 935 c 0,27,28
 1255 1101 1255 1101 1171 1219 c 0,29,30
 1130 1276 1130 1276 1077 1321 c 1,31,-1
 949 1216 l 1,32,-1
 894 1287 l 1,33,-1
 1001 1376 l 1,34,35
 951 1407 951 1407 893 1430 c 1,36,-1
 937 1530 l 1,37,38
 1029 1504 1029 1504 1107 1464 c 1,39,-1
 1254 1584 l 1,40,-1
 1310 1513 l 1,41,-1
 1190 1415 l 1,42,43
 1273 1358 1273 1358 1325 1290 c 0,44,45
 1448 1129 1448 1129 1448 904 c 0,46,47
 1448 846 1448 846 1440 783 c 0,48,49
 1391 414 1391 414 1079 161 c 0,50,51
 856 -20 856 -20 593 -20 c 0,0,1
EndSplineSet
Validated: 1
EndChar

StartChar: divide
Encoding: 247 247 138
Width: 1180
GlyphClass: 2
Flags: W
HStem: 304 255<605.032 758.996> 680 150<326 1175> 951 255<742.032 897.139>
VStem: 553 258<355.777 506.984> 690 258<1001.58 1153.98>
CounterMasks: 1 e0
LayerCount: 2
Fore
SplineSet
326 830 m 1,0,-1
 1206 830 l 1,1,-1
 1175 680 l 1,2,-1
 295 680 l 1,3,-1
 326 830 l 1,0,-1
655 304 m 0,4,5
 602 304 602 304 574 342 c 0,6,7
 553 370 553 370 553 405 c 0,8,9
 553 418 553 418 556 432 c 0,10,11
 566 481 566 481 612 521 c 24,12,13
 655 559 655 559 709 559 c 0,14,15
 761 559 761 559 790 522 c 0,16,17
 811 494 811 494 811 460 c 0,18,19
 811 447 811 447 808 432 c 0,20,21
 797 379 797 379 751 341 c 24,22,23
 706 304 706 304 655 304 c 0,4,5
846 1206 m 0,24,25
 898 1206 898 1206 927 1169 c 0,26,27
 948 1141 948 1141 948 1107 c 0,28,29
 948 1094 948 1094 945 1079 c 0,30,31
 934 1026 934 1026 889 988 c 24,32,33
 843 951 843 951 792 951 c 0,34,35
 739 951 739 951 711 989 c 0,36,37
 690 1017 690 1017 690 1052 c 0,38,39
 690 1065 690 1065 693 1079 c 0,40,41
 703 1128 703 1128 749 1168 c 24,42,43
 792 1206 792 1206 846 1206 c 0,24,25
EndSplineSet
Validated: 1
EndChar

StartChar: oslash
Encoding: 248 248 139
Width: 1344
GlyphClass: 2
Flags: W
HStem: -20 100<503.724 826.04> 1020 100<751.712 1073.78>
VStem: 187 204<183.134 579.943> 1187 204<523.99 917.132>
DStem2: 293 -5 368 -55 0.620148 0.784484<7.28691 72.7921 234.267 1251.7 1413.17 1478.68>
LayerCount: 2
Fore
SplineSet
593 -20 m 0,0,1
 496 -20 496 -20 419 9 c 1,2,-1
 368 -55 l 1,3,-1
 293 -5 l 1,4,-1
 338 52 l 1,5,6
 291 85 291 85 255 133 c 0,7,8
 187 225 187 225 187 353 c 0,9,10
 187 411 187 411 201 477 c 0,11,12
 257 742 257 742 499 939 c 0,13,14
 720 1120 720 1120 985 1120 c 0,15,16
 1082 1120 1082 1120 1159 1091 c 1,17,-1
 1210 1155 l 1,18,-1
 1285 1105 l 1,19,-1
 1240 1048 l 1,20,21
 1287 1015 1287 1015 1323 967 c 0,22,23
 1391 876 1391 876 1391 749 c 0,24,25
 1391 690 1391 690 1376 623 c 0,26,27
 1320 358 1320 358 1079 161 c 0,28,29
 857 -20 857 -20 593 -20 c 0,0,1
632 80 m 0,30,31
 819 80 819 80 962 222 c 0,32,33
 1124 381 1124 381 1171 603 c 0,34,35
 1187 680 1187 680 1187 744 c 0,36,37
 1187 836 1187 836 1153 899 c 0,38,39
 1147 911 1147 911 1140 921 c 1,40,-1
 502 115 l 1,41,42
 557 80 557 80 632 80 c 0,30,31
438 179 m 1,43,-1
 1075 985 l 1,44,45
 1020 1020 1020 1020 946 1020 c 0,46,47
 759 1020 759 1020 616 878 c 0,48,49
 454 719 454 719 407 497 c 0,50,51
 391 420 391 420 391 356 c 0,52,53
 391 264 391 264 425 201 c 0,54,55
 431 189 431 189 438 179 c 1,43,-1
EndSplineSet
Validated: 1
EndChar

StartChar: thorn
Encoding: 254 254 140
Width: 1391
GlyphClass: 2
Flags: W
HStem: -410 21G<113 297.248> -20 87<520.199 844.361> 1012 108<822.581 1139.76> 1490 20G<516.75 701>
VStem: 113 180<-410 -230> 521 180<1330 1510> 1234 204<523.99 916.041>
DStem2: 113 -410 293 -410 0.207912 0.978148<37.4241 1237.29 1341.88 1962.87>
LayerCount: 2
Fore
SplineSet
521 1510 m 1,0,-1
 701 1510 l 1,1,-1
 564 866 l 1,2,3
 661 985 661 985 774 1051 c 0,4,5
 891 1120 891 1120 1032 1120 c 0,6,7
 1257 1120 1257 1120 1370 967 c 0,8,9
 1438 876 1438 876 1438 749 c 0,10,11
 1438 690 1438 690 1423 623 c 0,12,13
 1367 358 1367 358 1126 161 c 0,14,15
 905 -20 905 -20 670 -20 c 0,16,17
 526 -20 526 -20 468 83 c 1,18,-1
 477 91 l 1,19,20
 556 67 556 67 644 67 c 0,21,22
 851 67 851 67 1009 222 c 0,23,24
 1171 381 1171 381 1218 603 c 0,25,26
 1234 680 1234 680 1234 744 c 0,27,28
 1234 836 1234 836 1200 899 c 0,29,30
 1139 1012 1139 1012 991 1012 c 0,31,32
 851 1012 851 1012 728 912 c 0,33,34
 542 760 542 760 495 541 c 2,35,-1
 293 -410 l 1,36,-1
 113 -410 l 1,37,-1
 521 1510 l 1,0,-1
EndSplineSet
Validated: 1
EndChar

StartChar: Dcroat
Encoding: 272 272 141
Width: 1736
GlyphClass: 2
Flags: W
HStem: -20 87<576.635 987.453> 0 21G<200 404.255> 705 100<271 350 572 920> 1410 120<1024.76 1426.96> 1490 20G<516.745 721>
VStem: 200 200<0 200> 521 200<1310 1510> 1615 217<750.318 1220.48>
DStem2: 195.749 -20 395.749 -20 0.207912 0.978148<62.0292 741.228 885.199 1190.94 1305.1 1564.19>
LayerCount: 2
Fore
SplineSet
200 0 m 5,0,-1
 350 705 l 1,1,-1
 250 705 l 1,2,-1
 271 805 l 1,3,-1
 371 805 l 1,4,-1
 521 1510 l 1,5,-1
 721 1510 l 1,6,-1
 658 1216 l 1,7,8
 774 1359 774 1359 927 1442 c 0,9,10
 1087 1530 1087 1530 1273 1530 c 0,11,12
 1586 1530 1586 1530 1738 1320 c 0,13,14
 1832 1189 1832 1189 1832 1007 c 0,15,16
 1832 938 1832 938 1819 862 c 0,17,18
 1750 469 1750 469 1400 199 c 0,19,20
 1116 -20 1116 -20 761 -20 c 0,21,22
 554 -20 554 -20 491 119 c 1,23,-1
 501 127 l 1,24,25
 596 67 596 67 740 67 c 0,26,27
 1037 67 1037 67 1275 280 c 0,28,29
 1523 503 1523 503 1594 839 c 0,30,31
 1615 936 1615 936 1615 1017 c 0,32,33
 1615 1146 1615 1146 1563 1236 c 0,34,35
 1464 1410 1464 1410 1213 1410 c 0,36,37
 999 1410 999 1410 815 1251 c 0,38,39
 633 1093 633 1093 586 873 c 2,40,-1
 572 805 l 1,41,-1
 941 805 l 1,42,-1
 920 705 l 1,43,-1
 550 705 l 1,44,-1
 400 0 l 1,45,-1
 200 0 l 5,0,-1
EndSplineSet
Validated: 1
EndChar

StartChar: dcroat
Encoding: 273 273 142
Width: 1391
GlyphClass: 2
Flags: W
HStem: -20 108<485.242 801.94> 0 21G<1011 1195.26> 1033 87<780.639 1104.34> 1250 100<1008 1277 1478 1557> 1490 20G<1327.75 1512>
VStem: 187 204<184.224 579.943> 1011 180<0 180>
DStem2: 1006.75 -20 1186.75 -20 0.207912 0.978148<57.8709 259.729 364.327 1298.44 1438.04 1564.19>
LayerCount: 2
Fore
SplineSet
1191 0 m 1,0,-1
 1011 0 l 1,1,-1
 1061 234 l 1,2,3
 964 115 964 115 850 49 c 0,4,5
 733 -20 733 -20 593 -20 c 0,6,7
 368 -20 368 -20 255 133 c 0,8,9
 187 225 187 225 187 353 c 0,10,11
 187 411 187 411 201 477 c 0,12,13
 257 742 257 742 499 939 c 0,14,15
 720 1120 720 1120 955 1120 c 0,16,17
 1099 1120 1099 1120 1157 1017 c 1,18,-1
 1147 1009 l 1,19,20
 1068 1033 1068 1033 981 1033 c 0,21,22
 774 1033 774 1033 616 878 c 0,23,24
 454 719 454 719 407 497 c 0,25,26
 391 420 391 420 391 356 c 0,27,28
 391 264 391 264 425 201 c 0,29,30
 486 88 486 88 634 88 c 0,31,32
 774 88 774 88 897 188 c 0,33,34
 1083 340 1083 340 1130 559 c 2,35,-1
 1277 1250 l 1,36,-1
 987 1250 l 1,37,-1
 1008 1350 l 1,38,-1
 1298 1350 l 1,39,-1
 1332 1510 l 1,40,-1
 1512 1510 l 1,41,-1
 1478 1350 l 1,42,-1
 1578 1350 l 1,43,-1
 1557 1250 l 1,44,-1
 1457 1250 l 1,45,-1
 1191 0 l 1,0,-1
EndSplineSet
Validated: 1
EndChar

StartChar: Hbar
Encoding: 294 294 143
Width: 1572
GlyphClass: 2
Flags: W
HStem: 0 21G<200 404.253 1172 1376.26> 696 120<573 1320> 1250 100<387 466 687 1438 1659 1738> 1490 20G<516.75 721 1488.75 1693>
VStem: 200 200<0 200> 1172 200<0 200>
DStem2: 200 0 400 0 0.207912 0.978148<41.5823 753.144 875.72 1277.99 1421.75 1543.74> 1172 0 1372 0 0.207912 0.978148<41.5823 711.562 834.137 1277.99 1421.75 1543.74>
LayerCount: 2
Fore
SplineSet
200 0 m 1,0,-1
 466 1250 l 1,1,-1
 366 1250 l 1,2,-1
 387 1350 l 1,3,-1
 487 1350 l 1,4,-1
 521 1510 l 1,5,-1
 721 1510 l 1,6,-1
 687 1350 l 1,7,-1
 1459 1350 l 1,8,-1
 1493 1510 l 1,9,-1
 1693 1510 l 1,10,-1
 1659 1350 l 1,11,-1
 1759 1350 l 1,12,-1
 1738 1250 l 1,13,-1
 1638 1250 l 1,14,-1
 1372 0 l 1,15,-1
 1172 0 l 1,16,-1
 1320 696 l 1,17,-1
 548 696 l 1,18,-1
 400 0 l 1,19,-1
 200 0 l 1,0,-1
666 1250 m 1,20,-1
 573 816 l 1,21,-1
 1345 816 l 1,22,-1
 1438 1250 l 1,23,-1
 666 1250 l 1,20,-1
EndSplineSet
Validated: 1
EndChar

StartChar: hbar
Encoding: 295 295 144
Width: 1362
GlyphClass: 2
Flags: W
HStem: 0 21G<200 384.251 982 1166.26> 1000 120<847.797 1116.06> 1250 100<417 466 667 936> 1490 20G<516.75 701>
VStem: 200 180<0 180> 982 180<0 180> 1154 181<697.938 961.318>
DStem2: 200 0 380 0 0.207912 0.978148<37.4241 819.795 922.756 1277.99 1417.59 1543.74> 982 0 1162 0 0.207912 0.978148<37.4241 859.266>
LayerCount: 2
Fore
SplineSet
200 0 m 1,0,-1
 466 1250 l 1,1,-1
 396 1250 l 1,2,-1
 417 1350 l 1,3,-1
 487 1350 l 1,4,-1
 521 1510 l 1,5,-1
 701 1510 l 1,6,-1
 667 1350 l 1,7,-1
 957 1350 l 1,8,-1
 936 1250 l 1,9,-1
 646 1250 l 1,10,-1
 564 866 l 1,11,12
 670 984 670 984 794 1051 c 0,13,14
 923 1120 923 1120 1072 1120 c 0,15,16
 1216 1120 1216 1120 1286 1027 c 0,17,18
 1335 962 1335 962 1335 864 c 0,19,20
 1335 813 1335 813 1324 761 c 2,21,-1
 1162 0 l 1,22,-1
 982 0 l 1,23,-1
 1144 761 l 2,24,25
 1154 808 1154 808 1154 843 c 0,26,27
 1154 894 1154 894 1135 930 c 0,28,29
 1097 1000 1097 1000 995 1000 c 0,30,31
 840 1000 840 1000 700 883 c 0,32,33
 539 748 539 748 495 541 c 2,34,-1
 380 0 l 1,35,-1
 200 0 l 1,0,-1
EndSplineSet
Validated: 19457
EndChar

StartChar: kgreenlandic
Encoding: 312 312 145
Width: 1306
GlyphClass: 2
Flags: W
HStem: 0 21G<200 384.292 982.073 1246> 219 100<448 697.209> 1080 20G<429.745 614 1142 1340>
VStem: 200 180<0 180> 434 180<920 1100> 1003 243<0 243> 1160 180<920 1100>
DStem2: 200 0 380 0 0.207912 0.978148<37.4241 271.643 363.591 1124.61> 896 340 732 259 0.717279 -0.696786<0 313.656>
LayerCount: 2
Fore
SplineSet
200 0 m 1,0,-1
 434 1100 l 1,1,-1
 614 1100 l 1,2,-1
 448 319 l 1,3,4
 786 319 786 319 970 575 c 0,5,6
 1048 684 1048 684 1094 832 c 0,7,8
 1124 929 1124 929 1160 1100 c 1,9,-1
 1340 1100 l 1,10,11
 1300 920 1300 920 1272 831 c 0,12,13
 1227 684 1227 684 1134 554.5 c 128,-1,14
 1041 425 1041 425 896 340 c 1,15,-1
 1246 0 l 1,16,-1
 1003 0 l 1,17,-1
 732 259 l 1,18,19
 568 219 568 219 427 219 c 1,20,-1
 380 0 l 1,21,-1
 200 0 l 1,0,-1
EndSplineSet
Validated: 1
EndChar

StartChar: Lslash
Encoding: 321 321 146
Width: 1048
GlyphClass: 2
Flags: W
HStem: 0 120<426 1028> 1490 20G<516.75 721>
VStem: 521 200<1310 1510>
DStem2: 200 0 400.493 0 0.207912 0.978148<164.366 573.482 692.145 733.728 852.39 1543.74> 254 631 286 544 0.889177 0.457564<0 25.767 354.216 720.784>
LayerCount: 2
Fore
SplineSet
200 0 m 1,0,-1
 319 561 l 1,1,-1
 286 544 l 1,2,-1
 254 631 l 1,3,-1
 344 677 l 1,4,-1
 521 1510 l 1,5,-1
 721 1510 l 1,6,-1
 569 793 l 1,7,-1
 905 966 l 1,8,-1
 937 879 l 1,9,-1
 544 677 l 1,10,-1
 426 120 l 1,11,-1
 1054 120 l 1,12,-1
 1028 0 l 1,13,-1
 200 0 l 1,0,-1
EndSplineSet
Validated: 1
EndChar

StartChar: lslash
Encoding: 322 322 147
Width: 710
GlyphClass: 2
Flags: W
HStem: -20 100<499.727 601> 1490 20G<581.754 766>
VStem: 303 182<100.699 272.136> 586 180<1330 1510>
DStem2: 174 631 206 544 0.889177 0.457564<0 209.138 511.645 720.784> 260.325 -20 440.325 -20 0.207912 0.978148<236.963 679.924 798.587 823.65 942.313 1564.28>
LayerCount: 2
Fore
SplineSet
601 -20 m 1,0,1
 303 -20 303 -20 303 156 c 0,2,3
 303 181 303 181 309 209 c 2,4,-1
 402 645 l 1,5,-1
 206 544 l 1,6,-1
 174 631 l 1,7,-1
 427 761 l 1,8,-1
 586 1510 l 1,9,-1
 766 1510 l 1,10,-1
 629 865 l 1,11,-1
 825 966 l 1,12,-1
 857 879 l 1,13,-1
 604 749 l 1,14,-1
 489 209 l 2,15,16
 485 190 485 190 485 174 c 0,17,18
 485 80 485 80 622 80 c 1,19,-1
 601 -20 l 1,0,1
EndSplineSet
Validated: 1
EndChar

StartChar: Eng
Encoding: 330 330 148
Width: 1571
GlyphClass: 2
Flags: W
HStem: -430 100<941 1063.1> 0 21G<200 404.261> 1396 134<1021.62 1340.15> 1490 20G<516.748 721>
VStem: 200 200<0 200> 521 200<1310 1510> 1415 202<1035.49 1322.91>
DStem2: 108.601 -430 308.601 -430 0.207912 0.978148<481.189 1609.51 1724.26 1983.35> 1079.7 -430 1279.7 -430 0.207912 0.978148<155.613 1654>
LayerCount: 2
Fore
SplineSet
200 0 m 1,0,-1
 521 1510 l 1,1,-1
 721 1510 l 1,2,-1
 658 1216 l 1,3,4
 775 1359 775 1359 927 1442 c 0,5,6
 1086 1530 1086 1530 1253 1530 c 0,7,8
 1460 1530 1460 1530 1557 1401 c 0,9,10
 1617 1323 1617 1323 1617 1209 c 0,11,12
 1617 1158 1617 1158 1605 1100 c 2,13,-1
 1339 -151 l 2,14,15
 1280 -430 1280 -430 920 -430 c 1,16,-1
 941 -330 l 1,17,18
 1101 -330 1101 -330 1139 -151 c 2,19,-1
 1404 1098 l 2,20,21
 1415 1149 1415 1149 1415 1191 c 0,22,23
 1415 1264 1415 1264 1382 1310 c 0,24,25
 1321 1396 1321 1396 1188 1396 c 0,26,27
 982 1396 982 1396 815 1251 c 0,28,29
 632 1092 632 1092 586 873 c 2,30,-1
 400 0 l 1,31,-1
 200 0 l 1,0,-1
EndSplineSet
Validated: 1
EndChar

StartChar: eng
Encoding: 331 331 149
Width: 1362
GlyphClass: 2
Flags: W
HStem: -430 100<752 874.939> 0 21G<200 384.251> 1000 120<847.797 1116.06> 1080 20G<429.745 614>
VStem: 200 180<0 180> 434 180<920 1100> 1154 182<697.532 962.249>
DStem2: 108.601 -430 288.601 -430 0.207912 0.978148<477.031 1259.98 1362.36 1564.22> 890.697 -430 1070.7 -430 0.207912 0.978148<145.391 1298.79>
LayerCount: 2
Fore
SplineSet
200 0 m 1,0,-1
 434 1100 l 1,1,-1
 614 1100 l 1,2,-1
 564 866 l 1,3,4
 670 984 670 984 794 1051 c 0,5,6
 923 1120 923 1120 1072 1120 c 0,7,8
 1216 1120 1216 1120 1286 1027 c 0,9,10
 1336 964 1336 964 1336 865 c 0,11,12
 1336 817 1336 817 1324 761 c 2,13,-1
 1130 -151 l 2,14,15
 1071 -430 1071 -430 731 -430 c 9,16,-1
 752 -330 l 1,17,18
 912 -330 912 -330 950 -151 c 2,19,-1
 1144 761 l 2,20,21
 1154 806 1154 806 1154 843 c 0,22,23
 1154 894 1154 894 1135 930 c 0,24,25
 1097 1000 1097 1000 995 1000 c 0,26,27
 840 1000 840 1000 700 883 c 0,28,29
 540 749 540 749 495 541 c 2,30,-1
 380 0 l 1,31,-1
 200 0 l 1,0,-1
EndSplineSet
Validated: 1
EndChar

StartChar: OE
Encoding: 338 338 150
Width: 2540
GlyphClass: 2
Flags: W
HStem: -20 120<629.414 1083.56 1602.22 2052.13> 696 120<1833 2234> 1410 120<999.615 1448.5 1969.72 2421.59>
VStem: 224 219<285.747 760.891> 1637 218<829.096 1222.99>
LayerCount: 2
Fore
SplineSet
839 100 m 0,0,1
 1100 100 1100 100 1298 280 c 0,2,3
 1549 509 1549 509 1617 839 c 0,4,5
 1637 935 1637 935 1637 1016 c 0,6,7
 1637 1145 1637 1145 1586 1236 c 0,8,9
 1487 1410 1487 1410 1241 1410 c 0,10,11
 980 1410 980 1410 782 1230 c 0,12,13
 531 1001 531 1001 463 671 c 0,14,15
 443 575 443 575 443 494 c 0,16,17
 443 365 443 365 494 274 c 0,18,19
 593 100 593 100 839 100 c 0,0,1
784 -20 m 0,20,21
 471 -20 471 -20 319 190 c 0,22,23
 224 321 224 321 224 502 c 0,24,25
 224 571 224 571 238 648 c 0,26,27
 310 1057 310 1057 657 1311 c 0,28,29
 956 1530 956 1530 1296 1530 c 0,30,31
 1568 1530 1568 1530 1718 1372 c 1,32,33
 1978 1530 1978 1530 2267 1530 c 0,34,35
 2580 1530 2580 1530 2732 1320 c 1,36,-1
 2557 1236 l 1,37,38
 2458 1410 2458 1410 2212 1410 c 0,39,40
 1978 1410 1978 1410 1795 1265 c 1,41,42
 1855 1152 1855 1152 1855 1007 c 0,43,44
 1855 938 1855 938 1842 862 c 0,45,46
 1838 839 1838 839 1833 816 c 1,47,-1
 2259 816 l 1,48,-1
 2234 696 l 1,49,-1
 1799 696 l 1,50,51
 1708 433 1708 433 1483 246 c 1,52,53
 1584 100 1584 100 1810 100 c 0,54,55
 2074 100 2074 100 2269 280 c 0,56,57
 2346 351 2346 351 2407 431 c 1,58,-1
 2537 322 l 1,59,60
 2473 257 2473 257 2394 199 c 0,61,62
 2095 -20 2095 -20 1755 -20 c 0,63,64
 1483 -20 1483 -20 1333 138 c 1,65,66
 1073 -20 1073 -20 784 -20 c 0,20,21
EndSplineSet
Validated: 1
EndChar

StartChar: oe
Encoding: 339 339 151
Width: 1882
GlyphClass: 2
Flags: W
HStem: -20 100<487.743 827.269 1168.32 1507.78> 500 100<1371 1619> 1020 100<751.712 1091.7 1433.26 1770.77>
VStem: 188 203<182.15 583.057> 1187 203<601.68 916.766>
CounterMasks: 1 e0
LayerCount: 2
Fore
SplineSet
632 80 m 0,0,1
 819 80 819 80 962 222 c 0,2,3
 1125 382 1125 382 1171 603 c 0,4,5
 1187 680 1187 680 1187 744 c 0,6,7
 1187 833 1187 833 1153 899 c 0,8,9
 1091 1020 1091 1020 946 1020 c 0,10,11
 759 1020 759 1020 616 878 c 0,12,13
 453 718 453 718 407 497 c 0,14,15
 391 420 391 420 391 356 c 0,16,17
 391 271 391 271 425 201 c 0,18,19
 484 80 484 80 632 80 c 0,0,1
593 -20 m 0,20,21
 360 -20 360 -20 255 133 c 0,22,23
 188 233 188 233 188 362 c 0,24,25
 188 417 188 417 201 477 c 0,26,27
 257 742 257 742 499 939 c 0,28,29
 720 1120 720 1120 985 1120 c 0,30,31
 1177 1120 1177 1120 1284 1013 c 1,32,33
 1462 1120 1462 1120 1666 1120 c 0,34,35
 1891 1120 1891 1120 2004 967 c 1,36,-1
 1839 890 l 1,37,38
 1775 1020 1775 1020 1627 1020 c 0,39,40
 1473 1020 1473 1020 1349 924 c 1,41,42
 1390 843 1390 843 1390 743 c 0,43,44
 1390 686 1390 686 1376 623 c 0,45,46
 1374 611 1374 611 1371 600 c 1,47,-1
 1641 600 l 1,48,-1
 1619 500 l 1,49,-1
 1339 500 l 1,50,51
 1270 329 1270 329 1112 189 c 1,52,53
 1177 80 1177 80 1313 80 c 0,54,55
 1500 80 1500 80 1643 222 c 0,56,57
 1700 278 1700 278 1742 341 c 1,58,-1
 1855 248 l 1,59,60
 1811 203 1811 203 1760 161 c 0,61,62
 1541 -20 1541 -20 1274 -20 c 0,63,64
 1085 -20 1085 -20 975 88 c 1,65,66
 797 -20 797 -20 593 -20 c 0,20,21
EndSplineSet
Validated: 1
EndChar

StartChar: Tbar
Encoding: 358 358 152
Width: 1160
GlyphClass: 2
Flags: W
HStem: 0 21G<480 684.249> 659 100<456 620 841 1005> 1390 120<341 775 975 1435>
VStem: 480 200<0 200>
DStem2: 480 0 680 0 0.207912 0.978148<41.5823 673.707 817.47 1420.96>
LayerCount: 2
Fore
SplineSet
480 0 m 1,0,-1
 620 659 l 1,1,-1
 435 659 l 1,2,-1
 456 759 l 1,3,-1
 641 759 l 1,4,-1
 775 1390 l 1,5,-1
 315 1390 l 1,6,-1
 341 1510 l 1,7,-1
 1461 1510 l 1,8,-1
 1435 1390 l 1,9,-1
 975 1390 l 1,10,-1
 841 759 l 1,11,-1
 1026 759 l 1,12,-1
 1005 659 l 1,13,-1
 820 659 l 1,14,-1
 680 0 l 1,15,-1
 480 0 l 1,0,-1
EndSplineSet
Validated: 1
EndChar

StartChar: tbar
Encoding: 359 359 153
Width: 700
GlyphClass: 2
Flags: W
HStem: -20 100<434.727 536> 552 100<199 317 519 637> 1000 100<294 413 614 893> 1490 20G<516.756 701>
VStem: 238 182<100.699 271.244> 521 180<1330 1510>
DStem2: 195.325 -20 375.325 -20 0.207912 0.978148<236.963 584.798 724.611 1042.97 1182.57 1564.28>
LayerCount: 2
Fore
SplineSet
536 -20 m 1,0,1
 238 -20 238 -20 238 156 c 0,2,3
 238 181 238 181 244 209 c 2,4,-1
 317 552 l 1,5,-1
 177 552 l 1,6,-1
 199 652 l 1,7,-1
 339 652 l 1,8,-1
 413 1000 l 1,9,-1
 273 1000 l 1,10,-1
 294 1100 l 1,11,-1
 434 1100 l 1,12,-1
 521 1510 l 1,13,-1
 701 1510 l 1,14,-1
 614 1100 l 1,15,-1
 914 1100 l 1,16,-1
 893 1000 l 1,17,-1
 593 1000 l 1,18,-1
 519 652 l 1,19,-1
 659 652 l 1,20,-1
 637 552 l 1,21,-1
 497 552 l 1,22,-1
 424 209 l 2,23,24
 420 190 420 190 420 174 c 0,25,26
 420 80 420 80 557 80 c 1,27,-1
 536 -20 l 1,0,1
EndSplineSet
Validated: 1
EndChar

StartChar: longs
Encoding: 383 383 154
Width: 1119
GlyphClass: 2
Flags: W
HStem: 0 21G<220 404.245> 706 100<191 370> 1430 100<953.309 1295.46>
VStem: 220 180<0 180>
DStem2: 220 0 400 0 0.207912 0.978148<37.4241 721.759 823.94 1165.44>
LayerCount: 2
Fore
SplineSet
220 0 m 1,0,-1
 370 706 l 1,1,-1
 170 706 l 1,2,-1
 191 806 l 1,3,-1
 391 806 l 1,4,-1
 409 887 l 2,5,6
 472 1170 472 1170 701 1356 c 0,7,8
 915 1530 915 1530 1192 1530 c 0,9,10
 1328 1530 1328 1530 1423 1475 c 1,11,-1
 1318 1366 l 1,12,13
 1255 1430 1255 1430 1153 1430 c 0,14,15
 964 1430 964 1430 814 1292 c 0,16,17
 641 1134 641 1134 584 867 c 2,18,-1
 400 0 l 1,19,-1
 220 0 l 1,0,-1
EndSplineSet
Validated: 1
EndChar

StartChar: florin
Encoding: 402 402 155
Width: 1099
GlyphClass: 2
Flags: W
HStem: -430 100<-30 92.9392> 706 100<271 350 551 1002> 1430 100<932.856 1275.46>
DStem2: 108.697 -430 288.697 -430 0.207912 0.978148<145.391 1161.35 1300.95 1604.72>
LayerCount: 2
Fore
SplineSet
-51 -430 m 1,0,-1
 -30 -330 l 1,1,2
 130 -330 130 -330 168 -151 c 2,3,-1
 350 706 l 1,4,-1
 250 706 l 1,5,-1
 271 806 l 1,6,-1
 371 806 l 1,7,-1
 389 887 l 2,8,9
 452 1170 452 1170 679 1355 c 0,10,11
 894 1530 894 1530 1172 1530 c 0,12,13
 1308 1530 1308 1530 1403 1475 c 1,14,-1
 1298 1366 l 1,15,16
 1235 1430 1235 1430 1133 1430 c 0,17,18
 944 1430 944 1430 794 1292 c 0,19,20
 621 1134 621 1134 551 806 c 1,21,-1
 1023 806 l 1,22,-1
 1002 706 l 1,23,-1
 530 706 l 1,24,-1
 348 -151 l 2,25,26
 289 -430 289 -430 -51 -430 c 1,0,-1
EndSplineSet
Validated: 1
EndChar

StartChar: endash
Encoding: 8211 8211 156
Width: 1180
GlyphClass: 2
Flags: W
HStem: 680 150<326 1175>
LayerCount: 2
Fore
SplineSet
326 830 m 1,0,-1
 1206 830 l 1,1,-1
 1175 680 l 1,2,-1
 295 680 l 1,3,-1
 326 830 l 1,0,-1
EndSplineSet
Validated: 1
EndChar

StartChar: emdash
Encoding: 8212 8212 157
Width: 1480
GlyphClass: 2
Flags: W
HStem: 680 150<326 1475>
LayerCount: 2
Fore
SplineSet
326 830 m 1,0,-1
 1506 830 l 1,1,-1
 1475 680 l 1,2,-1
 295 680 l 1,3,-1
 326 830 l 1,0,-1
EndSplineSet
Validated: 1
EndChar

StartChar: afii00208
Encoding: 8213 8213 158
Width: 1480
GlyphClass: 2
Flags: W
HStem: 680 150<326 1475>
LayerCount: 2
Fore
SplineSet
326 830 m 1,0,-1
 1506 830 l 1,1,-1
 1475 680 l 1,2,-1
 295 680 l 1,3,-1
 326 830 l 1,0,-1
EndSplineSet
Validated: 1
EndChar

StartChar: quoteleft
Encoding: 8216 8216 159
Width: 352
GlyphClass: 2
Flags: W
HStem: 1065 485
VStem: 321 145<1198.99 1392.76>
LayerCount: 2
Fore
SplineSet
552 1550 m 1,0,-1
 616 1462 l 1,1,2
 491 1412 491 1412 469 1312 c 0,3,4
 466 1296 466 1296 466 1282 c 0,5,6
 466 1207 466 1207 559 1172 c 1,7,-1
 448 1065 l 1,8,9
 321 1132 321 1132 321 1249 c 0,10,11
 321 1275 321 1275 327 1302 c 0,12,13
 362 1468 362 1468 552 1550 c 1,0,-1
EndSplineSet
Validated: 1
EndChar

StartChar: quoteright
Encoding: 8217 8217 160
Width: 352
GlyphClass: 2
Flags: W
HStem: 1065 485
VStem: 442 145<1222.64 1417.15>
LayerCount: 2
Fore
SplineSet
459 1550 m 1,0,1
 587 1482 587 1482 587 1365 c 0,2,3
 587 1340 587 1340 581 1313 c 0,4,5
 546 1147 546 1147 355 1065 c 1,6,-1
 292 1153 l 1,7,8
 417 1203 417 1203 439 1303 c 0,9,10
 442 1319 442 1319 442 1333 c 0,11,12
 442 1408 442 1408 349 1443 c 1,13,-1
 459 1550 l 1,0,1
EndSplineSet
Validated: 1
EndChar

StartChar: quotesinglbase
Encoding: 8218 8218 161
Width: 352
GlyphClass: 2
Flags: W
HStem: -270 485
VStem: 158 145<-112.359 79.7949>
LayerCount: 2
Fore
SplineSet
176 215 m 1,0,1
 303 148 303 148 303 31 c 0,2,3
 303 5 303 5 297 -22 c 0,4,5
 262 -188 262 -188 72 -270 c 1,6,-1
 8 -182 l 1,7,8
 133 -132 133 -132 155 -32 c 0,9,10
 158 -16 158 -16 158 -2 c 0,11,12
 158 73 158 73 65 108 c 1,13,-1
 176 215 l 1,0,1
EndSplineSet
Validated: 1
EndChar

StartChar: quotereversed
Encoding: 8219 8219 162
Width: 352
GlyphClass: 2
Flags: W
HStem: 1065 485
VStem: 322 142<1179.63 1378.82>
LayerCount: 2
Fore
SplineSet
551 1550 m 1,0,1
 617 1443 l 1,2,3
 488 1401 488 1401 467 1303 c 0,4,5
 464 1287 464 1287 464 1272 c 0,6,7
 464 1195 464 1195 550 1153 c 1,8,-1
 449 1065 l 1,9,10
 322 1132 322 1132 322 1254 c 0,11,12
 322 1282 322 1282 329 1313 c 0,13,14
 362 1468 362 1468 551 1550 c 1,0,1
EndSplineSet
Validated: 1
EndChar

StartChar: quotedblleft
Encoding: 8220 8220 163
Width: 652
GlyphClass: 2
Flags: W
HStem: 1065 485
VStem: 321 145<1198.99 1392.76> 621 145<1198.99 1392.76>
LayerCount: 2
Fore
SplineSet
552 1550 m 1,0,-1
 616 1462 l 1,1,2
 491 1412 491 1412 469 1312 c 0,3,4
 466 1296 466 1296 466 1282 c 0,5,6
 466 1207 466 1207 559 1172 c 1,7,-1
 448 1065 l 1,8,9
 321 1132 321 1132 321 1249 c 0,10,11
 321 1275 321 1275 327 1302 c 0,12,13
 362 1468 362 1468 552 1550 c 1,0,-1
852 1550 m 1,14,-1
 916 1462 l 1,15,16
 791 1412 791 1412 769 1312 c 0,17,18
 766 1296 766 1296 766 1282 c 0,19,20
 766 1207 766 1207 859 1172 c 1,21,-1
 748 1065 l 1,22,23
 621 1132 621 1132 621 1249 c 0,24,25
 621 1275 621 1275 627 1302 c 0,26,27
 662 1468 662 1468 852 1550 c 1,14,-1
EndSplineSet
Validated: 1
EndChar

StartChar: quotedblright
Encoding: 8221 8221 164
Width: 652
GlyphClass: 2
Flags: W
HStem: 1065 485
VStem: 442 145<1222.64 1417.15> 742 145<1222.64 1417.15>
LayerCount: 2
Fore
SplineSet
759 1550 m 1,0,1
 887 1482 887 1482 887 1365 c 0,2,3
 887 1340 887 1340 881 1313 c 0,4,5
 846 1147 846 1147 655 1065 c 1,6,-1
 592 1153 l 1,7,8
 717 1203 717 1203 739 1303 c 0,9,10
 742 1319 742 1319 742 1333 c 0,11,12
 742 1408 742 1408 649 1443 c 1,13,-1
 759 1550 l 1,0,1
459 1550 m 1,14,15
 587 1482 587 1482 587 1365 c 0,16,17
 587 1340 587 1340 581 1313 c 0,18,19
 546 1147 546 1147 355 1065 c 1,20,-1
 292 1153 l 1,21,22
 417 1203 417 1203 439 1303 c 0,23,24
 442 1319 442 1319 442 1333 c 0,25,26
 442 1408 442 1408 349 1443 c 1,27,-1
 459 1550 l 1,14,15
EndSplineSet
Validated: 1
EndChar

StartChar: quotedblbase
Encoding: 8222 8222 165
Width: 652
GlyphClass: 2
Flags: W
HStem: -270 485
VStem: 158 145<-112.359 79.7949> 458 145<-112.359 79.7949>
LayerCount: 2
Fore
SplineSet
476 215 m 1,0,1
 603 148 603 148 603 31 c 0,2,3
 603 5 603 5 597 -22 c 0,4,5
 562 -188 562 -188 372 -270 c 1,6,-1
 308 -182 l 1,7,8
 433 -132 433 -132 455 -32 c 0,9,10
 458 -16 458 -16 458 -2 c 0,11,12
 458 73 458 73 365 108 c 1,13,-1
 476 215 l 1,0,1
176 215 m 1,14,15
 303 148 303 148 303 31 c 0,16,17
 303 5 303 5 297 -22 c 0,18,19
 262 -188 262 -188 72 -270 c 1,20,-1
 8 -182 l 1,21,22
 133 -132 133 -132 155 -32 c 0,23,24
 158 -16 158 -16 158 -2 c 0,25,26
 158 73 158 73 65 108 c 1,27,-1
 176 215 l 1,14,15
EndSplineSet
Validated: 1
EndChar

StartChar: dagger
Encoding: 8224 8224 166
Width: 1180
GlyphClass: 2
Flags: W
HStem: 0 21G<490 694.252> 1049 120<398 713 938 1253> 1490 20G<806.718 1011>
VStem: 490 200<0 200> 811 200<1310 1510>
DStem2: 490 0 690 0 0.207912 0.978148<41.5823 1072.44 1236.6 1543.74>
LayerCount: 2
Fore
SplineSet
490 0 m 1,0,-1
 713 1049 l 1,1,-1
 373 1049 l 1,2,-1
 398 1169 l 1,3,-1
 738 1169 l 1,4,-1
 811 1510 l 1,5,-1
 1011 1510 l 1,6,-1
 938 1169 l 1,7,-1
 1278 1169 l 1,8,-1
 1253 1049 l 1,9,-1
 913 1049 l 1,10,-1
 690 0 l 1,11,-1
 490 0 l 1,0,-1
EndSplineSet
Validated: 1
EndChar

StartChar: daggerdbl
Encoding: 8225 8225 167
Width: 1180
GlyphClass: 2
Flags: W
HStem: 0 21G<490 694.223> 341 120<248 562 788 1102> 1049 120<398 713 938 1253> 1490 20G<806.718 1011>
VStem: 490 200<0 200> 811 200<1310 1510>
DStem2: 490 0 690 0 0.207912 0.978148<41.5823 348.518 512.884 1072.44 1236.6 1543.74>
LayerCount: 2
Fore
SplineSet
490 0 m 1,0,-1
 562 341 l 1,1,-1
 222 341 l 1,2,-1
 248 461 l 1,3,-1
 588 461 l 1,4,-1
 713 1049 l 1,5,-1
 373 1049 l 1,6,-1
 398 1169 l 1,7,-1
 738 1169 l 1,8,-1
 811 1510 l 1,9,-1
 1011 1510 l 1,10,-1
 938 1169 l 1,11,-1
 1278 1169 l 1,12,-1
 1253 1049 l 1,13,-1
 913 1049 l 1,14,-1
 788 461 l 1,15,-1
 1128 461 l 1,16,-1
 1102 341 l 1,17,-1
 762 341 l 1,18,-1
 690 0 l 1,19,-1
 490 0 l 1,0,-1
EndSplineSet
Validated: 1
EndChar

StartChar: bullet
Encoding: 8226 8226 168
Width: 930
GlyphClass: 2
Flags: W
HStem: 443 626<553.613 698.269>
VStem: 295 662<696.099 820.016>
LayerCount: 2
Fore
SplineSet
734 1069 m 0,0,1
 857 1069 857 1069 919 985 c 0,2,3
 957 933 957 933 957 863 c 0,4,5
 957 831 957 831 949 796 c 0,6,7
 918 650 918 650 786 543 c 0,8,9
 662 443 662 443 517 443 c 0,10,11
 395 443 395 443 333 527 c 0,12,13
 295 579 295 579 295 650 c 0,14,15
 295 681 295 681 302 716 c 0,16,17
 333 862 333 862 466 969 c 0,18,19
 590 1069 590 1069 734 1069 c 0,0,1
EndSplineSet
Validated: 1
EndChar

StartChar: ellipsis
Encoding: 8230 8230 169
Width: 1072
GlyphClass: 2
Flags: W
HStem: -20 255<122.032 277.139 482.032 637.139 842.032 997.139>
VStem: 70 258<30.585 182.984> 430 258<30.585 182.984> 790 258<30.585 182.984>
CounterMasks: 1 70
LayerCount: 2
Fore
SplineSet
892 -20 m 0,0,1
 839 -20 839 -20 811 18 c 0,2,3
 790 46 790 46 790 81 c 0,4,5
 790 94 790 94 793 108 c 0,6,7
 803 157 803 157 849 197 c 24,8,9
 892 235 892 235 946 235 c 0,10,11
 998 235 998 235 1027 198 c 0,12,13
 1048 170 1048 170 1048 136 c 0,14,15
 1048 123 1048 123 1045 108 c 0,16,17
 1034 55 1034 55 989 17 c 24,18,19
 943 -20 943 -20 892 -20 c 0,0,1
532 -20 m 0,20,21
 479 -20 479 -20 451 18 c 0,22,23
 430 46 430 46 430 81 c 0,24,25
 430 94 430 94 433 108 c 0,26,27
 443 157 443 157 489 197 c 24,28,29
 532 235 532 235 586 235 c 0,30,31
 638 235 638 235 667 198 c 0,32,33
 688 170 688 170 688 136 c 0,34,35
 688 123 688 123 685 108 c 0,36,37
 674 55 674 55 629 17 c 24,38,39
 583 -20 583 -20 532 -20 c 0,20,21
172 -20 m 0,40,41
 119 -20 119 -20 91 18 c 0,42,43
 70 46 70 46 70 81 c 0,44,45
 70 94 70 94 73 108 c 0,46,47
 83 157 83 157 129 197 c 24,48,49
 172 235 172 235 226 235 c 0,50,51
 278 235 278 235 307 198 c 0,52,53
 328 170 328 170 328 136 c 0,54,55
 328 123 328 123 325 108 c 0,56,57
 314 55 314 55 269 17 c 24,58,59
 223 -20 223 -20 172 -20 c 0,40,41
EndSplineSet
Validated: 1
EndChar

StartChar: perthousand
Encoding: 8240 8240 170
Width: 2191
GlyphClass: 2
Flags: W
HStem: -20 93<956.226 1171.43 1628.23 1843.43> 0 21G<250 441.417> 513 93<1061.57 1276.6 1733.57 1948.6> 904 93<563.396 778.426> 1437 93<668.574 883.774> 1490 20G<1398.58 1590>
VStem: 250 176<0 176> 393 143<1020.55 1280.09> 786 143<96.5496 356.09> 911 143<1153.91 1413.45> 1304 143<229.91 489.45> 1414 176<1334 1510> 1458 143<96.5496 356.09> 1976 143<229.91 489.45>
DStem2: 250 0 426 0 0.610522 0.792<107.452 1906.57>
LayerCount: 2
Fore
SplineSet
1680 -20 m 0,0,1
 1557 -20 1557 -20 1496 64 c 0,2,3
 1458 116 1458 116 1458 187 c 0,4,5
 1458 218 1458 218 1465 253 c 0,6,7
 1496 399 1496 399 1629 506 c 0,8,9
 1753 606 1753 606 1897 606 c 0,10,11
 2019 606 2019 606 2081 522 c 0,12,13
 2119 470 2119 470 2119 399 c 0,14,15
 2119 368 2119 368 2112 333 c 0,16,17
 2081 187 2081 187 1948 80 c 0,18,19
 1824 -20 1824 -20 1680 -20 c 0,0,1
1716 73 m 0,20,21
 1801 73 1801 73 1869 140 c 0,22,23
 1946 214 1946 214 1968 318 c 0,24,25
 1976 353 1976 353 1976 382 c 0,26,27
 1976 426 1976 426 1958 456 c 0,28,29
 1927 513 1927 513 1861 513 c 0,30,31
 1776 513 1776 513 1708 446 c 0,32,33
 1631 372 1631 372 1609 268 c 0,34,35
 1601 233 1601 233 1601 204 c 0,36,37
 1601 160 1601 160 1619 130 c 0,38,39
 1650 73 1650 73 1716 73 c 0,20,21
1008 -20 m 0,40,41
 885 -20 885 -20 824 64 c 0,42,43
 786 116 786 116 786 187 c 0,44,45
 786 218 786 218 793 253 c 0,46,47
 824 399 824 399 957 506 c 0,48,49
 1081 606 1081 606 1225 606 c 0,50,51
 1347 606 1347 606 1409 522 c 0,52,53
 1447 470 1447 470 1447 399 c 0,54,55
 1447 368 1447 368 1440 333 c 0,56,57
 1409 187 1409 187 1276 80 c 0,58,59
 1152 -20 1152 -20 1008 -20 c 0,40,41
1044 73 m 0,60,61
 1129 73 1129 73 1197 140 c 0,62,63
 1274 214 1274 214 1296 318 c 0,64,65
 1304 353 1304 353 1304 382 c 0,66,67
 1304 426 1304 426 1286 456 c 0,68,69
 1255 513 1255 513 1189 513 c 0,70,71
 1104 513 1104 513 1036 446 c 0,72,73
 959 372 959 372 937 268 c 0,74,75
 929 233 929 233 929 204 c 0,76,77
 929 160 929 160 947 130 c 0,78,79
 978 73 978 73 1044 73 c 0,60,61
832 1530 m 0,80,81
 955 1530 955 1530 1016 1446 c 0,82,83
 1054 1394 1054 1394 1054 1323 c 0,84,85
 1054 1292 1054 1292 1047 1257 c 0,86,87
 1016 1111 1016 1111 883 1004 c 0,88,89
 759 904 759 904 615 904 c 0,90,91
 493 904 493 904 431 988 c 0,92,93
 393 1040 393 1040 393 1111 c 0,94,95
 393 1142 393 1142 400 1177 c 0,96,97
 431 1323 431 1323 564 1430 c 0,98,99
 688 1530 688 1530 832 1530 c 0,80,81
796 1437 m 0,100,101
 711 1437 711 1437 643 1370 c 0,102,103
 566 1296 566 1296 544 1192 c 0,104,105
 536 1157 536 1157 536 1128 c 0,106,107
 536 1084 536 1084 554 1054 c 0,108,109
 585 997 585 997 651 997 c 0,110,111
 736 997 736 997 804 1064 c 0,112,113
 881 1138 881 1138 903 1242 c 0,114,115
 911 1277 911 1277 911 1306 c 0,116,117
 911 1350 911 1350 893 1380 c 0,118,119
 862 1437 862 1437 796 1437 c 0,100,101
250 0 m 1,120,-1
 1414 1510 l 1,121,-1
 1590 1510 l 1,122,-1
 426 0 l 1,123,-1
 250 0 l 1,120,-1
EndSplineSet
Validated: 1
EndChar

StartChar: minute
Encoding: 8242 8242 171
Width: 408
GlyphClass: 2
Flags: W
HStem: 1170 380
VStem: 299 388
LayerCount: 2
Fore
SplineSet
521 1550 m 1,0,-1
 687 1550 l 1,1,-1
 426 1170 l 1,2,-1
 299 1170 l 1,3,-1
 521 1550 l 1,0,-1
EndSplineSet
Validated: 1
EndChar

StartChar: second
Encoding: 8243 8243 172
Width: 710
GlyphClass: 2
Flags: W
HStem: 1170 380
LayerCount: 2
Fore
SplineSet
823 1550 m 1,0,-1
 989 1550 l 1,1,-1
 728 1170 l 1,2,-1
 601 1170 l 1,3,-1
 823 1550 l 1,0,-1
521 1550 m 1,4,-1
 687 1550 l 1,5,-1
 426 1170 l 1,6,-1
 299 1170 l 1,7,-1
 521 1550 l 1,4,-1
EndSplineSet
Validated: 1
EndChar

StartChar: guilsinglleft
Encoding: 8249 8249 173
Width: 740
GlyphClass: 2
Flags: W
VStem: 291 502
DStem2: 386 777 291 663 0.673309 -0.739361<20.3228 383.626> 330 845 386 777 0.800207 0.599723<4.03042 476.431>
LayerCount: 2
Fore
SplineSet
330 845 m 1,0,-1
 793 1192 l 1,1,-1
 765 1059 l 1,2,-1
 386 777 l 1,3,-1
 645 494 l 1,4,-1
 607 316 l 1,5,-1
 291 663 l 1,6,-1
 330 845 l 1,0,-1
EndSplineSet
Validated: 1
EndChar

StartChar: guilsinglright
Encoding: 8250 8250 174
Width: 740
GlyphClass: 2
Flags: W
VStem: 267 502
DStem2: 295 449 267 316 0.800207 0.599723<0 472.401> 453 1192 415 1014 0.673309 -0.739361<106.021 469.324>
LayerCount: 2
Fore
SplineSet
730 663 m 1,0,-1
 267 316 l 1,1,-1
 295 449 l 1,2,-1
 674 731 l 1,3,-1
 415 1014 l 1,4,-1
 453 1192 l 1,5,-1
 769 845 l 1,6,-1
 730 663 l 1,0,-1
EndSplineSet
Validated: 1
EndChar

StartChar: fraction
Encoding: 8260 8260 175
Width: 1039
GlyphClass: 2
Flags: W
HStem: 0 21G<10 201.417> 1490 20G<1158.58 1350>
VStem: 10 176<0 176> 1174 176<1334 1510>
DStem2: 10 0 186 0 0.610522 0.792<107.452 1906.57>
LayerCount: 2
Fore
SplineSet
10 0 m 1,0,-1
 1174 1510 l 1,1,-1
 1350 1510 l 1,2,-1
 186 0 l 1,3,-1
 10 0 l 1,0,-1
EndSplineSet
Validated: 1
EndChar

StartChar: Euro
Encoding: 8364 8364 176
Width: 1739
GlyphClass: 2
Flags: W
HStem: -20 120<729.414 1181.38> 577 100<194 328 564 1243> 787 100<239 372 632 1287> 1410 120<1099.62 1550.59>
VStem: 324 219<285.747 577>
LayerCount: 2
Fore
SplineSet
884 -20 m 0,0,1
 571 -20 571 -20 419 190 c 0,2,3
 324 321 324 321 324 502 c 0,4,5
 324 538 324 538 328 577 c 1,6,-1
 173 577 l 1,7,-1
 194 677 l 1,8,-1
 344 677 l 1,9,10
 356 734 356 734 372 787 c 1,11,-1
 217 787 l 1,12,-1
 239 887 l 1,13,-1
 410 887 l 1,14,15
 519 1137 519 1137 757 1311 c 0,16,17
 1056 1530 1056 1530 1396 1530 c 0,18,19
 1709 1530 1709 1530 1861 1320 c 1,20,-1
 1686 1236 l 1,21,22
 1587 1410 1587 1410 1341 1410 c 0,23,24
 1080 1410 1080 1410 882 1230 c 0,25,26
 718 1080 718 1080 632 887 c 1,27,-1
 1309 887 l 1,28,-1
 1287 787 l 1,29,-1
 594 787 l 1,30,31
 577 733 577 733 564 677 c 1,32,-1
 1264 677 l 1,33,-1
 1243 577 l 1,34,-1
 548 577 l 1,35,36
 543 534 543 534 543 494 c 0,37,38
 543 365 543 365 594 274 c 0,39,40
 693 100 693 100 939 100 c 0,41,42
 1203 100 1203 100 1398 280 c 0,43,44
 1475 351 1475 351 1536 431 c 1,45,-1
 1666 322 l 1,46,47
 1602 257 1602 257 1523 199 c 0,48,49
 1225 -20 1225 -20 884 -20 c 0,0,1
EndSplineSet
Validated: 1
EndChar

StartChar: afii61248
Encoding: 8453 8453 177
Width: 1973
GlyphClass: 2
Flags: W
HStem: -20 71<1282.07 1532.82> 0 21G<465 656.417> 693 69<1453.46 1703.22> 746 72<592.069 843.256> 1459 71<762.356 1005.72> 1490 20G<1613.58 1805>
VStem: 373 150<879.193 1192.37> 465 176<0 176> 1064 152<106.549 427.658> 1629 176<1334 1510> 1770 151<316.882 637.451>
DStem2: 465 0 641 0 0.610522 0.792<107.452 1906.57>
LayerCount: 2
Fore
SplineSet
1370 -20 m 0,0,1
 1193 -20 1193 -20 1113 90 c 0,2,3
 1064 158 1064 158 1064 245 c 0,4,5
 1064 280 1064 280 1072 318 c 0,6,7
 1113 511 1113 511 1285 648 c 0,8,9
 1427 762 1427 762 1617 762 c 0,10,11
 1792 762 1792 762 1872 653 c 0,12,13
 1921 585 1921 585 1921 499 c 0,14,15
 1921 463 1921 463 1913 425 c 0,16,17
 1872 234 1872 234 1710 103 c 0,18,19
 1558 -20 1558 -20 1370 -20 c 0,0,1
1403 51 m 0,20,21
 1509 51 1509 51 1600 134 c 0,22,23
 1728 249 1728 249 1761 413 c 0,24,25
 1770 456 1770 456 1770 494 c 0,26,27
 1770 561 1770 561 1743 612 c 0,28,29
 1700 693 1700 693 1588 693 c 0,30,31
 1475 693 1475 693 1384 609 c 0,32,33
 1257 492 1257 492 1225 332 c 0,34,35
 1216 286 1216 286 1216 246 c 0,36,37
 1216 179 1216 179 1242 132 c 0,38,39
 1287 51 1287 51 1403 51 c 0,20,21
925 1530 m 128,-1,41
 1105 1530 1105 1530 1186 1423 c 1,42,-1
 1059 1361 l 1,43,44
 1008 1459 1008 1459 896 1459 c 0,45,46
 787 1459 787 1459 692 1374 c 24,47,48
 569 1263 569 1263 532 1097 c 0,49,50
 523 1057 523 1057 523 1020 c 0,51,52
 523 953 523 953 553 900 c 0,53,54
 599 818 599 818 707 818 c 0,55,56
 873 818 873 818 994 999 c 1,57,-1
 1081 924 l 1,58,59
 913 746 913 746 673 746 c 0,60,61
 499 746 499 746 424 846 c 0,62,63
 373 914 373 914 373 1006 c 0,64,65
 373 1049 373 1049 381 1085 c 0,66,67
 425 1286 425 1286 594 1415 c 0,68,40
 745 1530 745 1530 925 1530 c 128,-1,41
465 0 m 1,69,-1
 1629 1510 l 1,70,-1
 1805 1510 l 1,71,-1
 641 0 l 1,72,-1
 465 0 l 1,69,-1
EndSplineSet
Validated: 1
EndChar

StartChar: afii61289
Encoding: 8467 8467 178
Width: 958
GlyphClass: 2
Flags: W
HStem: -20 136<493.285 609.294> 0 21G<50 267.222> 1510 20G<957 1027>
LayerCount: 2
Fore
SplineSet
486 466 m 1,0,1
 648 708 648 708 737 860 c 0,2,3
 896 1134 896 1134 944 1359 c 1,4,5
 826 1238 826 1238 730 1067 c 0,6,7
 544 740 544 740 486 466 c 1,0,1
50 0 m 1,8,9
 205 158 205 158 304 282 c 1,10,11
 310 366 310 366 326 443 c 0,12,13
 368 636 368 636 459 848 c 0,14,15
 631 1247 631 1247 822 1434 c 0,16,17
 920 1530 920 1530 994 1530 c 0,18,19
 1060 1530 1060 1530 1086 1479 c 0,20,21
 1100 1452 1100 1452 1100 1410 c 0,22,23
 1100 1371 1100 1371 1088 1318 c 0,24,25
 1066 1219 1066 1219 1006 1072 c 0,26,27
 862 722 862 722 480 271 c 1,28,29
 480 116 480 116 536 116 c 0,30,31
 560 116 560 116 593.5 145 c 128,-1,32
 627 174 627 174 664 228 c 1,33,-1
 840 228 l 1,34,35
 729 92 729 92 664 41 c 0,36,37
 586 -20 586 -20 498 -20 c 0,38,39
 378 -20 378 -20 324 90 c 1,40,-1
 251 0 l 1,41,-1
 50 0 l 1,8,9
EndSplineSet
Validated: 1
EndChar

StartChar: trademark
Encoding: 8482 8482 179
Width: 1992
VWidth: 1401
GlyphClass: 2
Flags: W
HStem: 1449 71<373 588 728 958 1255.09 1447.68 1725.96 1918.77>
VStem: 440 140<755 895> 870 140<755 895> 1341 140<755 895> 1812 140<755 895> 1936 140<1244.95 1413.25>
DStem2: 440 755 580 755 0.207912 0.978148<29.1076 709.605> 870 755 1010 755 0.207912 0.978148<29.1076 650.89 712.034 782.173> 1341 755 1481 755 0.207912 0.978148<29.1076 612.026> 1812 755 1952 755 0.207912 0.978148<29.1076 611.048>
LayerCount: 2
Fore
SplineSet
1033 1520 m 1,0,-1
 1173 1520 l 1,1,-1
 1152 1423 l 1,2,3
 1271 1530 1271 1530 1409 1530 c 0,4,5
 1570 1530 1570 1530 1596 1400 c 1,6,7
 1734 1530 1734 1530 1880 1530 c 0,8,9
 1982 1530 1982 1530 2033 1477 c 0,10,11
 2076 1432 2076 1432 2076 1364 c 0,12,13
 2076 1338 2076 1338 2070 1309 c 2,14,-1
 1952 755 l 1,15,-1
 1812 755 l 1,16,-1
 1930 1308 l 2,17,18
 1936 1333 1936 1333 1936 1354 c 0,19,20
 1936 1390 1936 1390 1919 1414 c 0,21,22
 1894 1451 1894 1451 1844 1451 c 0,23,24
 1761 1451 1761 1451 1683 1383 c 0,25,26
 1600 1311 1600 1311 1575 1195 c 2,27,-1
 1481 755 l 1,28,-1
 1341 755 l 1,29,-1
 1459 1308 l 2,30,31
 1465 1334 1465 1334 1465 1355 c 0,32,33
 1465 1391 1465 1391 1449 1414 c 0,34,35
 1424 1451 1424 1451 1374 1451 c 0,36,37
 1290 1451 1290 1451 1213 1383 c 0,38,39
 1128 1309 1128 1309 1104 1195 c 2,40,-1
 1010 755 l 1,41,-1
 870 755 l 1,42,-1
 1033 1520 l 1,0,-1
440 755 m 1,43,-1
 588 1449 l 1,44,-1
 358 1449 l 1,45,-1
 373 1520 l 1,46,-1
 973 1520 l 1,47,-1
 958 1449 l 1,48,-1
 728 1449 l 1,49,-1
 580 755 l 1,50,-1
 440 755 l 1,43,-1
EndSplineSet
Validated: 1
EndChar

StartChar: uni2126
Encoding: 8486 8486 180
Width: 1861
GlyphClass: 2
Flags: W
HStem: 0 120<76 459 636.521 683 1011 1164.4 1314 1618> 1410 120<1051.62 1502.84>
VStem: 276 219<285.536 761.132> 1689 218<747.859 1224.19>
LayerCount: 2
Fore
SplineSet
50 0 m 1,0,-1
 76 120 l 1,1,-1
 459 120 l 1,2,3
 412 150 412 150 378 190 c 0,4,5
 276 310 276 310 276 502 c 0,6,7
 276 571 276 571 290 648 c 0,8,9
 365 1059 365 1059 709 1311 c 0,10,11
 1008 1530 1008 1530 1348 1530 c 0,12,13
 1661 1530 1661 1530 1813 1320 c 0,14,15
 1907 1189 1907 1189 1907 1007 c 0,16,17
 1907 938 1907 938 1894 862 c 0,18,19
 1822 442 1822 442 1483 207 c 0,20,21
 1399 149 1399 149 1314 120 c 1,22,-1
 1644 120 l 1,23,-1
 1618 0 l 1,24,-1
 985 0 l 1,25,-1
 1011 120 l 1,26,27
 1213 155 1213 155 1350 280 c 0,28,29
 1601 509 1601 509 1669 839 c 0,30,31
 1689 935 1689 935 1689 1016 c 0,32,33
 1689 1145 1689 1145 1638 1236 c 0,34,35
 1540 1410 1540 1410 1293 1410 c 0,36,37
 1032 1410 1032 1410 834 1230 c 0,38,39
 583 1001 583 1001 515 671 c 0,40,41
 495 575 495 575 495 494 c 0,42,43
 495 365 495 365 546 274 c 24,44,45
 609 161 609 161 709 120 c 1,46,-1
 683 0 l 1,47,-1
 50 0 l 1,0,-1
EndSplineSet
Validated: 1
EndChar

StartChar: estimated
Encoding: 8494 8494 181
Width: 1330
GlyphClass: 2
Flags: W
HStem: -20 92<474.816 877.904> 525 80<477 1112> 1036 84<679.003 1065.2>
LayerCount: 2
Fore
SplineSet
1147 204 m 1,0,1
 1056 113 1056 113 961 61 c 0,2,3
 813 -20 813 -20 661 -20 c 0,4,5
 405 -20 405 -20 286 139 c 0,6,7
 201 252 201 252 201 407 c 0,8,9
 201 474 201 474 217 550 c 0,10,11
 268 788 268 788 451 952 c 24,12,13
 640 1120 640 1120 904 1120 c 0,14,15
 1153 1120 1153 1120 1269 964 c 272,16,17
 1359 843 1359 843 1359 677 c 0,18,19
 1359 605 1359 605 1342 525 c 1,20,-1
 460 525 l 1,21,-1
 389 192 l 1,22,23
 474 72 474 72 681 72 c 256,24,25
 804 72 804 72 908 132 c 0,26,27
 1001 186 1001 186 1068 266 c 1,28,-1
 1147 204 l 1,0,1
477 605 m 1,29,-1
 1112 605 l 1,30,-1
 1175 903 l 1,31,32
 1072 1036 1072 1036 886 1036 c 0,33,34
 695 1036 695 1036 542 914 c 1,35,-1
 477 605 l 1,29,-1
EndSplineSet
Validated: 1
EndChar

StartChar: partialdiff
Encoding: 8706 8706 182
Width: 1285
GlyphClass: 2
Flags: W
HStem: -20 153<435.025 699.292> 879 161<722.652 994.284> 1378 152<776.721 1116.98>
VStem: 216 189<163.617 476.029> 1180 181<896.396 1315.01>
LayerCount: 2
Fore
SplineSet
508 -20 m 0,0,1
 341 -20 341 -20 264 90 c 0,2,3
 216 158 216 158 216 259 c 0,4,5
 216 313 216 313 230 375 c 0,6,7
 284 631 284 631 459 815 c 0,8,9
 675 1040 675 1040 893 1040 c 0,10,11
 1061 1040 1061 1040 1139 891 c 1,12,13
 1180 1020 1180 1020 1180 1133 c 0,14,15
 1180 1188 1180 1188 1170 1239 c 0,16,17
 1142 1378 1142 1378 971 1378 c 0,18,19
 840 1378 840 1378 695 1294 c 1,20,-1
 732 1468 l 1,21,22
 879 1530 879 1530 1028 1530 c 0,23,24
 1205 1530 1205 1530 1294 1411 c 0,25,26
 1361 1320 1361 1320 1361 1162 c 0,27,28
 1361 1062 1361 1062 1334 934 c 0,29,30
 1251 545 1251 545 1022.5 262.5 c 128,-1,31
 794 -20 794 -20 508 -20 c 0,0,1
553 133 m 0,32,33
 691 133 691 133 833 286 c 128,-1,34
 975 439 975 439 1065 680 c 1,35,36
 1061 765 1061 765 1008.5 822 c 128,-1,37
 956 879 956 879 880 879 c 0,38,39
 720 879 720 879 587.5 714.5 c 128,-1,40
 455 550 455 550 416 369 c 0,41,42
 405 319 405 319 405 280 c 0,43,44
 405 133 405 133 553 133 c 0,32,33
EndSplineSet
Validated: 1
EndChar

StartChar: uni2206
Encoding: 8710 8710 183
Width: 1537
GlyphClass: 2
Flags: W
HStem: 0 120<228 1302> 1490 20G<967.086 1203.41>
DStem2: 5 0 228 120 0.542444 0.840092<221.776 1699.67> 1199 1510 1029 1362 0.215355 -0.976536<107.917 1379.57>
LayerCount: 2
Fore
SplineSet
5 0 m 1,0,-1
 980 1510 l 1,1,-1
 1199 1510 l 1,2,-1
 1532 0 l 1,3,-1
 5 0 l 1,0,-1
228 120 m 1,4,-1
 1302 120 l 1,5,-1
 1029 1362 l 1,6,-1
 228 120 l 1,4,-1
EndSplineSet
Validated: 19457
EndChar

StartChar: product
Encoding: 8719 8719 184
Width: 1456
GlyphClass: 2
Flags: W
HStem: -410 21G<113 317.244 969 1173.25> 1390 120<695 1351>
VStem: 113 200<-410 -210> 521 1056<454 1510> 969 200<-410 -210>
DStem2: 113 -410 313 -410 0.207912 0.978148<41.5823 1881.67> 969 -410 1169 -410 0.207912 0.978148<41.5823 1840.09>
LayerCount: 2
Fore
SplineSet
113 -410 m 1,0,-1
 521 1510 l 1,1,-1
 1577 1510 l 1,2,-1
 1169 -410 l 1,3,-1
 969 -410 l 1,4,-1
 1351 1390 l 1,5,-1
 695 1390 l 1,6,-1
 313 -410 l 1,7,-1
 113 -410 l 1,0,-1
EndSplineSet
Validated: 1
EndChar

StartChar: summation
Encoding: 8721 8721 185
Width: 1410
GlyphClass: 2
Flags: W
HStem: -410 120<393 1173> 1390 120<731 1464>
DStem2: 64 -410 393 -290 0.625756 0.780019<299.476 1264.07> 731 1390 471 1510 0.380252 -0.924883<0 800.006>
LayerCount: 2
Fore
SplineSet
64 -410 m 1,0,-1
 855 576 l 1,1,-1
 471 1510 l 1,2,-1
 1490 1510 l 1,3,-1
 1464 1390 l 1,4,-1
 731 1390 l 1,5,-1
 1079 546 l 1,6,-1
 393 -290 l 1,7,-1
 1198 -290 l 1,8,-1
 1173 -410 l 1,9,-1
 64 -410 l 1,0,-1
EndSplineSet
Validated: 1
EndChar

StartChar: minus
Encoding: 8722 8722 186
Width: 1180
GlyphClass: 2
Flags: W
HStem: 680 150<326 1175>
LayerCount: 2
Fore
SplineSet
326 830 m 1,0,-1
 1206 830 l 1,1,-1
 1175 680 l 1,2,-1
 295 680 l 1,3,-1
 326 830 l 1,0,-1
EndSplineSet
Validated: 1
EndChar

StartChar: uni2215
Encoding: 8725 8725 187
Width: 1039
GlyphClass: 2
Flags: W
HStem: 0 21G<10 201.417> 1490 20G<1158.58 1350>
VStem: 10 176<0 176> 1174 176<1334 1510>
DStem2: 10 0 186 0 0.610522 0.792<107.452 1906.57>
LayerCount: 2
Fore
SplineSet
10 0 m 1,0,-1
 1174 1510 l 1,1,-1
 1350 1510 l 1,2,-1
 186 0 l 1,3,-1
 10 0 l 1,0,-1
EndSplineSet
Validated: 1
EndChar

StartChar: uni2219
Encoding: 8729 8729 188
Width: 352
GlyphClass: 2
Flags: W
HStem: 627 255<259.032 414.147>
VStem: 207 259<678.51 829.984>
LayerCount: 2
Fore
SplineSet
363 882 m 0,0,1
 415 882 415 882 445 845 c 0,2,3
 466 818 466 818 466 784 c 0,4,5
 466 770 466 770 463 755 c 0,6,7
 451 701 451 701 406 664 c 0,8,9
 360 627 360 627 309 627 c 0,10,11
 256 627 256 627 228 665 c 0,12,13
 207 693 207 693 207 728 c 0,14,15
 207 741 207 741 210 755 c 0,16,17
 220 804 220 804 266 844 c 24,18,19
 309 882 309 882 363 882 c 0,0,1
EndSplineSet
Validated: 1
EndChar

StartChar: radical
Encoding: 8730 8730 189
Width: 1622
GlyphClass: 2
Flags: W
HStem: 0 21G<534.603 770.914> 705 120<225 384> 1400 110<1662 1869>
DStem2: 567 825 384 705 0.21473 -0.976674<77.9053 684.96> 714 156 758 0 0.542455 0.840085<0 1559.31>
LayerCount: 2
Fore
SplineSet
539 0 m 1,0,-1
 384 705 l 1,1,-1
 200 705 l 1,2,-1
 225 825 l 1,3,-1
 567 825 l 1,4,-1
 714 156 l 1,5,-1
 1588 1510 l 1,6,-1
 1893 1510 l 1,7,-1
 1869 1400 l 1,8,-1
 1662 1400 l 1,9,-1
 758 0 l 1,10,-1
 539 0 l 1,0,-1
EndSplineSet
Validated: 19457
EndChar

StartChar: infinity
Encoding: 8734 8734 190
Width: 1417
GlyphClass: 2
Flags: W
HStem: 443 93<462.465 678.983 949.106 1167.43> 976 93<570.574 789.111 1059.27 1276.11>
VStem: 295 143<574.863 820.049> 813 112<683.5 828.5> 1300 143<691.984 919.09>
CounterMasks: 1 38
LayerCount: 2
Fore
SplineSet
698 976 m 0,0,1
 613 976 613 976 545 909 c 0,2,3
 470 837 470 837 446 731 c 0,4,5
 438 696 438 696 438 667 c 0,6,7
 438 622 438 622 455 591 c 0,8,9
 484 536 484 536 553 536 c 0,10,11
 638 536 638 536 706 603 c 0,12,13
 781 675 781 675 805 781 c 0,14,15
 813 816 813 816 813 845 c 0,16,17
 813 891 813 891 797 920 c 0,18,19
 767 976 767 976 698 976 c 0,0,1
734 1069 m 0,20,21
 857 1069 857 1069 918 985 c 0,22,23
 928 971 928 971 936 955 c 1,24,25
 1069 1069 1069 1069 1221 1069 c 0,26,27
 1344 1069 1344 1069 1405 985 c 0,28,29
 1443 933 1443 933 1443 862 c 0,30,31
 1443 831 1443 831 1436 796 c 0,32,33
 1405 650 1405 650 1272 543 c 0,34,35
 1148 443 1148 443 1004 443 c 0,36,37
 880 443 880 443 820 527 c 0,38,39
 810 541 810 541 802 557 c 1,40,41
 670 443 670 443 517 443 c 0,42,43
 395 443 395 443 333 527 c 0,44,45
 295 579 295 579 295 650 c 0,46,47
 295 681 295 681 302 716 c 0,48,49
 333 862 333 862 466 969 c 0,50,51
 590 1069 590 1069 734 1069 c 0,20,21
1185 976 m 0,52,53
 1100 976 1100 976 1032 909 c 0,54,55
 957 837 957 837 933 731 c 0,56,57
 925 696 925 696 925 667 c 0,58,59
 925 622 925 622 942 591 c 0,60,61
 971 536 971 536 1040 536 c 0,62,63
 1125 536 1125 536 1193 603 c 0,64,65
 1268 675 1268 675 1292 781 c 0,66,67
 1300 816 1300 816 1300 845 c 0,68,69
 1300 891 1300 891 1284 920 c 0,70,71
 1254 976 1254 976 1185 976 c 0,52,53
EndSplineSet
Validated: 1
EndChar

StartChar: approxequal
Encoding: 8776 8776 191
Width: 1182
GlyphClass: 2
Flags: W
HStem: 373 155<802.006 1000.16> 564 155<412.852 611.076> 769 155<886.006 1084.16> 960 155<496.852 695.076>
DStem2: 698 655 714 439 0.786085 -0.618118<-93.4723 247.7> 782 1051 798 835 0.786085 -0.618118<-93.4723 247.7>
LayerCount: 2
Fore
SplineSet
1087 685 m 1,0,-1
 1170 649 l 1,1,2
 1038 373 1038 373 878 373 c 0,3,4
 798 373 798 373 714 439 c 2,5,-1
 597 531 l 2,6,7
 555 564 555 564 506 564 c 0,8,9
 402 564 402 564 328 407 c 1,10,-1
 244 443 l 1,11,12
 376 719 376 719 531 719 c 0,13,14
 617 719 617 719 698 655 c 2,15,-1
 807 569 l 2,16,17
 859 528 859 528 915 528 c 0,18,19
 1013 528 1013 528 1087 685 c 1,0,-1
1171 1081 m 1,20,-1
 1254 1045 l 1,21,22
 1122 769 1122 769 962 769 c 0,23,24
 882 769 882 769 798 835 c 2,25,-1
 681 927 l 2,26,27
 639 960 639 960 590 960 c 0,28,29
 486 960 486 960 412 803 c 1,30,-1
 328 839 l 1,31,32
 460 1115 460 1115 615 1115 c 0,33,34
 701 1115 701 1115 782 1051 c 2,35,-1
 891 965 l 2,36,37
 943 924 943 924 999 924 c 0,38,39
 1097 924 1097 924 1171 1081 c 1,20,-1
EndSplineSet
Validated: 1
EndChar

StartChar: notequal
Encoding: 8800 8800 192
Width: 1180
GlyphClass: 2
Flags: W
HStem: 505 150<289 495 610 614 729 1137> 855 150<364 772 887 891 1006 1212>
DStem2: 337 304 412 254 0.619858 0.784714<7.25366 255.665 518.419 702.016 964.77 1213.18>
LayerCount: 2
Fore
SplineSet
364 1005 m 1,0,-1
 891 1005 l 1,1,-1
 1089 1256 l 1,2,-1
 1164 1206 l 1,3,-1
 1006 1005 l 1,4,-1
 1244 1005 l 1,5,-1
 1212 855 l 1,6,-1
 887 855 l 1,7,-1
 729 655 l 1,8,-1
 1169 655 l 1,9,-1
 1137 505 l 1,10,-1
 610 505 l 1,11,-1
 412 254 l 1,12,-1
 337 304 l 1,13,-1
 495 505 l 1,14,-1
 257 505 l 1,15,-1
 289 655 l 1,16,-1
 614 655 l 1,17,-1
 772 855 l 1,18,-1
 332 855 l 1,19,-1
 364 1005 l 1,0,-1
EndSplineSet
Validated: 1
EndChar

StartChar: lessequal
Encoding: 8804 8804 193
Width: 1257
GlyphClass: 2
Flags: W
HStem: 215 150<278 1103>
DStem2: 524 925 376 823 0.870478 -0.492207<0 747.7> 408 973 524 925 0.910531 0.413441<85.7764 971.894>
LayerCount: 2
Fore
SplineSet
408 973 m 1,0,-1
 1355 1403 l 1,1,-1
 1331 1291 l 1,2,-1
 524 925 l 1,3,-1
 1176 559 l 1,4,-1
 1140 391 l 1,5,-1
 376 823 l 1,6,-1
 408 973 l 1,0,-1
278 365 m 1,7,-1
 1135 365 l 1,8,-1
 1103 215 l 1,9,-1
 246 215 l 1,10,-1
 278 365 l 1,7,-1
EndSplineSet
Validated: 1
EndChar

StartChar: greaterequal
Encoding: 8805 8805 194
Width: 1257
GlyphClass: 2
Flags: W
HStem: 215 150<278 1103>
DStem2: 308 503 284 391 0.910695 0.413079<0 887.029> 499 1403 464 1235 0.870478 -0.492207<52.2241 799.924>
LayerCount: 2
Fore
SplineSet
1232 821 m 1,0,-1
 284 391 l 1,1,-1
 308 503 l 1,2,-1
 1116 869 l 1,3,-1
 464 1235 l 1,4,-1
 499 1403 l 1,5,-1
 1263 971 l 1,6,-1
 1232 821 l 1,0,-1
278 365 m 1,7,-1
 1135 365 l 1,8,-1
 1103 215 l 1,9,-1
 246 215 l 1,10,-1
 278 365 l 1,7,-1
EndSplineSet
Validated: 1
EndChar

StartChar: lozenge
Encoding: 9674 9674 195
Width: 1134
GlyphClass: 2
Flags: W
HStem: -20 21G<554.926 579.531> 1510 20G<875.965 899.605>
DStem2: 257 738 442 761 0.625536 0.780196<133.669 721.35> 442 761 257 738 0.374342 -0.927291<0 534.609> 639 264 563 -20 0.637091 0.770789<0 579.527> 892 1530 809 1220 0.355404 -0.934713<260.262 801.241>
LayerCount: 2
Fore
SplineSet
639 264 m 1,0,-1
 1003 715 l 1,1,-1
 809 1220 l 1,2,-1
 442 761 l 1,3,-1
 639 264 l 1,0,-1
563 -20 m 1,4,-1
 257 738 l 1,5,-1
 892 1530 l 1,6,-1
 1192 741 l 1,7,-1
 563 -20 l 1,4,-1
EndSplineSet
Validated: 1
EndChar

StartChar: uni1E02
Encoding: 7682 7682 196
Width: 1499
Flags: W
HStem: -20 87<576.635 974.232> 0 21G<200 404.261> 1396 134<998.408 1280.73> 1490 20G<516.748 721> 1624 255<1103.03 1258.15>
VStem: 200 200<0 200> 521 200<1310 1510> 1051 259<1675.51 1826.98> 1298 215<387.636 690.312> 1331 190<1082.63 1347.14>
DStem2: 195.749 -20 395.749 -20 0.207912 0.978148<62.0292 1193.17 1305.1 1564.19>
LayerCount: 2
Fore
SplineSet
1207 1879 m 0,0,1
 1259 1879 1259 1879 1289 1842 c 0,2,3
 1310 1815 1310 1815 1310 1781 c 0,4,5
 1310 1767 1310 1767 1307 1752 c 0,6,7
 1295 1698 1295 1698 1250 1661 c 0,8,9
 1204 1624 1204 1624 1153 1624 c 0,10,11
 1100 1624 1100 1624 1072 1662 c 0,12,13
 1051 1690 1051 1690 1051 1725 c 0,14,15
 1051 1738 1051 1738 1054 1752 c 0,16,17
 1064 1801 1064 1801 1110 1841 c 24,18,19
 1153 1879 1153 1879 1207 1879 c 0,0,1
200 0 m 1,20,-1
 521 1510 l 1,21,-1
 721 1510 l 1,22,-1
 658 1216 l 1,23,24
 760 1353 760 1353 908 1441.5 c 128,-1,25
 1056 1530 1056 1530 1223 1530 c 0,26,27
 1295 1530 1295 1530 1350 1506 c 0,28,29
 1428 1473 1428 1473 1472 1409 c 0,30,31
 1521 1338 1521 1338 1521 1256 c 0,32,33
 1521 1230 1521 1230 1517 1202 c 0,34,35
 1488 976 1488 976 1184 848 c 1,36,37
 1350 848 1350 848 1438 760 c 0,38,39
 1513 685 1513 685 1513 574 c 0,40,41
 1513 536 1513 536 1504 494 c 0,42,43
 1470 327 1470 327 1327 190 c 0,44,45
 1109 -20 1109 -20 761 -20 c 0,46,47
 554 -20 554 -20 491 119 c 1,48,-1
 501 127 l 1,49,50
 596 67 596 67 740 67 c 0,51,52
 968 67 968 67 1122 200 c 0,53,54
 1253 314 1253 314 1288 473 c 0,55,56
 1298 518 1298 518 1298 557 c 0,57,58
 1298 643 1298 643 1250 695 c 0,59,60
 1184 768 1184 768 1027 768 c 0,61,62
 911 768 911 768 800 755 c 1,63,-1
 803 765 l 1,64,65
 952 808 952 808 1077 880 c 0,66,67
 1288 1001 1288 1001 1325 1178 c 0,68,69
 1331 1206 1331 1206 1331 1231 c 0,70,71
 1331 1288 1331 1288 1301 1330 c 0,72,73
 1254 1396 1254 1396 1132 1396 c 0,74,75
 958 1396 958 1396 805 1251 c 0,76,77
 631 1086 631 1086 586 873 c 2,78,-1
 400 0 l 1,79,-1
 200 0 l 1,20,-1
EndSplineSet
Validated: 1
EndChar

StartChar: uni1E03
Encoding: 7683 7683 197
Width: 1325
Flags: W
HStem: -20 100<500.413 809.74> 1033 87<798.942 1052.19> 1212 255<923.032 1078.15> 1490 20G<516.754 701>
VStem: 269 180<131.188 452.772> 521 180<1330 1510> 871 259<1263.51 1414.98> 1169 203<520.057 913.814>
DStem2: 196.064 -20 376.064 -20 0.207912 0.978148<337.845 1564.12>
LayerCount: 2
Fore
SplineSet
1027 1467 m 0,0,1
 1079 1467 1079 1467 1109 1430 c 0,2,3
 1130 1403 1130 1403 1130 1369 c 0,4,5
 1130 1355 1130 1355 1127 1340 c 0,6,7
 1115 1286 1115 1286 1070 1249 c 0,8,9
 1024 1212 1024 1212 973 1212 c 0,10,11
 920 1212 920 1212 892 1250 c 0,12,13
 871 1278 871 1278 871 1313 c 0,14,15
 871 1326 871 1326 874 1340 c 0,16,17
 884 1389 884 1389 930 1429 c 24,18,19
 973 1467 973 1467 1027 1467 c 0,0,1
966 1120 m 0,20,21
 1191 1120 1191 1120 1304 967 c 0,22,23
 1372 875 1372 875 1372 747 c 0,24,25
 1372 689 1372 689 1358 623 c 0,26,27
 1302 358 1302 358 1060 161 c 0,28,29
 839 -20 839 -20 584 -20 c 0,30,31
 408 -20 408 -20 330 76 c 0,32,33
 269 152 269 152 269 268 c 0,34,35
 269 324 269 324 283 389 c 2,36,-1
 521 1510 l 1,37,-1
 701 1510 l 1,38,-1
 463 389 l 2,39,40
 449 322 449 322 449 270 c 0,41,42
 449 211 449 211 467 171 c 0,43,44
 510 80 510 80 623 80 c 0,45,46
 800 80 800 80 943 222 c 0,47,48
 1105 381 1105 381 1152 603 c 0,49,50
 1169 682 1169 682 1169 746 c 0,51,52
 1169 838 1169 838 1134 899 c 0,53,54
 1056 1033 1056 1033 904 1033 c 0,55,56
 816 1033 816 1033 727 1009 c 1,57,-1
 720 1017 l 1,58,59
 822 1120 822 1120 966 1120 c 0,20,21
EndSplineSet
Validated: 1
EndChar

StartChar: uni1E0A
Encoding: 7690 7690 198
Width: 1736
Flags: W
HStem: -20 87<576.635 987.453> 0 21G<200 404.261> 1410 120<1024.76 1426.96> 1490 20G<516.748 721> 1624 255<1188.03 1343.15>
VStem: 200 200<0 200> 521 200<1310 1510> 1136 259<1675.51 1826.98> 1615 217<750.318 1220.48>
DStem2: 195.749 -20 395.749 -20 0.207912 0.978148<62.0292 1190.94 1305.1 1564.19>
LayerCount: 2
Fore
SplineSet
1292 1879 m 0,0,1
 1344 1879 1344 1879 1374 1842 c 0,2,3
 1395 1815 1395 1815 1395 1781 c 0,4,5
 1395 1767 1395 1767 1392 1752 c 0,6,7
 1380 1698 1380 1698 1335 1661 c 0,8,9
 1289 1624 1289 1624 1238 1624 c 0,10,11
 1185 1624 1185 1624 1157 1662 c 0,12,13
 1136 1690 1136 1690 1136 1725 c 0,14,15
 1136 1738 1136 1738 1139 1752 c 0,16,17
 1149 1801 1149 1801 1195 1841 c 24,18,19
 1238 1879 1238 1879 1292 1879 c 0,0,1
200 0 m 1,20,-1
 521 1510 l 1,21,-1
 721 1510 l 1,22,-1
 658 1216 l 1,23,24
 774 1359 774 1359 927 1442 c 0,25,26
 1087 1530 1087 1530 1273 1530 c 0,27,28
 1586 1530 1586 1530 1738 1320 c 0,29,30
 1832 1189 1832 1189 1832 1007 c 0,31,32
 1832 938 1832 938 1819 862 c 0,33,34
 1750 469 1750 469 1400 199 c 0,35,36
 1116 -20 1116 -20 761 -20 c 0,37,38
 554 -20 554 -20 491 119 c 1,39,-1
 501 127 l 1,40,41
 596 67 596 67 740 67 c 0,42,43
 1037 67 1037 67 1275 280 c 0,44,45
 1523 503 1523 503 1594 839 c 0,46,47
 1615 936 1615 936 1615 1017 c 0,48,49
 1615 1146 1615 1146 1563 1236 c 0,50,51
 1464 1410 1464 1410 1213 1410 c 0,52,53
 999 1410 999 1410 815 1251 c 0,54,55
 633 1093 633 1093 586 873 c 2,56,-1
 400 0 l 1,57,-1
 200 0 l 1,20,-1
EndSplineSet
Validated: 1
EndChar

StartChar: uni1E0B
Encoding: 7691 7691 199
Width: 1391
Flags: W
HStem: -20 108<485.242 801.94> 0 21G<1011 1195.25> 1033 87<780.639 1104.34> 1212 255<923.032 1078.15> 1490 20G<1327.75 1512>
VStem: 187 204<184.224 579.943> 871 259<1263.51 1414.98> 1011 180<0 180> 1332 180<1330 1510>
DStem2: 1006.75 -20 1186.75 -20 0.207912 0.978148<57.8709 259.729 364.327 1564.19>
LayerCount: 2
Fore
SplineSet
1027 1467 m 0,0,1
 1079 1467 1079 1467 1109 1430 c 0,2,3
 1130 1403 1130 1403 1130 1369 c 0,4,5
 1130 1355 1130 1355 1127 1340 c 0,6,7
 1115 1286 1115 1286 1070 1249 c 0,8,9
 1024 1212 1024 1212 973 1212 c 0,10,11
 920 1212 920 1212 892 1250 c 0,12,13
 871 1278 871 1278 871 1313 c 0,14,15
 871 1326 871 1326 874 1340 c 0,16,17
 884 1389 884 1389 930 1429 c 24,18,19
 973 1467 973 1467 1027 1467 c 0,0,1
1191 0 m 1,20,-1
 1011 0 l 1,21,-1
 1061 234 l 1,22,23
 964 115 964 115 850 49 c 0,24,25
 733 -20 733 -20 593 -20 c 0,26,27
 368 -20 368 -20 255 133 c 0,28,29
 187 225 187 225 187 353 c 0,30,31
 187 411 187 411 201 477 c 0,32,33
 257 742 257 742 499 939 c 0,34,35
 720 1120 720 1120 955 1120 c 0,36,37
 1099 1120 1099 1120 1157 1017 c 1,38,-1
 1147 1009 l 1,39,40
 1068 1033 1068 1033 981 1033 c 0,41,42
 774 1033 774 1033 616 878 c 0,43,44
 454 719 454 719 407 497 c 0,45,46
 391 420 391 420 391 356 c 0,47,48
 391 264 391 264 425 201 c 0,49,50
 486 88 486 88 634 88 c 0,51,52
 774 88 774 88 897 188 c 0,53,54
 1083 340 1083 340 1130 559 c 2,55,-1
 1332 1510 l 1,56,-1
 1512 1510 l 1,57,-1
 1191 0 l 1,20,-1
EndSplineSet
Validated: 1
EndChar

StartChar: uni1E1E
Encoding: 7710 7710 200
Width: 1338
Flags: W
HStem: 0 21G<200 404.253> 696 120<573 1118> 1396 134<1021.83 1343.64> 1490 20G<516.748 721> 1624 255<1088.03 1243.15>
VStem: 200 200<0 200> 521 200<1310 1510> 1036 259<1675.51 1826.98>
DStem2: 200 0 400 0 0.207912 0.978148<41.5823 753.144 875.72 1165.88 1284.65 1543.74>
LayerCount: 2
Fore
SplineSet
1192 1879 m 0,0,1
 1244 1879 1244 1879 1274 1842 c 0,2,3
 1295 1815 1295 1815 1295 1781 c 0,4,5
 1295 1767 1295 1767 1292 1752 c 0,6,7
 1280 1698 1280 1698 1235 1661 c 0,8,9
 1189 1624 1189 1624 1138 1624 c 0,10,11
 1085 1624 1085 1624 1057 1662 c 0,12,13
 1036 1690 1036 1690 1036 1725 c 0,14,15
 1036 1738 1036 1738 1039 1752 c 0,16,17
 1049 1801 1049 1801 1095 1841 c 24,18,19
 1138 1879 1138 1879 1192 1879 c 0,0,1
200 0 m 1,20,-1
 521 1510 l 1,21,-1
 721 1510 l 1,22,-1
 658 1216 l 1,23,24
 772 1357 772 1357 927 1442 c 0,25,26
 1087 1530 1087 1530 1253 1530 c 0,27,28
 1458 1530 1458 1530 1557 1401 c 0,29,30
 1587 1362 1587 1362 1602 1315 c 1,31,-1
 1414 1217 l 1,32,33
 1408 1271 1408 1271 1382 1310 c 0,34,35
 1326 1396 1326 1396 1188 1396 c 0,36,37
 982 1396 982 1396 815 1251 c 0,38,39
 637 1096 637 1096 586 873 c 2,40,-1
 573 816 l 1,41,-1
 1143 816 l 1,42,-1
 1118 696 l 1,43,-1
 548 696 l 1,44,-1
 400 0 l 1,45,-1
 200 0 l 1,20,-1
EndSplineSet
Validated: 1
EndChar

StartChar: uni1E1F
Encoding: 7711 7711 201
Width: 1099
Flags: W
HStem: 0 21G<200 384.249> 706 100<271 350 551 1002> 1430 100<933.904 1275> 1624 255<873.032 1028.15>
VStem: 200 180<0 180> 821 259<1675.51 1826.98>
DStem2: 200 0 380 0 0.207912 0.978148<37.4241 721.759 861.364 1160.53>
LayerCount: 2
Fore
SplineSet
977 1879 m 0,0,1
 1029 1879 1029 1879 1059 1842 c 0,2,3
 1080 1815 1080 1815 1080 1781 c 0,4,5
 1080 1767 1080 1767 1077 1752 c 0,6,7
 1065 1698 1065 1698 1020 1661 c 0,8,9
 974 1624 974 1624 923 1624 c 0,10,11
 870 1624 870 1624 842 1662 c 0,12,13
 821 1690 821 1690 821 1725 c 0,14,15
 821 1738 821 1738 824 1752 c 0,16,17
 834 1801 834 1801 880 1841 c 24,18,19
 923 1879 923 1879 977 1879 c 0,0,1
200 0 m 1,20,-1
 350 706 l 1,21,-1
 250 706 l 1,22,-1
 271 806 l 1,23,-1
 371 806 l 1,24,-1
 389 887 l 2,25,26
 450 1162 450 1162 680 1358 c 0,27,28
 882 1530 882 1530 1172 1530 c 0,29,30
 1293 1530 1293 1530 1398 1470 c 1,31,-1
 1298 1366 l 1,32,33
 1235 1430 1235 1430 1133 1430 c 0,34,35
 944 1430 944 1430 794 1292 c 0,36,37
 621 1134 621 1134 551 806 c 1,38,-1
 1023 806 l 1,39,-1
 1002 706 l 1,40,-1
 530 706 l 1,41,-1
 380 0 l 1,42,-1
 200 0 l 1,20,-1
EndSplineSet
Validated: 1
EndChar

StartChar: uni1E40
Encoding: 7744 7744 202
Width: 2472
Flags: W
HStem: 0 21G<200 404.261 1141 1345.26 2082 2286.25> 1396 134<1008.46 1314.28 1949.46 2255.57> 1490 20G<516.748 721> 1624 255<1547.03 1702.15>
VStem: 200 200<0 200> 521 200<1310 1510> 1141 200<0 200> 1384 191<1221 1327.78> 1495 259<1675.51 1826.98> 2082 200<0 200> 2326 202<1035.9 1325.37>
DStem2: 200 0 400 0 0.207912 0.978148<41.5823 1181.32 1284.65 1543.74> 1141 0 1341 0 0.207912 0.978148<41.5823 1181.32> 2082 0 2282 0 0.207912 0.978148<41.5823 1211.51>
LayerCount: 2
Fore
SplineSet
1651 1879 m 0,0,1
 1703 1879 1703 1879 1733 1842 c 0,2,3
 1754 1815 1754 1815 1754 1781 c 0,4,5
 1754 1767 1754 1767 1751 1752 c 0,6,7
 1739 1698 1739 1698 1694 1661 c 0,8,9
 1648 1624 1648 1624 1597 1624 c 0,10,11
 1544 1624 1544 1624 1516 1662 c 0,12,13
 1495 1690 1495 1690 1495 1725 c 0,14,15
 1495 1738 1495 1738 1498 1752 c 0,16,17
 1508 1801 1508 1801 1554 1841 c 24,18,19
 1597 1879 1597 1879 1651 1879 c 0,0,1
200 0 m 1,20,-1
 521 1510 l 1,21,-1
 721 1510 l 1,22,-1
 658 1216 l 1,23,24
 776 1361 776 1361 917 1442 c 0,25,26
 1071 1530 1071 1530 1233 1530 c 0,27,28
 1440 1530 1440 1530 1527 1398 c 0,29,30
 1575 1326 1575 1326 1575 1221 c 1,31,32
 1682 1342 1682 1342 1858 1442 c 0,33,34
 2012 1530 2012 1530 2174 1530 c 0,35,36
 2372 1530 2372 1530 2468 1398 c 0,37,38
 2528 1315 2528 1315 2528 1204 c 0,39,40
 2528 1155 2528 1155 2516 1100 c 2,41,-1
 2282 0 l 1,42,-1
 2082 0 l 1,43,-1
 2315 1098 l 2,44,45
 2326 1147 2326 1147 2326 1188 c 0,46,47
 2326 1261 2326 1261 2293 1310 c 0,48,49
 2236 1396 2236 1396 2109 1396 c 0,50,51
 1913 1396 1913 1396 1746 1251 c 0,52,53
 1576 1103 1576 1103 1527 873 c 2,54,-1
 1341 0 l 1,55,-1
 1141 0 l 1,56,-1
 1374 1098 l 2,57,58
 1384 1145 1384 1145 1384 1186 c 0,59,60
 1384 1258 1384 1258 1352 1310 c 0,61,62
 1300 1396 1300 1396 1168 1396 c 0,63,64
 972 1396 972 1396 805 1251 c 0,65,66
 635 1103 635 1103 586 873 c 2,67,-1
 400 0 l 1,68,-1
 200 0 l 1,20,-1
EndSplineSet
Validated: 1
EndChar

StartChar: uni1E41
Encoding: 7745 7745 203
Width: 2084
Flags: W
HStem: 0 21G<200 384.251 952 1136.25 1704 1888.26> 1000 120<833.871 1089.06 1585.87 1842.95> 1080 20G<429.745 614> 1212 255<1262.03 1417.15>
VStem: 200 180<0 180> 434 180<920 1100> 952 180<0 180> 1124 177<870 965.327> 1210 259<1263.51 1414.98> 1704 180<0 180> 1876 182<698.301 965.887>
DStem2: 200 0 380 0 0.207912 0.978148<37.4241 831.004 922.756 1124.61> 952 0 1132 0 0.207912 0.978148<37.4241 831.004> 1704 0 1884 0 0.207912 0.978148<37.4241 862.109>
LayerCount: 2
Fore
SplineSet
1366 1467 m 0,0,1
 1418 1467 1418 1467 1448 1430 c 0,2,3
 1469 1403 1469 1403 1469 1369 c 0,4,5
 1469 1355 1469 1355 1466 1340 c 0,6,7
 1454 1286 1454 1286 1409 1249 c 0,8,9
 1363 1212 1363 1212 1312 1212 c 0,10,11
 1259 1212 1259 1212 1231 1250 c 0,12,13
 1210 1278 1210 1278 1210 1313 c 0,14,15
 1210 1326 1210 1326 1213 1340 c 0,16,17
 1223 1389 1223 1389 1269 1429 c 24,18,19
 1312 1467 1312 1467 1366 1467 c 0,0,1
200 0 m 1,20,-1
 434 1100 l 1,21,-1
 614 1100 l 1,22,-1
 564 866 l 1,23,24
 674 988 674 988 784 1051 c 0,25,26
 907 1120 907 1120 1047 1120 c 0,27,28
 1198 1120 1198 1120 1260 1028 c 0,29,30
 1301 967 1301 967 1301 870 c 1,31,32
 1386 968 1386 968 1536 1051 c 0,33,34
 1659 1120 1659 1120 1799 1120 c 0,35,36
 1948 1120 1948 1120 2012 1028 c 0,37,38
 2058 961 2058 961 2058 865 c 0,39,40
 2058 816 2058 816 2046 761 c 2,41,-1
 1884 0 l 1,42,-1
 1704 0 l 1,43,-1
 1866 761 l 2,44,45
 1876 808 1876 808 1876 846 c 0,46,47
 1876 896 1876 896 1859 931 c 0,48,49
 1826 1000 1826 1000 1716 1000 c 0,50,51
 1574 1000 1574 1000 1442 883 c 0,52,53
 1291 749 1291 749 1247 541 c 2,54,-1
 1132 0 l 1,55,-1
 952 0 l 1,56,-1
 1114 761 l 2,57,58
 1124 808 1124 808 1124 846 c 0,59,60
 1124 896 1124 896 1107 931 c 0,61,62
 1074 1000 1074 1000 964 1000 c 0,63,64
 822 1000 822 1000 690 883 c 0,65,66
 539 749 539 749 495 541 c 2,67,-1
 380 0 l 1,68,-1
 200 0 l 1,20,-1
EndSplineSet
Validated: 1
EndChar

StartChar: uni1E56
Encoding: 7766 7766 204
Width: 1535
Flags: W
HStem: 0 21G<200 404.261> 360 87<662.86 1044.29> 1396 134<1009.84 1342.98> 1490 20G<516.748 721> 1624 255<1137.03 1292.15>
VStem: 200 200<0 200> 521 200<1310 1510> 1085 259<1675.51 1826.98> 1442 221<904.797 1294.02>
DStem2: 200 0 400 0 0.207912 0.978148<41.5823 1181.32 1284.65 1543.74>
LayerCount: 2
Fore
SplineSet
1241 1879 m 0,0,1
 1293 1879 1293 1879 1323 1842 c 0,2,3
 1344 1815 1344 1815 1344 1781 c 0,4,5
 1344 1767 1344 1767 1341 1752 c 0,6,7
 1329 1698 1329 1698 1284 1661 c 0,8,9
 1238 1624 1238 1624 1187 1624 c 0,10,11
 1134 1624 1134 1624 1106 1662 c 0,12,13
 1085 1690 1085 1690 1085 1725 c 0,14,15
 1085 1738 1085 1738 1088 1752 c 0,16,17
 1098 1801 1098 1801 1144 1841 c 24,18,19
 1187 1879 1187 1879 1241 1879 c 0,0,1
200 0 m 1,20,-1
 521 1510 l 1,21,-1
 721 1510 l 1,22,-1
 658 1216 l 1,23,24
 776 1361 776 1361 917 1442 c 0,25,26
 1071 1530 1071 1530 1249 1530 c 0,27,28
 1463 1530 1463 1530 1574 1394 c 0,29,30
 1663 1285 1663 1285 1663 1131 c 0,31,32
 1663 1083 1663 1083 1654 1032 c 0,33,34
 1594 700 1594 700 1297 499 c 0,35,36
 1091 360 1091 360 862 360 c 0,37,38
 635 360 635 360 572 499 c 1,39,-1
 582 507 l 1,40,41
 677 447 677 447 841 447 c 0,42,43
 1037 447 1037 447 1196 588 c 0,44,45
 1374 747 1374 747 1430 1018 c 0,46,47
 1442 1076 1442 1076 1442 1127 c 0,48,49
 1442 1217 1442 1217 1404 1285 c 256,50,51
 1342 1396 1342 1396 1172 1396 c 0,52,53
 972 1396 972 1396 805 1251 c 0,54,55
 635 1103 635 1103 586 873 c 2,56,-1
 400 0 l 1,57,-1
 200 0 l 1,20,-1
EndSplineSet
Validated: 1
EndChar

StartChar: uni1E57
Encoding: 7767 7767 205
Width: 1391
Flags: W
HStem: -410 21G<113 297.248> -20 87<520.199 844.361> 1012 108<822.581 1139.76> 1080 20G<429.748 614> 1212 255<923.032 1078.15>
VStem: 113 180<-410 -230> 434 180<920 1100> 871 259<1263.51 1414.98> 1234 204<523.99 916.041>
DStem2: 113 -410 293 -410 0.207912 0.978148<37.4241 1237.29 1341.88 1543.74>
LayerCount: 2
Fore
SplineSet
1027 1467 m 0,0,1
 1079 1467 1079 1467 1109 1430 c 0,2,3
 1130 1403 1130 1403 1130 1369 c 0,4,5
 1130 1355 1130 1355 1127 1340 c 0,6,7
 1115 1286 1115 1286 1070 1249 c 0,8,9
 1024 1212 1024 1212 973 1212 c 0,10,11
 920 1212 920 1212 892 1250 c 0,12,13
 871 1278 871 1278 871 1313 c 0,14,15
 871 1326 871 1326 874 1340 c 0,16,17
 884 1389 884 1389 930 1429 c 24,18,19
 973 1467 973 1467 1027 1467 c 0,0,1
434 1100 m 1,20,-1
 614 1100 l 1,21,-1
 564 866 l 1,22,23
 661 985 661 985 774 1051 c 0,24,25
 891 1120 891 1120 1032 1120 c 0,26,27
 1257 1120 1257 1120 1370 967 c 0,28,29
 1438 876 1438 876 1438 749 c 0,30,31
 1438 690 1438 690 1423 623 c 0,32,33
 1367 358 1367 358 1126 161 c 0,34,35
 905 -20 905 -20 670 -20 c 0,36,37
 526 -20 526 -20 468 83 c 1,38,-1
 477 91 l 1,39,40
 556 67 556 67 644 67 c 0,41,42
 851 67 851 67 1009 222 c 0,43,44
 1171 381 1171 381 1218 603 c 0,45,46
 1234 680 1234 680 1234 744 c 0,47,48
 1234 836 1234 836 1200 899 c 0,49,50
 1139 1012 1139 1012 991 1012 c 0,51,52
 851 1012 851 1012 728 912 c 0,53,54
 542 760 542 760 495 541 c 2,55,-1
 293 -410 l 1,56,-1
 113 -410 l 1,57,-1
 434 1100 l 1,20,-1
EndSplineSet
Validated: 1
EndChar

StartChar: uni1E60
Encoding: 7776 7776 206
Width: 1284
Flags: W
HStem: -20 120<461.872 840.478> 1410 120<849.03 1148.76> 1624 255<981.032 1136.15>
VStem: 522 197<1048.62 1270.89> 929 259<1675.51 1826.98> 1083 211<366.307 625.395>
DStem2: 824 1003 695 829 0.877658 -0.479288<-131.783 420.084>
LayerCount: 2
Fore
SplineSet
613 -20 m 0,0,1
 305 -20 305 -20 144 206 c 1,2,-1
 319 293 l 1,3,4
 422 100 422 100 651 100 c 0,5,6
 845 100 845 100 972 248 c 0,7,8
 1056 347 1056 347 1077 454 c 0,9,10
 1083 485 1083 485 1083 512 c 0,11,12
 1083 617 1083 617 977 675 c 2,13,-1
 695 829 l 2,14,15
 522 923 522 923 522 1102 c 0,16,17
 522 1125 522 1125 525 1149 c 0,18,19
 548 1314 548 1314 723 1433 c 0,20,21
 865 1530 865 1530 1037 1530 c 0,22,23
 1244 1530 1244 1530 1362 1386 c 1,24,-1
 1212 1290 l 1,25,26
 1146 1410 1146 1410 1019 1410 c 0,27,28
 902 1410 902 1410 821 1346 c 0,29,30
 742 1282 742 1282 724 1198 c 0,31,32
 719 1174 719 1174 719 1153 c 0,33,34
 719 1060 719 1060 824 1003 c 2,35,-1
 1087 861 l 2,36,37
 1294 749 1294 749 1294 553 c 0,38,39
 1294 525 1294 525 1289 495 c 0,40,41
 1261 312 1261 312 1095 160 c 0,42,43
 898 -20 898 -20 613 -20 c 0,0,1
1085 1879 m 0,44,45
 1137 1879 1137 1879 1167 1842 c 0,46,47
 1188 1815 1188 1815 1188 1781 c 0,48,49
 1188 1767 1188 1767 1185 1752 c 0,50,51
 1173 1698 1173 1698 1128 1661 c 0,52,53
 1082 1624 1082 1624 1031 1624 c 0,54,55
 978 1624 978 1624 950 1662 c 0,56,57
 929 1690 929 1690 929 1725 c 0,58,59
 929 1738 929 1738 932 1752 c 0,60,61
 942 1801 942 1801 988 1841 c 24,62,63
 1031 1879 1031 1879 1085 1879 c 0,44,45
EndSplineSet
Validated: 1
EndChar

StartChar: uni1E61
Encoding: 7777 7777 207
Width: 1020
Flags: W
HStem: -20 100<347.806 682.075> 1020 100<647.853 899.606> 1212 255<743.032 898.147>
VStem: 400 171<757.594 935.487> 691 259<1263.51 1414.98> 825 173<236.308 453.167>
DStem2: 848 631 540 585 0.882692 -0.469952<-335.898 92.2917>
LayerCount: 2
Fore
SplineSet
486 -20 m 0,0,1
 261 -20 261 -20 133 154 c 1,2,-1
 271 222 l 1,3,4
 336 80 336 80 500 80 c 0,5,6
 640 80 640 80 725 156 c 0,7,8
 802 225 802 225 820 316 c 0,9,10
 825 340 825 340 825 361 c 0,11,12
 825 433 825 433 756 470 c 2,13,-1
 540 585 l 2,14,15
 400 660 400 660 400 789 c 0,16,17
 400 802 400 802 402 816 c 0,18,19
 418 954 418 954 557 1047 c 0,20,21
 667 1120 667 1120 810 1120 c 0,22,23
 963 1120 963 1120 1045 1009 c 1,24,-1
 926 933 l 1,25,26
 889 1020 889 1020 793 1020 c 0,27,28
 699 1020 699 1020 638 968 c 0,29,30
 584 922 584 922 574 870 c 0,31,32
 571 855 571 855 571 841 c 0,33,34
 571 779 571 779 638 743 c 2,35,-1
 848 631 l 2,36,37
 998 551 998 551 998 398 c 0,38,39
 998 377 998 377 995 354 c 0,40,41
 972 191 972 191 785 66 c 0,42,43
 655 -20 655 -20 486 -20 c 0,0,1
847 1467 m 0,44,45
 899 1467 899 1467 929 1430 c 0,46,47
 950 1403 950 1403 950 1369 c 0,48,49
 950 1355 950 1355 947 1340 c 0,50,51
 935 1286 935 1286 890 1249 c 0,52,53
 844 1212 844 1212 793 1212 c 0,54,55
 740 1212 740 1212 712 1250 c 0,56,57
 691 1278 691 1278 691 1313 c 0,58,59
 691 1326 691 1326 694 1340 c 0,60,61
 704 1389 704 1389 750 1429 c 24,62,63
 793 1467 793 1467 847 1467 c 0,44,45
EndSplineSet
Validated: 1
EndChar

StartChar: uni1E6A
Encoding: 7786 7786 208
Width: 1160
Flags: W
HStem: 0 21G<480 684.245> 1390 120<341 775 975 1435> 1624 255<878.032 1033.15>
VStem: 480 200<0 200> 826 259<1675.51 1826.98>
DStem2: 480 0 680 0 0.207912 0.978148<41.5823 1420.96>
LayerCount: 2
Fore
SplineSet
982 1879 m 0,0,1
 1034 1879 1034 1879 1064 1842 c 0,2,3
 1085 1815 1085 1815 1085 1781 c 0,4,5
 1085 1767 1085 1767 1082 1752 c 0,6,7
 1070 1698 1070 1698 1025 1661 c 0,8,9
 979 1624 979 1624 928 1624 c 0,10,11
 875 1624 875 1624 847 1662 c 0,12,13
 826 1690 826 1690 826 1725 c 0,14,15
 826 1738 826 1738 829 1752 c 0,16,17
 839 1801 839 1801 885 1841 c 24,18,19
 928 1879 928 1879 982 1879 c 0,0,1
480 0 m 1,20,-1
 775 1390 l 1,21,-1
 315 1390 l 1,22,-1
 341 1510 l 1,23,-1
 1461 1510 l 1,24,-1
 1435 1390 l 1,25,-1
 975 1390 l 1,26,-1
 680 0 l 1,27,-1
 480 0 l 1,20,-1
EndSplineSet
Validated: 1
EndChar

StartChar: uni1E6B
Encoding: 7787 7787 209
Width: 700
Flags: W
HStem: -20 100<434.727 536> 1000 100<294 413 614 893> 1490 20G<516.756 701> 1624 255<585.032 740.147>
VStem: 238 182<100.699 273.799> 521 180<1330 1510> 533 259<1675.51 1826.98>
DStem2: 195.325 -20 375.325 -20 0.207912 0.978148<236.963 1042.97 1182.57 1564.28>
LayerCount: 2
Fore
SplineSet
689 1879 m 0,0,1
 741 1879 741 1879 771 1842 c 0,2,3
 792 1815 792 1815 792 1781 c 0,4,5
 792 1767 792 1767 789 1752 c 0,6,7
 777 1698 777 1698 732 1661 c 0,8,9
 686 1624 686 1624 635 1624 c 0,10,11
 582 1624 582 1624 554 1662 c 0,12,13
 533 1690 533 1690 533 1725 c 0,14,15
 533 1738 533 1738 536 1752 c 0,16,17
 546 1801 546 1801 592 1841 c 24,18,19
 635 1879 635 1879 689 1879 c 0,0,1
536 -20 m 1,20,21
 238 -20 238 -20 238 156 c 0,22,23
 238 181 238 181 244 209 c 2,24,-1
 413 1000 l 1,25,-1
 273 1000 l 1,26,-1
 294 1100 l 1,27,-1
 434 1100 l 1,28,-1
 521 1510 l 1,29,-1
 701 1510 l 1,30,-1
 614 1100 l 1,31,-1
 914 1100 l 1,32,-1
 893 1000 l 1,33,-1
 593 1000 l 1,34,-1
 424 209 l 2,35,36
 420 190 420 190 420 174 c 0,37,38
 420 80 420 80 557 80 c 1,39,-1
 536 -20 l 1,20,21
EndSplineSet
Validated: 1
EndChar

StartChar: Wgrave
Encoding: 7808 7808 210
Width: 2415
Flags: W
HStem: -20 134<547.428 854.162 1452.72 1769.09> 1490 20G<516.745 721 1457.74 1662 2092 2389>
VStem: 275 202<184.631 474.104> 521 200<1310 1510> 1221 193<151.928 425.297> 1462 200<1310 1510> 2328 189<764.438 1229.48>
DStem2: 195.601 -20 396.176 -20 0.207912 0.978148<394.288 1564.22> 1136.35 -20 1337.18 -20 0.207912 0.978148<424.539 1564.27>
LayerCount: 2
Fore
SplineSet
629 -20 m 0,0,1
 431 -20 431 -20 335 112 c 0,2,3
 275 195 275 195 275 306 c 0,4,5
 275 355 275 355 287 410 c 2,6,-1
 521 1510 l 1,7,-1
 721 1510 l 1,8,-1
 488 412 l 2,9,10
 477 363 477 363 477 322 c 0,11,12
 477 249 477 249 510 200 c 0,13,14
 567 114 567 114 694 114 c 0,15,16
 890 114 890 114 1057 259 c 0,17,18
 1227 407 1227 407 1276 637 c 2,19,-1
 1462 1510 l 1,20,-1
 1662 1510 l 1,21,-1
 1429 412 l 2,22,23
 1414 339 1414 339 1414 285 c 0,24,25
 1414 236 1414 236 1426 202 c 0,26,27
 1458 114 1458 114 1580 114 c 0,28,29
 1820 114 1820 114 2014 295 c 0,30,31
 2243 509 2243 509 2313 838 c 0,32,33
 2328 910 2328 910 2328 983 c 0,34,35
 2328 1109 2328 1109 2282 1234 c 0,36,37
 2227 1383 2227 1383 2092 1510 c 1,38,-1
 2349 1510 l 1,39,40
 2429 1424 2429 1424 2478 1280 c 0,41,42
 2517 1164 2517 1164 2517 1040 c 0,43,44
 2517 953 2517 953 2498 862 c 0,45,46
 2413 450 2413 450 2080 196 c 0,47,48
 1797 -20 1797 -20 1515 -20 c 0,49,50
 1303 -20 1303 -20 1245 129 c 0,51,52
 1221 189 1221 189 1221 262 c 0,53,54
 1221 281 1221 281 1223 302 c 1,55,56
 1095 155 1095 155 945 68 c 0,57,58
 794 -20 794 -20 629 -20 c 0,0,1
1567 1940 m 1,59,-1
 1677 1637 l 1,60,-1
 1568 1570 l 1,61,-1
 1402 1838 l 1,62,-1
 1567 1940 l 1,59,-1
EndSplineSet
Validated: 1
EndChar

StartChar: wgrave
Encoding: 7809 7809 211
Width: 1992
Flags: W
HStem: -20 120<475.443 731.811 1227.91 1519.75> 1080 20G<429.742 614 1181.75 1366 1696 1953.5> 1510 20G<1252.65 1292.26>
VStem: 260 182<134.125 401.699> 434 180<920 1100> 1011 183<134.735 230> 1186 180<920 1100> 1876 162<516.814 923.808>
DStem2: 195.692 -20 375.692 -20 0.207912 0.978148<320.387 1145.07> 947.93 -20 1127.69 -20 0.207912 0.978148<351.443 1145.02>
LayerCount: 2
Fore
SplineSet
519 -20 m 0,0,1
 373 -20 373 -20 306 72 c 0,2,3
 260 136 260 136 260 232 c 0,4,5
 260 281 260 281 272 339 c 2,6,-1
 434 1100 l 1,7,-1
 614 1100 l 1,8,-1
 452 339 l 2,9,10
 442 292 442 292 442 254 c 0,11,12
 442 204 442 204 459 169 c 0,13,14
 492 100 492 100 602 100 c 0,15,16
 744 100 744 100 876 217 c 0,17,18
 1027 351 1027 351 1071 559 c 2,19,-1
 1186 1100 l 1,20,-1
 1366 1100 l 1,21,-1
 1204 339 l 2,22,23
 1194 292 1194 292 1194 254 c 0,24,25
 1194 204 1194 204 1211 169 c 0,26,27
 1244 100 1244 100 1359 100 c 0,28,29
 1533 100 1533 100 1679 254 c 0,30,31
 1821 404 1821 404 1863 601 c 0,32,33
 1876 660 1876 660 1876 718 c 0,34,35
 1876 806 1876 806 1846 889 c 0,36,37
 1804 1007 1804 1007 1696 1100 c 1,38,-1
 1921 1100 l 1,39,40
 1986 1029 1986 1029 2019 903 c 0,41,42
 2038 832 2038 832 2038 756 c 0,43,44
 2038 691 2038 691 2024 623 c 0,45,46
 1969 354 1969 354 1737 154 c 0,47,48
 1534 -20 1534 -20 1269 -20 c 0,49,50
 1117 -20 1117 -20 1055 71 c 0,51,52
 1011 135 1011 135 1011 216 c 0,53,54
 1011 223 1011 223 1011 230 c 1,55,56
 923 129 923 129 781 49 c 0,57,58
 659 -20 659 -20 519 -20 c 0,0,1
1285 1530 m 1,59,-1
 1395 1227 l 1,60,-1
 1286 1160 l 1,61,-1
 1120 1428 l 1,62,-1
 1285 1530 l 1,59,-1
EndSplineSet
Validated: 1
EndChar

StartChar: Wacute
Encoding: 7810 7810 212
Width: 2415
Flags: W
HStem: -20 134<547.428 854.162 1452.72 1769.09> 1490 20G<516.745 721 1457.74 1662 2092 2389>
VStem: 275 202<184.631 474.104> 521 200<1310 1510> 1221 193<151.928 425.297> 1462 200<1310 1510> 2328 189<764.438 1229.48>
DStem2: 195.601 -20 396.176 -20 0.207912 0.978148<394.288 1564.22> 1136.35 -20 1337.18 -20 0.207912 0.978148<424.539 1564.27>
LayerCount: 2
Fore
SplineSet
1708 1940 m 1,0,-1
 1848 1824 l 1,1,-1
 1579 1570 l 1,2,-1
 1483 1649 l 1,3,-1
 1708 1940 l 1,0,-1
629 -20 m 0,4,5
 431 -20 431 -20 335 112 c 0,6,7
 275 195 275 195 275 306 c 0,8,9
 275 355 275 355 287 410 c 2,10,-1
 521 1510 l 1,11,-1
 721 1510 l 1,12,-1
 488 412 l 2,13,14
 477 363 477 363 477 322 c 0,15,16
 477 249 477 249 510 200 c 0,17,18
 567 114 567 114 694 114 c 0,19,20
 890 114 890 114 1057 259 c 0,21,22
 1227 407 1227 407 1276 637 c 2,23,-1
 1462 1510 l 1,24,-1
 1662 1510 l 1,25,-1
 1429 412 l 2,26,27
 1414 339 1414 339 1414 285 c 0,28,29
 1414 236 1414 236 1426 202 c 0,30,31
 1458 114 1458 114 1580 114 c 0,32,33
 1820 114 1820 114 2014 295 c 0,34,35
 2243 509 2243 509 2313 838 c 0,36,37
 2328 910 2328 910 2328 983 c 0,38,39
 2328 1109 2328 1109 2282 1234 c 0,40,41
 2227 1383 2227 1383 2092 1510 c 1,42,-1
 2349 1510 l 1,43,44
 2429 1424 2429 1424 2478 1280 c 0,45,46
 2517 1164 2517 1164 2517 1040 c 0,47,48
 2517 953 2517 953 2498 862 c 0,49,50
 2413 450 2413 450 2080 196 c 0,51,52
 1797 -20 1797 -20 1515 -20 c 0,53,54
 1303 -20 1303 -20 1245 129 c 0,55,56
 1221 189 1221 189 1221 262 c 0,57,58
 1221 281 1221 281 1223 302 c 1,59,60
 1095 155 1095 155 945 68 c 0,61,62
 794 -20 794 -20 629 -20 c 0,4,5
EndSplineSet
Validated: 1
EndChar

StartChar: wacute
Encoding: 7811 7811 213
Width: 1992
Flags: W
HStem: -20 120<475.443 731.811 1227.91 1519.75> 1080 20G<429.742 614 1181.75 1366 1696 1953.5> 1510 20G<1402.54 1442.14>
VStem: 260 182<134.125 401.699> 434 180<920 1100> 1011 183<134.735 230> 1186 180<920 1100> 1876 162<516.814 923.808>
DStem2: 195.692 -20 375.692 -20 0.207912 0.978148<320.387 1145.07> 947.93 -20 1127.69 -20 0.207912 0.978148<351.443 1145.02>
LayerCount: 2
Fore
SplineSet
1418 1530 m 1,0,-1
 1558 1414 l 1,1,-1
 1289 1160 l 1,2,-1
 1193 1239 l 1,3,-1
 1418 1530 l 1,0,-1
519 -20 m 0,4,5
 373 -20 373 -20 306 72 c 0,6,7
 260 136 260 136 260 232 c 0,8,9
 260 281 260 281 272 339 c 2,10,-1
 434 1100 l 1,11,-1
 614 1100 l 1,12,-1
 452 339 l 2,13,14
 442 292 442 292 442 254 c 0,15,16
 442 204 442 204 459 169 c 0,17,18
 492 100 492 100 602 100 c 0,19,20
 744 100 744 100 876 217 c 0,21,22
 1027 351 1027 351 1071 559 c 2,23,-1
 1186 1100 l 1,24,-1
 1366 1100 l 1,25,-1
 1204 339 l 2,26,27
 1194 292 1194 292 1194 254 c 0,28,29
 1194 204 1194 204 1211 169 c 0,30,31
 1244 100 1244 100 1359 100 c 0,32,33
 1533 100 1533 100 1679 254 c 0,34,35
 1821 404 1821 404 1863 601 c 0,36,37
 1876 660 1876 660 1876 718 c 0,38,39
 1876 806 1876 806 1846 889 c 0,40,41
 1804 1007 1804 1007 1696 1100 c 1,42,-1
 1921 1100 l 1,43,44
 1986 1029 1986 1029 2019 903 c 0,45,46
 2038 832 2038 832 2038 756 c 0,47,48
 2038 691 2038 691 2024 623 c 0,49,50
 1969 354 1969 354 1737 154 c 0,51,52
 1534 -20 1534 -20 1269 -20 c 0,53,54
 1117 -20 1117 -20 1055 71 c 0,55,56
 1011 135 1011 135 1011 216 c 0,57,58
 1011 223 1011 223 1011 230 c 1,59,60
 923 129 923 129 781 49 c 0,61,62
 659 -20 659 -20 519 -20 c 0,4,5
EndSplineSet
Validated: 1
EndChar

